AtkinsonHyperlegibleNext-ExtraBold.sfdir
StartChar: exclam
Encoding: 33 33 263
Width: 315
GlyphClass: 1
Flags: W
LayerCount: 2
Fore
SplineSet
68 495 m 1,0,-1
 68 668 l 1,1,-1
 246 668 l 1,2,-1
 246 495 l 1,3,-1
 213 252 l 1,4,-1
 101 252 l 1,5,-1
 68 495 l 1,0,-1
84.5 18.5 m 128,-1,7
 54 49 54 49 54 92 c 256,8,9
 54 135 54 135 84.5 165 c 128,-1,10
 115 195 115 195 158 195 c 0,11,12
 200 195 200 195 230.5 165 c 128,-1,13
 261 135 261 135 261 92 c 256,14,15
 261 49 261 49 230.5 18.5 c 128,-1,16
 200 -12 200 -12 158 -12 c 0,17,6
 115 -12 115 -12 84.5 18.5 c 128,-1,7
EndSplineSet
EndChar
StartChar: numbersign
Encoding: 35 35 270
Width: 820
GlyphClass: 1
Flags: W
LayerCount: 2
Fore
SplineSet
156 119 m 1,0,-1
 28 119 l 1,1,-1
 49 270 l 1,2,-1
 178 270 l 1,3,-1
 197 398 l 1,4,-1
 69 398 l 1,5,-1
 90 549 l 1,6,-1
 219 549 l 1,7,-1
 237 668 l 1,8,-1
 388 668 l 1,9,-1
 370 549 l 1,10,-1
 510 549 l 1,11,-1
 528 668 l 1,12,-1
 680 668 l 1,13,-1
 662 549 l 1,14,-1
 792 549 l 1,15,-1
 771 398 l 1,16,-1
 640 398 l 1,17,-1
 622 270 l 1,18,-1
 751 270 l 1,19,-1
 730 119 l 1,20,-1
 599 119 l 1,21,-1
 582 0 l 1,22,-1
 430 0 l 1,23,-1
 447 119 l 1,24,-1
 309 119 l 1,25,-1
 292 0 l 1,26,-1
 140 0 l 1,27,-1
 156 119 l 1,0,-1
470 270 m 1,28,-1
 488 398 l 1,29,-1
 348 398 l 1,30,-1
 330 270 l 1,31,-1
 470 270 l 1,28,-1
EndSplineSet
EndChar
StartChar: dollar
Encoding: 36 36 313
Width: 618
GlyphClass: 1
Flags: W
LayerCount: 2
Fore
SplineSet
112.5 41 m 128,-1,1
 48 85 48 85 19 159 c 1,2,-1
 170 215 l 1,3,4
 177 181 177 181 204.5 157 c 128,-1,5
 232 133 232 133 273 125 c 1,6,-1
 273 276 l 1,7,-1
 239 282 l 2,8,9
 143 300 143 300 89 346.5 c 128,-1,10
 35 393 35 393 35 469 c 0,11,12
 35 556 35 556 102 611 c 128,-1,13
 169 666 169 666 273 677 c 1,14,-1
 273 758 l 1,15,-1
 350 758 l 1,16,-1
 350 679 l 1,17,18
 430 673 430 673 492.5 636.5 c 128,-1,19
 555 600 555 600 582 531 c 1,20,-1
 433 475 l 1,21,22
 412 528 412 528 350 542 c 1,23,-1
 350 407 l 1,24,-1
 366 404 l 2,25,26
 481 380 481 380 539.5 338.5 c 128,-1,27
 598 297 598 297 598 213 c 0,28,29
 598 149 598 149 564.5 100.5 c 128,-1,30
 531 52 531 52 474.5 24 c 128,-1,31
 418 -4 418 -4 350 -10 c 1,32,-1
 350 -90 l 1,33,-1
 273 -90 l 1,34,-1
 273 -10 l 1,35,0
 177 -3 177 -3 112.5 41 c 128,-1,1
409.5 142.5 m 128,-1,37
 432 159 432 159 432 191 c 0,38,39
 432 217 432 217 413.5 233 c 128,-1,40
 395 249 395 249 358 258 c 2,41,-1
 350 260 l 1,42,-1
 350 122 l 1,43,36
 387 126 387 126 409.5 142.5 c 128,-1,37
220 524.5 m 128,-1,45
 201 509 201 509 201 485 c 0,46,47
 201 441 201 441 269 424 c 2,48,-1
 273 423 l 1,49,-1
 273 545 l 1,50,44
 239 540 239 540 220 524.5 c 128,-1,45
EndSplineSet
EndChar
StartChar: percent
Encoding: 37 37 341
Width: 993
GlyphClass: 1
Flags: W
LayerCount: 2
Fore
SplineSet
664 668 m 1,0,-1
 798 668 l 1,1,-1
 331 0 l 1,2,-1
 197 0 l 1,3,-1
 664 668 l 1,0,-1
127.5 305 m 128,-1,5
 82 332 82 332 55 378 c 128,-1,6
 28 424 28 424 28 479 c 256,7,8
 28 534 28 534 55 580 c 128,-1,9
 82 626 82 626 127.5 653 c 128,-1,10
 173 680 173 680 227 680 c 256,11,12
 281 680 281 680 326.5 653 c 128,-1,13
 372 626 372 626 399 580 c 128,-1,14
 426 534 426 534 426 479 c 256,15,16
 426 424 426 424 399 378 c 128,-1,17
 372 332 372 332 326.5 305 c 128,-1,18
 281 278 281 278 227 278 c 256,19,4
 173 278 173 278 127.5 305 c 128,-1,5
277.5 426.5 m 128,-1,21
 299 448 299 448 299 479 c 256,22,23
 299 510 299 510 277.5 531.5 c 128,-1,24
 256 553 256 553 227 553 c 256,25,26
 198 553 198 553 176.5 531.5 c 128,-1,27
 155 510 155 510 155 479 c 256,28,29
 155 448 155 448 176.5 426.5 c 128,-1,30
 198 405 198 405 227 405 c 256,31,20
 256 405 256 405 277.5 426.5 c 128,-1,21
666.5 15 m 128,-1,33
 621 42 621 42 594 88 c 128,-1,34
 567 134 567 134 567 189 c 256,35,36
 567 244 567 244 594 290 c 128,-1,37
 621 336 621 336 666.5 363 c 128,-1,38
 712 390 712 390 766 390 c 256,39,40
 820 390 820 390 865.5 363 c 128,-1,41
 911 336 911 336 938 290 c 128,-1,42
 965 244 965 244 965 189 c 256,43,44
 965 134 965 134 938 88 c 128,-1,45
 911 42 911 42 865.5 15 c 128,-1,46
 820 -12 820 -12 766 -12 c 256,47,32
 712 -12 712 -12 666.5 15 c 128,-1,33
816.5 136.5 m 128,-1,49
 838 158 838 158 838 189 c 256,50,51
 838 220 838 220 816.5 241.5 c 128,-1,52
 795 263 795 263 766 263 c 256,53,54
 737 263 737 263 715.5 241.5 c 128,-1,55
 694 220 694 220 694 189 c 256,56,57
 694 158 694 158 715.5 136.5 c 128,-1,58
 737 115 737 115 766 115 c 256,59,48
 795 115 795 115 816.5 136.5 c 128,-1,49
EndSplineSet
EndChar
StartChar: ampersand
Encoding: 38 38 298
Width: 726
GlyphClass: 1
Flags: W
LayerCount: 2
Fore
SplineSet
151 12 m 128,-1,1
 94 37 94 37 63 81.5 c 128,-1,2
 32 126 32 126 32 182 c 0,3,4
 32 237 32 237 70.5 292 c 128,-1,5
 109 347 109 347 188 382 c 1,6,7
 129 450 129 450 129 536 c 0,8,9
 129 587 129 587 157 626 c 128,-1,10
 185 665 185 665 233 687 c 128,-1,11
 281 709 281 709 341 709 c 0,12,13
 396 709 396 709 441.5 685 c 128,-1,14
 487 661 487 661 513 620.5 c 128,-1,15
 539 580 539 580 539 533 c 0,16,17
 539 479 539 479 509.5 433 c 128,-1,18
 480 387 480 387 411 350 c 1,19,-1
 499 249 l 1,20,21
 533 297 533 297 550 371 c 1,22,-1
 691 371 l 1,23,24
 677 303 677 303 648.5 241.5 c 128,-1,25
 620 180 620 180 588 143 c 1,26,-1
 710 0 l 1,27,-1
 525 0 l 1,28,-1
 483 47 l 1,29,30
 434 14 434 14 385.5 0.5 c 128,-1,31
 337 -13 337 -13 283 -13 c 0,32,0
 208 -13 208 -13 151 12 c 128,-1,1
393 147 m 1,34,-1
 273 281 l 1,35,36
 204 253 204 253 204 193 c 0,37,38
 204 162 204 162 228.5 141.5 c 128,-1,39
 253 121 253 121 298 121 c 0,40,33
 350 121 350 121 393 147 c 1,34,-1
384.5 483.5 m 128,-1,42
 401 507 401 507 401 528 c 0,43,44
 401 555 401 555 384 572 c 128,-1,45
 367 589 367 589 338 589 c 0,46,47
 313 589 313 589 295 573.5 c 128,-1,48
 277 558 277 558 277 536 c 0,49,50
 277 516 277 516 289.5 494 c 128,-1,51
 302 472 302 472 336 441 c 1,52,41
 368 460 368 460 384.5 483.5 c 128,-1,42
EndSplineSet
EndChar
StartChar: parenleft
Encoding: 40 40 277
Width: 351
GlyphClass: 1
Flags: W
LayerCount: 2
Fore
SplineSet
74 50 m 128,-1,1
 40 164 40 164 40 273 c 256,2,3
 40 382 40 382 74 496 c 128,-1,4
 108 610 108 610 167 708 c 1,5,-1
 331 708 l 1,6,7
 266 612 266 612 230 498.5 c 128,-1,8
 194 385 194 385 194 273 c 256,9,10
 194 161 194 161 230 47.5 c 128,-1,11
 266 -66 266 -66 331 -162 c 1,12,-1
 167 -162 l 1,13,0
 108 -64 108 -64 74 50 c 128,-1,1
EndSplineSet
EndChar
StartChar: parenright
Encoding: 41 41 278
Width: 351
GlyphClass: 1
Flags: W
LayerCount: 2
Fore
SplineSet
121 48.5 m 128,-1,1
 157 162 157 162 157 274 c 256,2,3
 157 386 157 386 121 499.5 c 128,-1,4
 85 613 85 613 20 709 c 1,5,-1
 184 709 l 1,6,7
 243 611 243 611 277 497 c 128,-1,8
 311 383 311 383 311 274 c 256,9,10
 311 165 311 165 277 51 c 128,-1,11
 243 -63 243 -63 184 -161 c 1,12,-1
 20 -161 l 1,13,0
 85 -65 85 -65 121 48.5 c 128,-1,1
EndSplineSet
EndChar
StartChar: asterisk
Encoding: 42 42 269
Width: 486
GlyphClass: 1
Flags: W
LayerCount: 2
Fore
SplineSet
92 355 m 1,0,-1
 164 454 l 1,1,-1
 47 492 l 1,2,-1
 77 583 l 1,3,-1
 193 545 l 1,4,-1
 193 668 l 1,5,-1
 289 668 l 1,6,-1
 289 545 l 1,7,-1
 404 583 l 1,8,-1
 435 492 l 1,9,-1
 319 454 l 1,10,-1
 391 355 l 1,11,-1
 313 299 l 1,12,-1
 241 397 l 1,13,-1
 170 299 l 1,14,-1
 92 355 l 1,0,-1
EndSplineSet
EndChar
StartChar: plus
Encoding: 43 43 320
Width: 595
GlyphClass: 1
Flags: W
LayerCount: 2
Fore
SplineSet
229 179 m 1,0,-1
 40 179 l 1,1,-1
 40 317 l 1,2,-1
 229 317 l 1,3,-1
 229 496 l 1,4,-1
 366 496 l 1,5,-1
 366 317 l 1,6,-1
 555 317 l 1,7,-1
 555 179 l 1,8,-1
 366 179 l 1,9,-1
 366 0 l 1,10,-1
 229 0 l 1,11,-1
 229 179 l 1,0,-1
EndSplineSet
EndChar
StartChar: comma
Encoding: 44 44 259
Width: 299
GlyphClass: 1
Flags: W
LayerCount: 2
Fore
SplineSet
68.5 27.5 m 128,-1,1
 46 56 46 56 46 92 c 0,2,3
 46 135 46 135 76.5 165 c 128,-1,4
 107 195 107 195 150 195 c 256,5,6
 193 195 193 195 223 165 c 128,-1,7
 253 135 253 135 253 91 c 0,8,9
 253 72 253 72 246 52 c 2,10,-1
 167 -148 l 1,11,-1
 71 -148 l 1,12,-1
 125 -9 l 1,13,0
 91 -1 91 -1 68.5 27.5 c 128,-1,1
EndSplineSet
EndChar
StartChar: period
Encoding: 46 46 258
Width: 300
GlyphClass: 1
Flags: W
LayerCount: 2
Fore
SplineSet
76.5 18.5 m 128,-1,1
 46 49 46 49 46 92 c 256,2,3
 46 135 46 135 76.5 165.5 c 128,-1,4
 107 196 107 196 150 196 c 0,5,6
 194 196 194 196 224 166 c 128,-1,7
 254 136 254 136 254 92 c 0,8,9
 254 49 254 49 223.5 18.5 c 128,-1,10
 193 -12 193 -12 150 -12 c 256,11,0
 107 -12 107 -12 76.5 18.5 c 128,-1,1
EndSplineSet
EndChar
StartChar: zero
Encoding: 48 48 229
Width: 664
GlyphClass: 1
Flags: W
LayerCount: 2
Fore
SplineSet
117.5 81 m 128,-1,1
 42 174 42 174 42 335 c 256,2,3
 42 496 42 496 117 588 c 128,-1,4
 192 680 192 680 332 680 c 256,5,6
 472 680 472 680 547 588.5 c 128,-1,7
 622 497 622 497 622 335 c 0,8,9
 622 174 622 174 547 81 c 128,-1,10
 472 -12 472 -12 332 -12 c 0,11,0
 193 -12 193 -12 117.5 81 c 128,-1,1
410 143 m 1,13,-1
 215 423 l 1,14,15
 207 383 207 383 207 336 c 0,16,17
 207 221 207 221 240.5 164.5 c 128,-1,18
 274 108 274 108 332 108 c 0,19,12
 381 108 381 108 410 143 c 1,13,-1
457 336 m 0,21,22
 457 422 457 422 429 491.5 c 128,-1,23
 401 561 401 561 332 561 c 0,24,25
 287 561 287 561 258 527 c 1,26,-1
 451 249 l 1,27,20
 457 287 457 287 457 336 c 0,21,22
EndSplineSet
Substitution2: "'tnum' Tabular Numbers in Latin lookup 10 subtable" zero.tf
AlternateSubs2: "'aalt' Access All Alternates in Latin lookup 0 subtable" zero.tf
EndChar
StartChar: two
Encoding: 50 50 231
Width: 593
GlyphClass: 5
Flags: W
LayerCount: 2
Fore
SplineSet
295.5 331 m 128,-1,1
 380 413 380 413 380 483 c 0,2,3
 380 519 380 519 356.5 539 c 128,-1,4
 333 559 333 559 294 559 c 0,5,6
 262 559 262 559 235.5 540.5 c 128,-1,7
 209 522 209 522 199 482 c 1,8,-1
 51 536 l 1,9,10
 79 605 79 605 145.5 642.5 c 128,-1,11
 212 680 212 680 302 680 c 0,12,13
 372 680 372 680 427 656.5 c 128,-1,14
 482 633 482 633 513.5 588.5 c 128,-1,15
 545 544 545 544 545 483 c 0,16,17
 545 387 545 387 470.5 303 c 128,-1,18
 396 219 396 219 245 133 c 1,19,-1
 549 133 l 1,20,-1
 549 0 l 1,21,-1
 35 0 l 1,22,-1
 35 134 l 1,23,0
 211 249 211 249 295.5 331 c 128,-1,1
EndSplineSet
Substitution2: "'tnum' Tabular Numbers in Latin lookup 10 subtable" two.tf
Substitution2: "'sups' Superscript in Latin lookup 6 subtable" uni00B2
AlternateSubs2: "'aalt' Access All Alternates in Latin lookup 0 subtable" uni00B2 two.tf
EndChar
StartChar: three
Encoding: 51 51 232
Width: 611
GlyphClass: 5
Flags: W
LayerCount: 2
Fore
SplineSet
134.5 24.5 m 128,-1,1
 63 61 63 61 31 138 c 1,2,-1
 180 193 l 1,3,4
 192 149 192 149 224.5 129 c 128,-1,5
 257 109 257 109 299 109 c 0,6,7
 343 109 343 109 368 131.5 c 128,-1,8
 393 154 393 154 393 194 c 0,9,10
 393 287 393 287 235 287 c 2,11,-1
 210 287 l 1,12,-1
 210 398 l 1,13,-1
 235 398 l 2,14,15
 309 398 309 398 348 423 c 128,-1,16
 387 448 387 448 387 486 c 0,17,18
 387 521 387 521 358.5 540 c 128,-1,19
 330 559 330 559 288 559 c 0,20,21
 251 559 251 559 222.5 541.5 c 128,-1,22
 194 524 194 524 185 483 c 1,23,-1
 38 537 l 1,24,25
 68 610 68 610 138.5 645 c 128,-1,26
 209 680 209 680 298 680 c 0,27,28
 363 680 363 680 421 660.5 c 128,-1,29
 479 641 479 641 515.5 601 c 128,-1,30
 552 561 552 561 552 502 c 0,31,32
 552 446 552 446 522.5 407.5 c 128,-1,33
 493 369 493 369 444 348 c 1,34,35
 500 328 500 328 530.5 287 c 128,-1,36
 561 246 561 246 561 196 c 0,37,38
 561 129 561 129 524 82 c 128,-1,39
 487 35 487 35 426.5 11.5 c 128,-1,40
 366 -12 366 -12 294 -12 c 0,41,0
 206 -12 206 -12 134.5 24.5 c 128,-1,1
EndSplineSet
Substitution2: "'tnum' Tabular Numbers in Latin lookup 10 subtable" three.tf
Substitution2: "'sups' Superscript in Latin lookup 6 subtable" uni00B3
AlternateSubs2: "'aalt' Access All Alternates in Latin lookup 0 subtable" uni00B3 three.tf
EndChar
StartChar: four
Encoding: 52 52 233
Width: 628
GlyphClass: 5
Flags: W
LayerCount: 2
Fore
SplineSet
344 136 m 1,0,-1
 20 136 l 1,1,-1
 20 253 l 1,2,-1
 344 668 l 1,3,-1
 509 668 l 1,4,-1
 509 281 l 1,5,-1
 595 281 l 1,6,-1
 595 136 l 1,7,-1
 509 136 l 1,8,-1
 509 0 l 1,9,-1
 344 0 l 1,10,-1
 344 136 l 1,0,-1
344 281 m 1,11,-1
 344 453 l 1,12,-1
 199 281 l 1,13,-1
 344 281 l 1,11,-1
EndSplineSet
Substitution2: "'tnum' Tabular Numbers in Latin lookup 10 subtable" four.tf
AlternateSubs2: "'aalt' Access All Alternates in Latin lookup 0 subtable" four.tf
EndChar
StartChar: five
Encoding: 53 53 234
Width: 617
GlyphClass: 1
Flags: W
LayerCount: 2
Fore
SplineSet
141 26 m 128,-1,1
 72 64 72 64 39 137 c 1,2,-1
 180 189 l 1,3,4
 193 146 193 146 222.5 127.5 c 128,-1,5
 252 109 252 109 288 109 c 0,6,7
 340 109 340 109 371.5 138 c 128,-1,8
 403 167 403 167 403 221 c 0,9,10
 403 276 403 276 371 305 c 128,-1,11
 339 334 339 334 291 334 c 0,12,13
 220 334 220 334 185 271 c 1,14,-1
 40 326 l 1,15,-1
 82 668 l 1,16,-1
 541 668 l 1,17,-1
 541 536 l 1,18,-1
 219 536 l 1,19,-1
 205 423 l 1,20,21
 228 437 228 437 265 446 c 128,-1,22
 302 455 302 455 336 455 c 0,23,24
 398 455 398 455 452.5 428.5 c 128,-1,25
 507 402 507 402 540 349 c 128,-1,26
 573 296 573 296 573 221 c 0,27,28
 573 147 573 147 535.5 94.5 c 128,-1,29
 498 42 498 42 435.5 15 c 128,-1,30
 373 -12 373 -12 297 -12 c 0,31,0
 210 -12 210 -12 141 26 c 128,-1,1
EndSplineSet
Substitution2: "'tnum' Tabular Numbers in Latin lookup 10 subtable" five.tf
AlternateSubs2: "'aalt' Access All Alternates in Latin lookup 0 subtable" five.tf
EndChar
StartChar: six
Encoding: 54 54 235
Width: 638
GlyphClass: 1
Flags: W
LayerCount: 2
Fore
SplineSet
172.5 31.5 m 128,-1,1
 111 75 111 75 80 148.5 c 128,-1,2
 49 222 49 222 49 311 c 0,3,4
 49 476 49 476 121.5 578 c 128,-1,5
 194 680 194 680 342 680 c 0,6,7
 425 680 425 680 476.5 652 c 128,-1,8
 528 624 528 624 558 571 c 1,9,-1
 412 518 l 1,10,11
 402 538 402 538 381 549.5 c 128,-1,12
 360 561 360 561 333 561 c 0,13,14
 283 561 283 561 251.5 521.5 c 128,-1,15
 220 482 220 482 219 407 c 1,16,17
 245 428 245 428 282.5 440.5 c 128,-1,18
 320 453 320 453 364 453 c 0,19,20
 425 453 425 453 476.5 424.5 c 128,-1,21
 528 396 528 396 558.5 345 c 128,-1,22
 589 294 589 294 589 230 c 0,23,24
 589 159 589 159 554.5 104 c 128,-1,25
 520 49 520 49 460 18.5 c 128,-1,26
 400 -12 400 -12 324 -12 c 0,27,0
 234 -12 234 -12 172.5 31.5 c 128,-1,1
395 138.5 m 128,-1,29
 421 169 421 169 421 221 c 0,30,31
 421 271 421 271 394.5 301.5 c 128,-1,32
 368 332 368 332 322 332 c 0,33,34
 277 332 277 332 249.5 302 c 128,-1,35
 222 272 222 272 222 221 c 0,36,37
 222 169 222 169 249.5 138.5 c 128,-1,38
 277 108 277 108 323 108 c 256,39,28
 369 108 369 108 395 138.5 c 128,-1,29
EndSplineSet
Substitution2: "'tnum' Tabular Numbers in Latin lookup 10 subtable" six.tf
AlternateSubs2: "'aalt' Access All Alternates in Latin lookup 0 subtable" six.tf
EndChar
StartChar: eight
Encoding: 56 56 237
Width: 627
GlyphClass: 1
Flags: W
LayerCount: 2
Fore
SplineSet
169.5 14 m 128,-1,1
 106 40 106 40 70 90 c 128,-1,2
 34 140 34 140 34 210 c 0,3,4
 34 267 34 267 64 310.5 c 128,-1,5
 94 354 94 354 148 380 c 1,6,7
 119 426 119 426 119 485 c 0,8,9
 119 538 119 538 143.5 583 c 128,-1,10
 168 628 168 628 212.5 654 c 128,-1,11
 257 680 257 680 314 680 c 256,12,13
 371 680 371 680 415 654 c 128,-1,14
 459 628 459 628 483.5 583.5 c 128,-1,15
 508 539 508 539 508 485 c 0,16,17
 508 427 508 427 480 380 c 1,18,19
 533 354 533 354 563 310 c 128,-1,20
 593 266 593 266 593 209 c 0,21,22
 593 139 593 139 557 89.5 c 128,-1,23
 521 40 521 40 457.5 14 c 128,-1,24
 394 -12 394 -12 314 -12 c 0,25,0
 233 -12 233 -12 169.5 14 c 128,-1,1
393 148 m 128,-1,27
 424 172 424 172 424 209 c 0,28,29
 424 247 424 247 393.5 268 c 128,-1,30
 363 289 363 289 314 289 c 0,31,32
 264 289 264 289 233.5 268 c 128,-1,33
 203 247 203 247 203 209 c 256,34,35
 203 171 203 171 234 147.5 c 128,-1,36
 265 124 265 124 314 124 c 0,37,26
 362 124 362 124 393 148 c 128,-1,27
357 439 m 128,-1,39
 374 457 374 457 374 484 c 0,40,41
 374 510 374 510 356.5 528 c 128,-1,42
 339 546 339 546 314 546 c 0,43,44
 288 546 288 546 270 528 c 128,-1,45
 252 510 252 510 252 484 c 0,46,47
 252 457 252 457 270 439 c 128,-1,48
 288 421 288 421 314 421 c 256,49,38
 340 421 340 421 357 439 c 128,-1,39
EndSplineSet
Substitution2: "'tnum' Tabular Numbers in Latin lookup 10 subtable" eight.tf
AlternateSubs2: "'aalt' Access All Alternates in Latin lookup 0 subtable" eight.tf
EndChar
StartChar: nine
Encoding: 57 57 238
Width: 560
GlyphClass: 1
Flags: W
LayerCount: 2
Fore
SplineSet
148 227 m 128,-1,1
 94 260 94 260 63 315.5 c 128,-1,2
 32 371 32 371 32 436 c 0,3,4
 32 502 32 502 64.5 558 c 128,-1,5
 97 614 97 614 152.5 646.5 c 128,-1,6
 208 679 208 679 273 679 c 0,7,8
 339 679 339 679 396 646 c 128,-1,9
 453 613 453 613 486.5 556.5 c 128,-1,10
 520 500 520 500 520 434 c 0,11,12
 520 401 520 401 511 367 c 128,-1,13
 502 333 502 333 476 282 c 2,14,-1
 334 0 l 1,15,-1
 167 0 l 1,16,-1
 267 191 l 1,17,0
 202 194 202 194 148 227 c 128,-1,1
347.5 363.5 m 128,-1,19
 377 393 377 393 377 434 c 0,20,21
 377 455 377 455 365.5 478.5 c 128,-1,22
 354 502 354 502 331 518.5 c 128,-1,23
 308 535 308 535 276 535 c 0,24,25
 231 535 231 535 203.5 504.5 c 128,-1,26
 176 474 176 474 176 435 c 0,27,28
 176 390 176 390 207 362 c 128,-1,29
 238 334 238 334 277 334 c 0,30,18
 318 334 318 334 347.5 363.5 c 128,-1,19
EndSplineSet
Substitution2: "'tnum' Tabular Numbers in Latin lookup 10 subtable" nine.tf
AlternateSubs2: "'aalt' Access All Alternates in Latin lookup 0 subtable" nine.tf
EndChar
StartChar: less
Encoding: 60 60 327
Width: 577
GlyphClass: 1
Flags: W
LayerCount: 2
Fore
SplineSet
40 198 m 1,0,-1
 40 302 l 1,1,-1
 537 513 l 1,2,-1
 537 361 l 1,3,-1
 221 250 l 1,4,-1
 537 137 l 1,5,-1
 537 -14 l 1,6,-1
 40 198 l 1,0,-1
EndSplineSet
EndChar
StartChar: equal
Encoding: 61 61 324
Width: 611
GlyphClass: 1
Flags: W
LayerCount: 2
Fore
SplineSet
48 415 m 1,0,-1
 563 415 l 1,1,-1
 563 278 l 1,2,-1
 48 278 l 1,3,-1
 48 415 l 1,0,-1
48 230 m 1,4,-1
 563 230 l 1,5,-1
 563 91 l 1,6,-1
 48 91 l 1,7,-1
 48 230 l 1,4,-1
EndSplineSet
EndChar
StartChar: greater
Encoding: 62 62 326
Width: 577
GlyphClass: 1
Flags: W
LayerCount: 2
Fore
SplineSet
40 137 m 1,0,-1
 357 250 l 1,1,-1
 40 361 l 1,2,-1
 40 513 l 1,3,-1
 537 302 l 1,4,-1
 537 198 l 1,5,-1
 40 -14 l 1,6,-1
 40 137 l 1,0,-1
EndSplineSet
EndChar
StartChar: question
Encoding: 63 63 265
Width: 577
GlyphClass: 1
Flags: W
LayerCount: 2
Fore
SplineSet
191.5 365.5 m 128,-1,1
 220 408 220 408 289 431 c 0,2,3
 341 449 341 449 362.5 464.5 c 128,-1,4
 384 480 384 480 384 500 c 0,5,6
 384 521 384 521 358.5 535.5 c 128,-1,7
 333 550 333 550 291 550 c 0,8,9
 248 550 248 550 213 532 c 128,-1,10
 178 514 178 514 162 480 c 1,11,-1
 15 535 l 1,12,13
 45 604 45 604 118 642 c 128,-1,14
 191 680 191 680 293 680 c 0,15,16
 363 680 363 680 423 659.5 c 128,-1,17
 483 639 483 639 519 599 c 128,-1,18
 555 559 555 559 555 503 c 0,19,20
 555 451 555 451 526.5 415 c 128,-1,21
 498 379 498 379 422 344 c 0,22,23
 366 318 366 318 347.5 299.5 c 128,-1,24
 329 281 329 281 329 256 c 2,25,-1
 329 241 l 1,26,-1
 163 241 l 1,27,-1
 163 255 l 2,28,0
 163 323 163 323 191.5 365.5 c 128,-1,1
173.5 18.5 m 128,-1,30
 143 49 143 49 143 92 c 256,31,32
 143 135 143 135 173 165 c 128,-1,33
 203 195 203 195 247 195 c 0,34,35
 289 195 289 195 319.5 165 c 128,-1,36
 350 135 350 135 350 92 c 256,37,38
 350 49 350 49 319.5 18.5 c 128,-1,39
 289 -12 289 -12 247 -12 c 0,40,29
 204 -12 204 -12 173.5 18.5 c 128,-1,30
EndSplineSet
EndChar
StartChar: at
Encoding: 64 64 297
Width: 784
GlyphClass: 1
Flags: W
LayerCount: 2
Fore
SplineSet
209 -55.5 m 128,-1,1
 124 -8 124 -8 76 73 c 128,-1,2
 28 154 28 154 28 251 c 0,3,4
 28 350 28 350 77.5 432.5 c 128,-1,5
 127 515 127 515 212.5 563 c 128,-1,6
 298 611 298 611 401 611 c 0,7,8
 499 611 499 611 580.5 567.5 c 128,-1,9
 662 524 662 524 709 449.5 c 128,-1,10
 756 375 756 375 756 285 c 0,11,12
 756 215 756 215 731.5 166.5 c 128,-1,13
 707 118 707 118 668.5 95 c 128,-1,14
 630 72 630 72 588 72 c 0,15,16
 550 72 550 72 517 90.5 c 128,-1,17
 484 109 484 109 472 140 c 1,18,19
 455 107 455 107 422 91 c 128,-1,20
 389 75 389 75 354 75 c 0,21,22
 317 75 317 75 282.5 94.5 c 128,-1,23
 248 114 248 114 226 151 c 128,-1,24
 204 188 204 188 204 239 c 0,25,26
 204 341 204 341 264 389.5 c 128,-1,27
 324 438 324 438 412 438 c 0,28,29
 471 438 471 438 533 418 c 1,30,-1
 533 231 l 2,31,32
 533 190 533 190 550.5 172.5 c 128,-1,33
 568 155 568 155 595 155 c 0,34,35
 630 155 630 155 651 188.5 c 128,-1,36
 672 222 672 222 672 290 c 0,37,38
 672 360 672 360 634.5 416 c 128,-1,39
 597 472 597 472 534 504 c 128,-1,40
 471 536 471 536 398 536 c 0,41,42
 317 536 317 536 252.5 497 c 128,-1,43
 188 458 188 458 151.5 393 c 128,-1,44
 115 328 115 328 115 253 c 0,45,46
 115 176 115 176 153 112 c 128,-1,47
 191 48 191 48 256.5 10 c 128,-1,48
 322 -28 322 -28 402 -28 c 0,49,50
 471 -28 471 -28 534 8 c 1,51,-1
 534 -75 l 1,52,53
 472 -103 472 -103 398 -103 c 0,54,0
 294 -103 294 -103 209 -55.5 c 128,-1,1
415.5 192.5 m 128,-1,56
 436 215 436 215 436 253 c 2,57,-1
 436 344 l 1,58,59
 416 348 416 348 399 348 c 0,60,61
 315 348 315 348 315 248 c 0,62,63
 315 211 315 211 332 190.5 c 128,-1,64
 349 170 349 170 371 170 c 0,65,55
 395 170 395 170 415.5 192.5 c 128,-1,56
EndSplineSet
EndChar
StartChar: B
Encoding: 66 66 13
Width: 659
GlyphClass: 2
Flags: W
AnchorPoint: "Anchor-1" 343 668 basechar 0
AnchorPoint: "Anchor-0" 343 0 basechar 0
LayerCount: 2
Fore
SplineSet
54 668 m 1,0,-1
 352 668 l 2,1,2
 613 668 613 668 613 495 c 0,3,4
 613 400 613 400 519 355 c 1,5,6
 575 337 575 337 607.5 297 c 128,-1,7
 640 257 640 257 640 198 c 0,8,9
 640 98 640 98 568 49 c 128,-1,10
 496 0 496 0 362 0 c 2,11,-1
 54 0 l 1,12,-1
 54 668 l 1,0,-1
438.5 158.5 m 128,-1,14
 462 176 462 176 462 210 c 0,15,16
 462 243 462 243 438.5 260 c 128,-1,17
 415 277 415 277 370 277 c 2,18,-1
 224 277 l 1,19,-1
 224 141 l 1,20,-1
 370 141 l 2,21,13
 415 141 415 141 438.5 158.5 c 128,-1,14
416 424.5 m 128,-1,23
 437 441 437 441 437 470 c 256,24,25
 437 499 437 499 417 514.5 c 128,-1,26
 397 530 397 530 360 530 c 2,27,-1
 224 530 l 1,28,-1
 224 408 l 1,29,-1
 358 408 l 2,30,22
 395 408 395 408 416 424.5 c 128,-1,23
EndSplineSet
EndChar
StartChar: C
Encoding: 67 67 14
Width: 665
GlyphClass: 2
Flags: W
AnchorPoint: "Anchor-1" 370 668 basechar 0
AnchorPoint: "Anchor-0" 368 0 basechar 0
LayerCount: 2
Fore
SplineSet
186.5 29.5 m 128,-1,1
 110 71 110 71 69 149 c 128,-1,2
 28 227 28 227 28 334 c 0,3,4
 28 439 28 439 70 517 c 128,-1,5
 112 595 112 595 189.5 637.5 c 128,-1,6
 267 680 267 680 371 680 c 0,7,8
 465 680 465 680 537 638.5 c 128,-1,9
 609 597 609 597 649 524 c 1,10,-1
 498 469 l 1,11,12
 477 506 477 506 441.5 523 c 128,-1,13
 406 540 406 540 366 540 c 0,14,15
 322 540 322 540 286 515 c 128,-1,16
 250 490 250 490 229.5 443.5 c 128,-1,17
 209 397 209 397 209 334 c 0,18,19
 209 236 209 236 253.5 182 c 128,-1,20
 298 128 298 128 368 128 c 0,21,22
 409 128 409 128 446 143.5 c 128,-1,23
 483 159 483 159 504 198 c 1,24,-1
 653 143 l 1,25,26
 611 71 611 71 537 29.5 c 128,-1,27
 463 -12 463 -12 368 -12 c 0,28,0
 263 -12 263 -12 186.5 29.5 c 128,-1,1
EndSplineSet
EndChar
StartChar: D
Encoding: 68 68 19
Width: 700
GlyphClass: 2
Flags: W
AnchorPoint: "Anchor-1" 338 668 basechar 0
AnchorPoint: "Anchor-0" 358 0 basechar 0
LayerCount: 2
Fore
SplineSet
54 668 m 1,0,-1
 281 668 l 2,1,2
 465 668 465 668 568.5 588.5 c 128,-1,3
 672 509 672 509 672 334 c 0,4,5
 672 0 672 0 281 0 c 2,6,-1
 54 0 l 1,7,-1
 54 668 l 1,0,-1
442 183.5 m 128,-1,9
 497 224 497 224 497 334 c 256,10,11
 497 444 497 444 442 485.5 c 128,-1,12
 387 527 387 527 285 527 c 2,13,-1
 224 527 l 1,14,-1
 224 143 l 1,15,-1
 285 143 l 2,16,8
 387 143 387 143 442 183.5 c 128,-1,9
EndSplineSet
EndChar
StartChar: E
Encoding: 69 69 23
Width: 613
GlyphClass: 2
Flags: W
AnchorPoint: "Anchor-2" 579 10 basechar 0
AnchorPoint: "Anchor-1" 319 668 basechar 0
AnchorPoint: "Anchor-0" 307 0 basechar 0
LayerCount: 2
Fore
SplineSet
54 668 m 1,0,-1
 575 668 l 1,1,-1
 575 518 l 1,2,-1
 224 518 l 1,3,-1
 224 418 l 1,4,-1
 432 418 l 1,5,-1
 432 269 l 1,6,-1
 224 269 l 1,7,-1
 224 150 l 1,8,-1
 579 150 l 1,9,-1
 579 0 l 1,10,-1
 54 0 l 1,11,-1
 54 668 l 1,0,-1
EndSplineSet
EndChar
StartChar: F
Encoding: 70 70 32
Width: 574
GlyphClass: 2
Flags: W
AnchorPoint: "Anchor-1" 287 668 basechar 0
AnchorPoint: "Anchor-0" 287 0 basechar 0
LayerCount: 2
Fore
SplineSet
54 668 m 1,0,-1
 540 668 l 1,1,-1
 540 518 l 1,2,-1
 224 518 l 1,3,-1
 224 383 l 1,4,-1
 536 383 l 1,5,-1
 536 233 l 1,6,-1
 224 233 l 1,7,-1
 224 0 l 1,8,-1
 54 0 l 1,9,-1
 54 668 l 1,0,-1
EndSplineSet
EndChar
StartChar: G
Encoding: 71 71 33
Width: 731
GlyphClass: 2
Flags: W
AnchorPoint: "Anchor-1" 357 668 basechar 0
AnchorPoint: "Anchor-0" 357 0 basechar 0
LayerCount: 2
Fore
SplineSet
178 30 m 128,-1,1
 106 72 106 72 67 150.5 c 128,-1,2
 28 229 28 229 28 336 c 0,3,4
 28 440 28 440 72 518 c 128,-1,5
 116 596 116 596 194.5 638 c 128,-1,6
 273 680 273 680 376 680 c 0,7,8
 469 680 469 680 543.5 643.5 c 128,-1,9
 618 607 618 607 653 537 c 1,10,-1
 499 481 l 1,11,12
 484 507 484 507 452.5 523.5 c 128,-1,13
 421 540 421 540 374 540 c 0,14,15
 301 540 301 540 255 487 c 128,-1,16
 209 434 209 434 209 336 c 0,17,18
 209 237 209 237 254 182.5 c 128,-1,19
 299 128 299 128 376 128 c 0,20,21
 435 128 435 128 475.5 152.5 c 128,-1,22
 516 177 516 177 516 229 c 2,23,-1
 516 247 l 1,24,-1
 374 247 l 1,25,-1
 374 384 l 1,26,-1
 687 384 l 1,27,-1
 687 0 l 1,28,-1
 574 0 l 1,29,-1
 552 72 l 1,30,31
 519 30 519 30 469.5 9 c 128,-1,32
 420 -12 420 -12 348 -12 c 0,33,0
 250 -12 250 -12 178 30 c 128,-1,1
EndSplineSet
EndChar
StartChar: H
Encoding: 72 72 37
Width: 709
GlyphClass: 2
Flags: W
AnchorPoint: "Anchor-1" 355 668 basechar 0
AnchorPoint: "Anchor-0" 355 0 basechar 0
LayerCount: 2
Fore
SplineSet
54 668 m 1,0,-1
 224 668 l 1,1,-1
 224 418 l 1,2,-1
 485 418 l 1,3,-1
 485 668 l 1,4,-1
 655 668 l 1,5,-1
 655 0 l 1,6,-1
 485 0 l 1,7,-1
 485 268 l 1,8,-1
 224 268 l 1,9,-1
 224 0 l 1,10,-1
 54 0 l 1,11,-1
 54 668 l 1,0,-1
EndSplineSet
EndChar
StartChar: I
Encoding: 73 73 39
Width: 434
GlyphClass: 2
Flags: W
AnchorPoint: "Anchor-2" 394 10 basechar 0
AnchorPoint: "Anchor-1" 217 668 basechar 0
AnchorPoint: "Anchor-0" 217 0 basechar 0
LayerCount: 2
Fore
SplineSet
40 124 m 1,0,-1
 132 124 l 1,1,-1
 132 544 l 1,2,-1
 40 544 l 1,3,-1
 40 668 l 1,4,-1
 394 668 l 1,5,-1
 394 544 l 1,6,-1
 302 544 l 1,7,-1
 302 124 l 1,8,-1
 394 124 l 1,9,-1
 394 0 l 1,10,-1
 40 0 l 1,11,-1
 40 124 l 1,0,-1
EndSplineSet
EndChar
StartChar: J
Encoding: 74 74 48
Width: 585
GlyphClass: 2
Flags: W
AnchorPoint: "Anchor-1" 446 668 basechar 0
AnchorPoint: "Anchor-0" 285 0 basechar 0
LayerCount: 2
Fore
SplineSet
93 37 m 128,-1,1
 28 86 28 86 3 172 c 1,2,-1
 159 231 l 1,3,4
 172 184 172 184 196 153 c 128,-1,5
 220 122 220 122 262 122 c 0,6,7
 313 122 313 122 337 154.5 c 128,-1,8
 361 187 361 187 361 264 c 2,9,-1
 361 668 l 1,10,-1
 531 668 l 1,11,-1
 531 264 l 2,12,13
 531 134 531 134 462 61 c 128,-1,14
 393 -12 393 -12 261 -12 c 0,15,0
 158 -12 158 -12 93 37 c 128,-1,1
EndSplineSet
Substitution2: "Single Substitution lookup 14 subtable" uni004A0301
AlternateSubs2: "'aalt' Access All Alternates in Latin lookup 0 subtable" uni004A0301
EndChar
StartChar: K
Encoding: 75 75 50
Width: 681
GlyphClass: 2
Flags: W
AnchorPoint: "Anchor-1" 349 668 basechar 0
AnchorPoint: "Anchor-0" 349 0 basechar 0
LayerCount: 2
Fore
SplineSet
54 668 m 1,0,-1
 224 668 l 1,1,-1
 224 416 l 1,2,-1
 454 668 l 1,3,-1
 661 668 l 1,4,-1
 395 380 l 1,5,-1
 671 0 l 1,6,-1
 475 0 l 1,7,-1
 286 263 l 1,8,-1
 224 195 l 1,9,-1
 224 0 l 1,10,-1
 54 0 l 1,11,-1
 54 668 l 1,0,-1
EndSplineSet
EndChar
StartChar: L
Encoding: 76 76 52
Width: 558
GlyphClass: 2
Flags: W
AnchorPoint: "Anchor-3" 268 459 basechar 0
AnchorPoint: "Anchor-1" 285 668 basechar 0
AnchorPoint: "Anchor-0" 285 0 basechar 0
LayerCount: 2
Fore
SplineSet
54 668 m 1,0,-1
 224 668 l 1,1,-1
 224 150 l 1,2,-1
 537 150 l 1,3,-1
 537 0 l 1,4,-1
 54 0 l 1,5,-1
 54 668 l 1,0,-1
EndSplineSet
EndChar
StartChar: M
Encoding: 77 77 56
Width: 878
GlyphClass: 2
Flags: W
AnchorPoint: "Anchor-1" 439 668 basechar 0
AnchorPoint: "Anchor-0" 439 0 basechar 0
LayerCount: 2
Fore
SplineSet
54 668 m 1,0,-1
 306 668 l 1,1,-1
 438 202 l 1,2,-1
 572 668 l 1,3,-1
 824 668 l 1,4,-1
 824 0 l 1,5,-1
 659 0 l 1,6,-1
 659 517 l 1,7,-1
 506 0 l 1,8,-1
 369 0 l 1,9,-1
 218 517 l 1,10,-1
 218 0 l 1,11,-1
 54 0 l 1,12,-1
 54 668 l 1,0,-1
EndSplineSet
EndChar
StartChar: N
Encoding: 78 78 57
Width: 733
GlyphClass: 2
Flags: W
AnchorPoint: "Anchor-1" 367 668 basechar 0
AnchorPoint: "Anchor-0" 367 0 basechar 0
LayerCount: 2
Fore
SplineSet
54 668 m 1,0,-1
 266 668 l 1,1,-1
 516 209 l 1,2,-1
 516 668 l 1,3,-1
 679 668 l 1,4,-1
 679 0 l 1,5,-1
 466 0 l 1,6,-1
 217 458 l 1,7,-1
 217 0 l 1,8,-1
 54 0 l 1,9,-1
 54 668 l 1,0,-1
EndSplineSet
EndChar
StartChar: O
Encoding: 79 79 62
Width: 756
GlyphClass: 2
Flags: W
AnchorPoint: "Anchor-3" 740 668 basechar 0
AnchorPoint: "Anchor-2" 683 10 basechar 0
AnchorPoint: "Anchor-1" 378 668 basechar 0
AnchorPoint: "Anchor-0" 378 0 basechar 0
LayerCount: 2
Fore
SplineSet
196.5 31 m 128,-1,1
 117 74 117 74 72.5 152.5 c 128,-1,2
 28 231 28 231 28 334 c 256,3,4
 28 437 28 437 72.5 515.5 c 128,-1,5
 117 594 117 594 196.5 637 c 128,-1,6
 276 680 276 680 378 680 c 256,7,8
 480 680 480 680 559.5 637 c 128,-1,9
 639 594 639 594 683.5 515.5 c 128,-1,10
 728 437 728 437 728 334 c 256,11,12
 728 231 728 231 683.5 152.5 c 128,-1,13
 639 74 639 74 559.5 31 c 128,-1,14
 480 -12 480 -12 378 -12 c 256,15,0
 276 -12 276 -12 196.5 31 c 128,-1,1
463 151.5 m 128,-1,17
 501 175 501 175 523.5 221.5 c 128,-1,18
 546 268 546 268 546 334 c 256,19,20
 546 400 546 400 523.5 446.5 c 128,-1,21
 501 493 501 493 463 516.5 c 128,-1,22
 425 540 425 540 378 540 c 256,23,24
 331 540 331 540 293 516.5 c 128,-1,25
 255 493 255 493 232.5 446.5 c 128,-1,26
 210 400 210 400 210 334 c 256,27,28
 210 268 210 268 232.5 221.5 c 128,-1,29
 255 175 255 175 293 151.5 c 128,-1,30
 331 128 331 128 378 128 c 256,31,16
 425 128 425 128 463 151.5 c 128,-1,17
EndSplineSet
Substitution2: "Single Substitution lookup 15 subtable" ordmasculine
AlternateSubs2: "'aalt' Access All Alternates in Latin lookup 0 subtable" ordmasculine
EndChar
StartChar: P
Encoding: 80 80 71
Width: 647
GlyphClass: 2
Flags: W
AnchorPoint: "Anchor-1" 336 668 basechar 0
AnchorPoint: "Anchor-0" 336 0 basechar 0
LayerCount: 2
Fore
SplineSet
54 668 m 1,0,-1
 361 668 l 2,1,2
 478 668 478 668 553.5 612.5 c 128,-1,3
 629 557 629 557 629 446 c 256,4,5
 629 335 629 335 553.5 279 c 128,-1,6
 478 223 478 223 361 223 c 2,7,-1
 224 223 l 1,8,-1
 224 0 l 1,9,-1
 54 0 l 1,10,-1
 54 668 l 1,0,-1
424.5 386.5 m 128,-1,12
 450 406 450 406 450 446 c 0,13,14
 450 485 450 485 424.5 504.5 c 128,-1,15
 399 524 399 524 358 524 c 2,16,-1
 224 524 l 1,17,-1
 224 367 l 1,18,-1
 358 367 l 2,19,11
 399 367 399 367 424.5 386.5 c 128,-1,12
EndSplineSet
EndChar
StartChar: Q
Encoding: 81 81 73
Width: 766
GlyphClass: 1
Flags: W
LayerCount: 2
Fore
SplineSet
196.5 31 m 128,-1,1
 117 74 117 74 72.5 152.5 c 128,-1,2
 28 231 28 231 28 334 c 256,3,4
 28 437 28 437 72.5 515.5 c 128,-1,5
 117 594 117 594 196.5 637 c 128,-1,6
 276 680 276 680 378 680 c 256,7,8
 480 680 480 680 559.5 637 c 128,-1,9
 639 594 639 594 683.5 515.5 c 128,-1,10
 728 437 728 437 728 334 c 0,11,12
 728 220 728 220 673 135 c 1,13,-1
 778 36 l 1,14,-1
 691 -57 l 1,15,-1
 583 45 l 1,16,17
 497 -12 497 -12 378 -12 c 0,18,0
 276 -12 276 -12 196.5 31 c 128,-1,1
467 154 m 1,20,-1
 331 283 l 1,21,-1
 418 374 l 1,22,-1
 538 262 l 1,23,24
 546 296 546 296 546 334 c 0,25,26
 546 400 546 400 523.5 446.5 c 128,-1,27
 501 493 501 493 463 516.5 c 128,-1,28
 425 540 425 540 378 540 c 256,29,30
 331 540 331 540 293 516.5 c 128,-1,31
 255 493 255 493 232.5 446.5 c 128,-1,32
 210 400 210 400 210 334 c 256,33,34
 210 268 210 268 232.5 221.5 c 128,-1,35
 255 175 255 175 293 151.5 c 128,-1,36
 331 128 331 128 378 128 c 0,37,19
 427 128 427 128 467 154 c 1,20,-1
EndSplineSet
EndChar
StartChar: R
Encoding: 82 82 74
Width: 668
GlyphClass: 2
Flags: W
AnchorPoint: "Anchor-1" 325 668 basechar 0
AnchorPoint: "Anchor-0" 347 0 basechar 0
LayerCount: 2
Fore
SplineSet
54 668 m 1,0,-1
 370 668 l 2,1,2
 482 668 482 668 554.5 615.5 c 128,-1,3
 627 563 627 563 627 457 c 0,4,5
 627 378 627 378 586 329 c 128,-1,6
 545 280 545 280 474 260 c 1,7,-1
 661 0 l 1,8,-1
 463 0 l 1,9,-1
 292 245 l 1,10,-1
 224 245 l 1,11,-1
 224 0 l 1,12,-1
 54 0 l 1,13,-1
 54 668 l 1,0,-1
424.5 405.5 m 128,-1,15
 448 422 448 422 448 457 c 0,16,17
 448 491 448 491 424.5 507.5 c 128,-1,18
 401 524 401 524 360 524 c 2,19,-1
 224 524 l 1,20,-1
 224 389 l 1,21,-1
 360 389 l 2,22,14
 401 389 401 389 424.5 405.5 c 128,-1,15
EndSplineSet
EndChar
StartChar: S
Encoding: 83 83 77
Width: 618
GlyphClass: 2
Flags: W
AnchorPoint: "Anchor-1" 309 668 basechar 0
AnchorPoint: "Anchor-0" 309 0 basechar 0
LayerCount: 2
Fore
SplineSet
126 32.5 m 128,-1,1
 51 77 51 77 19 159 c 1,2,-1
 174 215 l 1,3,4
 185 173 185 173 223.5 148.5 c 128,-1,5
 262 124 262 124 318 124 c 0,6,7
 366 124 366 124 397 139.5 c 128,-1,8
 428 155 428 155 428 191 c 0,9,10
 428 221 428 221 402.5 237 c 128,-1,11
 377 253 377 253 318 264 c 2,12,-1
 239 279 l 2,13,14
 143 297 143 297 89 344.5 c 128,-1,15
 35 392 35 392 35 469 c 0,16,17
 35 539 35 539 77 586.5 c 128,-1,18
 119 634 119 634 185 657 c 128,-1,19
 251 680 251 680 322 680 c 0,20,21
 411 680 411 680 481.5 643 c 128,-1,22
 552 606 552 606 582 531 c 1,23,-1
 429 475 l 1,24,25
 416 508 416 508 384.5 526 c 128,-1,26
 353 544 353 544 306 544 c 256,27,28
 259 544 259 544 232 528.5 c 128,-1,29
 205 513 205 513 205 485 c 0,30,31
 205 463 205 463 223 447.5 c 128,-1,32
 241 432 241 432 277 425 c 2,33,-1
 366 407 l 2,34,35
 485 383 485 383 541.5 339.5 c 128,-1,36
 598 296 598 296 598 213 c 0,37,38
 598 143 598 143 559 92 c 128,-1,39
 520 41 520 41 455 14.5 c 128,-1,40
 390 -12 390 -12 314 -12 c 0,41,0
 201 -12 201 -12 126 32.5 c 128,-1,1
EndSplineSet
EndChar
StartChar: U
Encoding: 85 85 87
Width: 688
GlyphClass: 2
Flags: W
AnchorPoint: "Anchor-3" 653 668 basechar 0
AnchorPoint: "Anchor-2" 559 10 basechar 0
AnchorPoint: "Anchor-1" 344 668 basechar 0
AnchorPoint: "Anchor-0" 345 0 basechar 0
LayerCount: 2
Fore
SplineSet
121 61.5 m 128,-1,1
 53 135 53 135 53 294 c 2,2,-1
 53 668 l 1,3,-1
 223 668 l 1,4,-1
 223 274 l 2,5,6
 223 191 223 191 251.5 158.5 c 128,-1,7
 280 126 280 126 346 126 c 0,8,9
 390 126 390 126 416 140 c 128,-1,10
 442 154 442 154 453.5 186 c 128,-1,11
 465 218 465 218 465 274 c 2,12,-1
 465 668 l 1,13,-1
 635 668 l 1,14,-1
 635 294 l 2,15,16
 635 136 635 136 567.5 62 c 128,-1,17
 500 -12 500 -12 345 -12 c 0,18,0
 189 -12 189 -12 121 61.5 c 128,-1,1
EndSplineSet
EndChar
StartChar: V
Encoding: 86 86 96
Width: 669
GlyphClass: 2
Flags: W
AnchorPoint: "Anchor-1" 334 668 basechar 0
AnchorPoint: "Anchor-0" 334 0 basechar 0
LayerCount: 2
Fore
SplineSet
10 668 m 1,0,-1
 185 668 l 1,1,-1
 333 190 l 1,2,-1
 482 668 l 1,3,-1
 659 668 l 1,4,-1
 432 0 l 1,5,-1
 235 0 l 1,6,-1
 10 668 l 1,0,-1
EndSplineSet
EndChar
StartChar: W
Encoding: 87 87 97
Width: 901
GlyphClass: 2
Flags: W
AnchorPoint: "Anchor-1" 450 668 basechar 0
AnchorPoint: "Anchor-0" 451 0 basechar 0
LayerCount: 2
Fore
SplineSet
15 668 m 1,0,-1
 183 668 l 1,1,-1
 269 222 l 1,2,-1
 363 668 l 1,3,-1
 537 668 l 1,4,-1
 632 222 l 1,5,-1
 718 668 l 1,6,-1
 886 668 l 1,7,-1
 726 0 l 1,8,-1
 547 0 l 1,9,-1
 450 455 l 1,10,-1
 354 0 l 1,11,-1
 175 0 l 1,12,-1
 15 668 l 1,0,-1
EndSplineSet
EndChar
StartChar: Y
Encoding: 89 89 103
Width: 684
GlyphClass: 2
Flags: W
AnchorPoint: "Anchor-1" 342 668 basechar 0
AnchorPoint: "Anchor-0" 343 0 basechar 0
LayerCount: 2
Fore
SplineSet
257 262 m 1,0,-1
 0 668 l 1,1,-1
 199 668 l 1,2,-1
 341 423 l 1,3,-1
 484 668 l 1,4,-1
 684 668 l 1,5,-1
 427 262 l 1,6,-1
 427 0 l 1,7,-1
 257 0 l 1,8,-1
 257 262 l 1,0,-1
EndSplineSet
EndChar
StartChar: Z
Encoding: 90 90 108
Width: 624
GlyphClass: 2
Flags: W
AnchorPoint: "Anchor-1" 312 668 basechar 0
AnchorPoint: "Anchor-0" 312 0 basechar 0
LayerCount: 2
Fore
SplineSet
30 128 m 1,0,-1
 356 518 l 1,1,-1
 45 518 l 1,2,-1
 45 668 l 1,3,-1
 579 668 l 1,4,-1
 579 540 l 1,5,-1
 256 150 l 1,6,-1
 594 150 l 1,7,-1
 594 0 l 1,8,-1
 30 0 l 1,9,-1
 30 128 l 1,0,-1
EndSplineSet
EndChar
StartChar: bracketleft
Encoding: 91 91 281
Width: 352
GlyphClass: 1
Flags: W
LayerCount: 2
Fore
SplineSet
54 708 m 1,0,-1
 319 708 l 1,1,-1
 319 584 l 1,2,-1
 191 584 l 1,3,-1
 191 -38 l 1,4,-1
 319 -38 l 1,5,-1
 319 -162 l 1,6,-1
 54 -162 l 1,7,-1
 54 708 l 1,0,-1
EndSplineSet
EndChar
StartChar: a
Encoding: 97 97 112
Width: 561
GlyphClass: 2
Flags: W
AnchorPoint: "Anchor-2" 528 10 basechar 0
AnchorPoint: "Anchor-1" 280 496 basechar 0
AnchorPoint: "Anchor-0" 280 0 basechar 0
LayerCount: 2
Fore
SplineSet
69 28 m 128,-1,1
 20 68 20 68 20 134 c 0,2,3
 20 220 20 220 105 262.5 c 128,-1,4
 190 305 190 305 352 314 c 1,5,-1
 352 328 l 2,6,7
 352 366 352 366 331 383 c 128,-1,8
 310 400 310 400 270 400 c 0,9,10
 241 400 241 400 218 385 c 128,-1,11
 195 370 195 370 188 346 c 1,12,-1
 48 394 l 1,13,14
 74 446 74 446 134.5 478.5 c 128,-1,15
 195 511 195 511 279 511 c 0,16,17
 391 511 391 511 451 462 c 128,-1,18
 511 413 511 413 511 312 c 2,19,-1
 511 185 l 2,20,21
 511 132 511 132 515.5 80.5 c 128,-1,22
 520 29 520 29 528 0 c 1,23,-1
 373 0 l 1,24,-1
 356 59 l 1,25,26
 331 20 331 20 290.5 4 c 128,-1,27
 250 -12 250 -12 196 -12 c 0,28,0
 118 -12 118 -12 69 28 c 128,-1,1
327 122.5 m 128,-1,30
 352 146 352 146 352 204 c 2,31,-1
 352 217 l 1,32,33
 266 212 266 212 229.5 194.5 c 128,-1,34
 193 177 193 177 193 148 c 0,35,36
 193 126 193 126 210 112.5 c 128,-1,37
 227 99 227 99 254 99 c 0,38,29
 302 99 302 99 327 122.5 c 128,-1,30
EndSplineSet
Substitution2: "Single Substitution lookup 15 subtable" ordfeminine
AlternateSubs2: "'aalt' Access All Alternates in Latin lookup 0 subtable" ordfeminine
EndChar
StartChar: b
Encoding: 98 98 123
Width: 613
GlyphClass: 2
Flags: W
AnchorPoint: "Anchor-1" 306 496 basechar 0
AnchorPoint: "Anchor-0" 306 0 basechar 0
LayerCount: 2
Fore
SplineSet
281.5 7.5 m 128,-1,1
 239 27 239 27 216 66 c 1,2,-1
 198 0 l 1,3,-1
 51 0 l 1,4,-1
 51 708 l 1,5,-1
 216 708 l 1,6,-1
 216 430 l 1,7,8
 239 469 239 469 282 490 c 128,-1,9
 325 511 325 511 365 511 c 0,10,11
 430 511 430 511 480 480 c 128,-1,12
 530 449 530 449 557.5 391 c 128,-1,13
 585 333 585 333 585 253 c 256,14,15
 585 173 585 173 557.5 113 c 128,-1,16
 530 53 530 53 480 20.5 c 128,-1,17
 430 -12 430 -12 365 -12 c 0,18,0
 324 -12 324 -12 281.5 7.5 c 128,-1,1
385 152.5 m 128,-1,20
 415 190 415 190 415 253 c 0,21,22
 415 315 415 315 385 350 c 128,-1,23
 355 385 355 385 312 385 c 0,24,25
 267 385 267 385 237.5 351.5 c 128,-1,26
 208 318 208 318 208 250 c 0,27,28
 208 179 208 179 237 147 c 128,-1,29
 266 115 266 115 312 115 c 0,30,19
 355 115 355 115 385 152.5 c 128,-1,20
EndSplineSet
EndChar
StartChar: c
Encoding: 99 99 124
Width: 523
GlyphClass: 2
Flags: W
AnchorPoint: "Anchor-1" 297 496 basechar 0
AnchorPoint: "Anchor-0" 286 0 basechar 0
LayerCount: 2
Fore
SplineSet
95 59.5 m 128,-1,1
 28 131 28 131 28 252 c 0,2,3
 28 329 28 329 60 388 c 128,-1,4
 92 447 92 447 150.5 479 c 128,-1,5
 209 511 209 511 284 511 c 0,6,7
 357 511 357 511 419 480.5 c 128,-1,8
 481 450 481 450 515 378 c 1,9,-1
 379 328 l 1,10,11
 359 385 359 385 296 385 c 0,12,13
 253 385 253 385 224 353 c 128,-1,14
 195 321 195 321 195 251 c 0,15,16
 195 178 195 178 224 146 c 128,-1,17
 253 114 253 114 296 114 c 0,18,19
 353 114 353 114 380 158 c 1,20,-1
 512 110 l 1,21,22
 476 45 476 45 414.5 16.5 c 128,-1,23
 353 -12 353 -12 286 -12 c 0,24,0
 162 -12 162 -12 95 59.5 c 128,-1,1
EndSplineSet
EndChar
StartChar: d
Encoding: 100 100 129
Width: 612
GlyphClass: 2
Flags: W
AnchorPoint: "Anchor-3" 577 496 basechar 0
AnchorPoint: "Anchor-1" 307 796 basechar 0
AnchorPoint: "Anchor-0" 307 0 basechar 0
LayerCount: 2
Fore
SplineSet
133 20.5 m 128,-1,1
 83 53 83 53 55.5 113.5 c 128,-1,2
 28 174 28 174 28 253 c 0,3,4
 28 333 28 333 55.5 391 c 128,-1,5
 83 449 83 449 133 480 c 128,-1,6
 183 511 183 511 248 511 c 0,7,8
 289 511 289 511 331.5 490 c 128,-1,9
 374 469 374 469 397 430 c 1,10,-1
 397 708 l 1,11,-1
 562 708 l 1,12,-1
 562 195 l 2,13,14
 562 85 562 85 579 0 c 1,15,-1
 421 0 l 1,16,-1
 402 63 l 1,17,18
 370 24 370 24 329 6 c 128,-1,19
 288 -12 288 -12 248 -12 c 0,20,0
 183 -12 183 -12 133 20.5 c 128,-1,1
376 147 m 128,-1,22
 405 179 405 179 405 250 c 0,23,24
 405 319 405 319 376 352 c 128,-1,25
 347 385 347 385 302 385 c 0,26,27
 258 385 258 385 228 350.5 c 128,-1,28
 198 316 198 316 198 253 c 256,29,30
 198 190 198 190 228 152.5 c 128,-1,31
 258 115 258 115 302 115 c 0,32,21
 347 115 347 115 376 147 c 128,-1,22
EndSplineSet
EndChar
StartChar: e
Encoding: 101 101 133
Width: 576
GlyphClass: 2
Flags: W
AnchorPoint: "Anchor-2" 482 10 basechar 0
AnchorPoint: "Anchor-1" 305 496 basechar 0
AnchorPoint: "Anchor-0" 292 0 basechar 0
LayerCount: 2
Fore
SplineSet
161 19 m 128,-1,1
 98 50 98 50 63 110 c 128,-1,2
 28 170 28 170 28 252 c 0,3,4
 28 329 28 329 64.5 388 c 128,-1,5
 101 447 101 447 162.5 479 c 128,-1,6
 224 511 224 511 298 511 c 0,7,8
 374 511 374 511 433 477 c 128,-1,9
 492 443 492 443 524.5 380.5 c 128,-1,10
 557 318 557 318 557 236 c 0,11,12
 557 216 557 216 556 205 c 1,13,-1
 188 205 l 1,14,15
 199 161 199 161 229 137.5 c 128,-1,16
 259 114 259 114 300 114 c 0,17,18
 333 114 333 114 358 123.5 c 128,-1,19
 383 133 383 133 397 149 c 1,20,-1
 526 101 l 1,21,22
 487 45 487 45 427.5 16.5 c 128,-1,23
 368 -12 368 -12 305 -12 c 0,24,0
 224 -12 224 -12 161 19 c 128,-1,1
374 368 m 128,-1,26
 346 390 346 390 303 390 c 0,27,28
 259 390 259 390 228 368.5 c 128,-1,29
 197 347 197 347 187 301 c 1,30,-1
 406 301 l 1,31,25
 402 346 402 346 374 368 c 128,-1,26
EndSplineSet
EndChar
StartChar: f
Encoding: 102 102 142
Width: 389
GlyphClass: 2
Flags: W
AnchorPoint: "Anchor-1" 195 796 basechar 0
AnchorPoint: "Anchor-0" 195 0 basechar 0
LayerCount: 2
Fore
SplineSet
91 371 m 1,0,-1
 9 371 l 1,1,-1
 9 496 l 1,2,-1
 91 496 l 1,3,-1
 91 564 l 2,4,5
 91 624 91 624 112 657.5 c 128,-1,6
 133 691 133 691 176.5 704.5 c 128,-1,7
 220 718 220 718 293 718 c 2,8,-1
 365 718 l 1,9,-1
 365 589 l 1,10,-1
 325 589 l 2,11,12
 296 589 296 589 281.5 586 c 128,-1,13
 267 583 267 583 261.5 574 c 128,-1,14
 256 565 256 565 256 547 c 2,15,-1
 256 496 l 1,16,-1
 365 496 l 1,17,-1
 365 371 l 1,18,-1
 256 371 l 1,19,-1
 256 0 l 1,20,-1
 91 0 l 1,21,-1
 91 371 l 1,0,-1
EndSplineSet
EndChar
StartChar: g
Encoding: 103 103 143
Width: 610
GlyphClass: 2
Flags: W
AnchorPoint: "Anchor-1" 309 496 basechar 0
AnchorPoint: "Anchor-0" 309 -251 basechar 0
LayerCount: 2
Fore
SplineSet
171.5 -179 m 128,-1,1
 111 -153 111 -153 77 -93 c 1,2,-1
 206 -34 l 1,3,4
 239 -82 239 -82 306 -82 c 0,5,6
 345 -82 345 -82 372 -61 c 128,-1,7
 399 -40 399 -40 399 9 c 2,8,-1
 399 96 l 1,9,10
 367 58 367 58 325 39 c 128,-1,11
 283 20 283 20 242 20 c 0,12,13
 187 20 187 20 138 49.5 c 128,-1,14
 89 79 89 79 58.5 133.5 c 128,-1,15
 28 188 28 188 28 260 c 0,16,17
 28 343 28 343 58 400 c 128,-1,18
 88 457 88 457 135.5 484.5 c 128,-1,19
 183 512 183 512 236 512 c 0,20,21
 283 512 283 512 327 490.5 c 128,-1,22
 371 469 371 469 399 430 c 1,23,-1
 419 496 l 1,24,-1
 563 496 l 1,25,-1
 563 42 l 2,26,27
 563 -86 563 -86 494.5 -145.5 c 128,-1,28
 426 -205 426 -205 303 -205 c 0,29,0
 232 -205 232 -205 171.5 -179 c 128,-1,1
406 264 m 0,31,32
 406 328 406 328 377.5 356.5 c 128,-1,33
 349 385 349 385 302 385 c 0,34,35
 257 385 257 385 227.5 356 c 128,-1,36
 198 327 198 327 198 269 c 0,37,38
 198 210 198 210 228 178.5 c 128,-1,39
 258 147 258 147 302 147 c 0,40,30
 406 147 406 147 406 264 c 0,31,32
EndSplineSet
EndChar
StartChar: h
Encoding: 104 104 147
Width: 585
GlyphClass: 2
Flags: W
AnchorPoint: "Anchor-1" 294 796 basechar 0
AnchorPoint: "Anchor-0" 294 0 basechar 0
LayerCount: 2
Fore
SplineSet
51 708 m 1,0,-1
 216 708 l 1,1,-1
 216 432 l 1,2,3
 234 462 234 462 275.5 486.5 c 128,-1,4
 317 511 317 511 369 511 c 0,5,6
 458 511 458 511 498 462.5 c 128,-1,7
 538 414 538 414 538 318 c 2,8,-1
 538 0 l 1,9,-1
 373 0 l 1,10,-1
 373 283 l 2,11,12
 373 336 373 336 356 360.5 c 128,-1,13
 339 385 339 385 302 385 c 0,14,15
 257 385 257 385 236.5 352 c 128,-1,16
 216 319 216 319 216 252 c 2,17,-1
 216 0 l 1,18,-1
 51 0 l 1,19,-1
 51 708 l 1,0,-1
EndSplineSet
EndChar
StartChar: k
Encoding: 107 107 161
Width: 587
GlyphClass: 2
Flags: W
AnchorPoint: "Anchor-1" 296 796 basechar 0
AnchorPoint: "Anchor-0" 296 0 basechar 0
LayerCount: 2
Fore
SplineSet
51 708 m 1,0,-1
 216 708 l 1,1,-1
 216 315 l 1,2,-1
 376 496 l 1,3,-1
 571 496 l 1,4,-1
 376 287 l 1,5,-1
 584 0 l 1,6,-1
 389 0 l 1,7,-1
 267 171 l 1,8,-1
 216 117 l 1,9,-1
 216 0 l 1,10,-1
 51 0 l 1,11,-1
 51 708 l 1,0,-1
EndSplineSet
EndChar
StartChar: l
Encoding: 108 108 163
Width: 347
GlyphClass: 2
Flags: W
AnchorPoint: "Anchor-3" 229 497 basechar 0
AnchorPoint: "Anchor-1" 167 796 basechar 0
AnchorPoint: "Anchor-0" 177 0 basechar 0
LayerCount: 2
Fore
SplineSet
117 11 m 128,-1,1
 81 22 81 22 64.5 53 c 128,-1,2
 48 84 48 84 48 145 c 2,3,-1
 48 708 l 1,4,-1
 214 708 l 1,5,-1
 214 197 l 2,6,7
 214 168 214 168 219 155 c 128,-1,8
 224 142 224 142 237.5 137 c 128,-1,9
 251 132 251 132 280 132 c 2,10,-1
 327 132 l 1,11,-1
 327 0 l 1,12,-1
 220 0 l 2,13,0
 153 0 153 0 117 11 c 128,-1,1
EndSplineSet
EndChar
StartChar: m
Encoding: 109 109 167
Width: 899
GlyphClass: 2
Flags: W
AnchorPoint: "Anchor-1" 451 496 basechar 0
AnchorPoint: "Anchor-0" 451 0 basechar 0
LayerCount: 2
Fore
SplineSet
51 496 m 1,0,-1
 198 496 l 1,1,-1
 216 432 l 1,2,3
 234 463 234 463 274.5 487 c 128,-1,4
 315 511 315 511 366 511 c 0,5,6
 425 511 425 511 460 490.5 c 128,-1,7
 495 470 495 470 513 429 c 1,8,9
 541 469 541 469 586 490 c 128,-1,10
 631 511 631 511 684 511 c 0,11,12
 777 511 777 511 814.5 459.5 c 128,-1,13
 852 408 852 408 852 300 c 2,14,-1
 852 0 l 1,15,-1
 687 0 l 1,16,-1
 687 259 l 2,17,18
 687 302 687 302 683 327.5 c 128,-1,19
 679 353 679 353 663.5 369 c 128,-1,20
 648 385 648 385 616 385 c 0,21,22
 572 385 572 385 553 355 c 128,-1,23
 534 325 534 325 534 261 c 2,24,-1
 534 0 l 1,25,-1
 369 0 l 1,26,-1
 369 259 l 2,27,28
 369 303 369 303 365.5 328 c 128,-1,29
 362 353 362 353 347.5 369 c 128,-1,30
 333 385 333 385 301 385 c 0,31,32
 256 385 256 385 236 353 c 128,-1,33
 216 321 216 321 216 257 c 2,34,-1
 216 0 l 1,35,-1
 51 0 l 1,36,-1
 51 496 l 1,0,-1
EndSplineSet
EndChar
StartChar: o
Encoding: 111 111 173
Width: 590
GlyphClass: 2
Flags: W
AnchorPoint: "Anchor-3" 563 496 basechar 0
AnchorPoint: "Anchor-2" 526 10 basechar 0
AnchorPoint: "Anchor-1" 295 496 basechar 0
AnchorPoint: "Anchor-0" 295 0 basechar 0
LayerCount: 2
Fore
SplineSet
161.5 17.5 m 128,-1,1
 101 47 101 47 64.5 106 c 128,-1,2
 28 165 28 165 28 251 c 256,3,4
 28 337 28 337 64.5 395.5 c 128,-1,5
 101 454 101 454 161.5 482.5 c 128,-1,6
 222 511 222 511 295 511 c 256,7,8
 368 511 368 511 428.5 482.5 c 128,-1,9
 489 454 489 454 525.5 395.5 c 128,-1,10
 562 337 562 337 562 251 c 256,11,12
 562 165 562 165 525.5 106 c 128,-1,13
 489 47 489 47 428.5 17.5 c 128,-1,14
 368 -12 368 -12 295 -12 c 256,15,0
 222 -12 222 -12 161.5 17.5 c 128,-1,1
367.5 149 m 128,-1,17
 394 184 394 184 394 251 c 0,18,19
 394 317 394 317 367 351 c 128,-1,20
 340 385 340 385 295 385 c 256,21,22
 250 385 250 385 223 351 c 128,-1,23
 196 317 196 317 196 251 c 0,24,25
 196 184 196 184 222.5 149 c 128,-1,26
 249 114 249 114 295 114 c 256,27,16
 341 114 341 114 367.5 149 c 128,-1,17
EndSplineSet
Substitution2: "Single Substitution lookup 15 subtable" ordmasculine
AlternateSubs2: "'aalt' Access All Alternates in Latin lookup 0 subtable" ordmasculine
EndChar
StartChar: p
Encoding: 112 112 182
Width: 613
GlyphClass: 2
Flags: W
AnchorPoint: "Anchor-1" 306 496 basechar 0
AnchorPoint: "Anchor-0" 306 0 basechar 0
LayerCount: 2
Fore
SplineSet
51 496 m 1,0,-1
 197 496 l 1,1,-1
 216 430 l 1,2,3
 239 469 239 469 282 490 c 128,-1,4
 325 511 325 511 365 511 c 0,5,6
 430 511 430 511 480 479 c 128,-1,7
 530 447 530 447 557.5 387 c 128,-1,8
 585 327 585 327 585 248 c 0,9,10
 585 168 585 168 557.5 109 c 128,-1,11
 530 50 530 50 480 19 c 128,-1,12
 430 -12 430 -12 365 -12 c 0,13,14
 325 -12 325 -12 282 9.5 c 128,-1,15
 239 31 239 31 216 70 c 1,16,-1
 216 -162 l 1,17,-1
 51 -162 l 1,18,-1
 51 496 l 1,0,-1
385.5 150 m 128,-1,20
 415 185 415 185 415 248 c 0,21,22
 415 310 415 310 385 347.5 c 128,-1,23
 355 385 355 385 312 385 c 0,24,25
 266 385 266 385 237 353 c 128,-1,26
 208 321 208 321 208 252 c 0,27,28
 208 182 208 182 237.5 148.5 c 128,-1,29
 267 115 267 115 312 115 c 0,30,19
 356 115 356 115 385.5 150 c 128,-1,20
EndSplineSet
EndChar
StartChar: q
Encoding: 113 113 184
Width: 612
GlyphClass: 2
Flags: W
AnchorPoint: "Anchor-1" 310 496 basechar 0
AnchorPoint: "Anchor-0" 310 0 basechar 0
LayerCount: 2
Fore
SplineSet
397 -6 m 2,1,-1
 397 69 l 1,2,3
 374 31 374 31 331 9.5 c 128,-1,4
 288 -12 288 -12 248 -12 c 0,5,6
 183 -12 183 -12 133 19 c 128,-1,7
 83 50 83 50 55.5 109 c 128,-1,8
 28 168 28 168 28 248 c 0,9,10
 28 327 28 327 55.5 387 c 128,-1,11
 83 447 83 447 133 479 c 128,-1,12
 183 511 183 511 248 511 c 0,13,14
 288 511 288 511 331 490 c 128,-1,15
 374 469 374 469 397 430 c 1,16,-1
 416 496 l 1,17,-1
 562 496 l 1,18,-1
 562 44 l 2,19,20
 562 19 562 19 565 4 c 128,-1,21
 568 -11 568 -11 580.5 -20.5 c 128,-1,22
 593 -30 593 -30 620 -30 c 0,23,24
 646 -30 646 -30 685 -20 c 1,25,-1
 685 -156 l 1,26,27
 634 -174 634 -174 572 -174 c 0,28,0
 397 -174 397 -174 397 -6 c 2,1,-1
375.5 148.5 m 128,-1,30
 405 182 405 182 405 252 c 0,31,32
 405 321 405 321 376 353 c 128,-1,33
 347 385 347 385 302 385 c 0,34,35
 259 385 259 385 228.5 347.5 c 128,-1,36
 198 310 198 310 198 248 c 0,37,38
 198 185 198 185 228 150 c 128,-1,39
 258 115 258 115 302 115 c 256,40,29
 346 115 346 115 375.5 148.5 c 128,-1,30
EndSplineSet
EndChar
StartChar: r
Encoding: 114 114 185
Width: 406
GlyphClass: 2
Flags: W
AnchorPoint: "Anchor-1" 216 496 basechar 0
AnchorPoint: "Anchor-0" 194 0 basechar 0
LayerCount: 2
Fore
SplineSet
51 496 m 1,0,-1
 182 496 l 1,1,-1
 209 405 l 1,2,3
 228 464 228 464 275.5 489.5 c 128,-1,4
 323 515 323 515 384 511 c 1,5,-1
 384 347 l 1,6,7
 363 351 363 351 338 351 c 0,8,9
 281 351 281 351 248.5 322 c 128,-1,10
 216 293 216 293 216 233 c 2,11,-1
 216 0 l 1,12,-1
 51 0 l 1,13,-1
 51 496 l 1,0,-1
EndSplineSet
EndChar
StartChar: s
Encoding: 115 115 188
Width: 526
GlyphClass: 2
Flags: W
AnchorPoint: "Anchor-1" 269 496 basechar 0
AnchorPoint: "Anchor-0" 265 0 basechar 0
LayerCount: 2
Fore
SplineSet
108 20.5 m 128,-1,1
 41 54 41 54 13 114 c 1,2,-1
 151 165 l 1,3,4
 160 136 160 136 192.5 120 c 128,-1,5
 225 104 225 104 270 104 c 0,6,7
 305 104 305 104 330.5 115.5 c 128,-1,8
 356 127 356 127 356 147 c 0,9,10
 356 160 356 160 341 169.5 c 128,-1,11
 326 179 326 179 287 185 c 2,12,-1
 197 201 l 2,13,14
 120 214 120 214 76 251.5 c 128,-1,15
 32 289 32 289 32 347 c 0,16,17
 32 396 32 396 63 433.5 c 128,-1,18
 94 471 94 471 147.5 491 c 128,-1,19
 201 511 201 511 267 511 c 0,20,21
 347 511 347 511 408.5 483 c 128,-1,22
 470 455 470 455 498 394 c 1,23,-1
 360 343 l 1,24,25
 339 395 339 395 265 395 c 0,26,27
 226 395 226 395 207.5 384.5 c 128,-1,28
 189 374 189 374 189 356 c 0,29,30
 189 342 189 342 201 334 c 128,-1,31
 213 326 213 326 244 321 c 2,32,-1
 339 304 l 2,33,34
 434 287 434 287 473.5 254 c 128,-1,35
 513 221 513 221 513 158 c 0,36,37
 513 75 513 75 444 31 c 128,-1,38
 375 -13 375 -13 268 -13 c 0,39,0
 175 -13 175 -13 108 20.5 c 128,-1,1
EndSplineSet
EndChar
StartChar: t
Encoding: 116 116 194
Width: 398
GlyphClass: 2
Flags: W
AnchorPoint: "Anchor-3" 270 554 basechar 0
AnchorPoint: "Anchor-1" 192 496 basechar 0
AnchorPoint: "Anchor-0" 222 0 basechar 0
LayerCount: 2
Fore
SplineSet
159 11 m 128,-1,1
 123 22 123 22 106.5 52.5 c 128,-1,2
 90 83 90 83 90 143 c 2,3,-1
 90 371 l 1,4,-1
 8 371 l 1,5,-1
 8 496 l 1,6,-1
 90 496 l 1,7,-1
 90 620 l 1,8,-1
 255 620 l 1,9,-1
 255 496 l 1,10,-1
 363 496 l 1,11,-1
 363 371 l 1,12,-1
 255 371 l 1,13,-1
 255 188 l 2,14,15
 255 155 255 155 269 144 c 128,-1,16
 283 133 283 133 321 133 c 2,17,-1
 363 133 l 1,18,-1
 363 0 l 1,19,-1
 263 0 l 2,20,0
 195 0 195 0 159 11 c 128,-1,1
EndSplineSet
EndChar
StartChar: u
Encoding: 117 117 198
Width: 580
GlyphClass: 2
Flags: W
AnchorPoint: "Anchor-3" 556 496 basechar 0
AnchorPoint: "Anchor-2" 529 10 basechar 0
AnchorPoint: "Anchor-1" 289 496 basechar 0
AnchorPoint: "Anchor-0" 289 0 basechar 0
LayerCount: 2
Fore
SplineSet
86 40 m 128,-1,1
 47 92 47 92 47 201 c 2,2,-1
 47 496 l 1,3,-1
 212 496 l 1,4,-1
 212 242 l 2,5,6
 212 197 212 197 215.5 172 c 128,-1,7
 219 147 219 147 234.5 130.5 c 128,-1,8
 250 114 250 114 283 114 c 0,9,10
 328 114 328 114 346 142 c 128,-1,11
 364 170 364 170 364 237 c 2,12,-1
 364 496 l 1,13,-1
 529 496 l 1,14,-1
 529 0 l 1,15,-1
 385 0 l 1,16,-1
 364 70 l 1,17,18
 340 29 340 29 307.5 8.5 c 128,-1,19
 275 -12 275 -12 222 -12 c 0,20,0
 125 -12 125 -12 86 40 c 128,-1,1
EndSplineSet
EndChar
StartChar: v
Encoding: 118 118 207
Width: 562
GlyphClass: 2
Flags: W
AnchorPoint: "Anchor-1" 281 496 basechar 0
AnchorPoint: "Anchor-0" 281 0 basechar 0
LayerCount: 2
Fore
SplineSet
10 496 m 1,0,-1
 179 496 l 1,1,-1
 281 167 l 1,2,-1
 383 496 l 1,3,-1
 552 496 l 1,4,-1
 374 0 l 1,5,-1
 187 0 l 1,6,-1
 10 496 l 1,0,-1
EndSplineSet
EndChar
StartChar: w
Encoding: 119 119 208
Width: 766
GlyphClass: 2
Flags: W
AnchorPoint: "Anchor-1" 383 496 basechar 0
AnchorPoint: "Anchor-0" 384 0 basechar 0
LayerCount: 2
Fore
SplineSet
15 496 m 1,0,-1
 176 496 l 1,1,-1
 247 166 l 1,2,-1
 305 496 l 1,3,-1
 460 496 l 1,4,-1
 517 166 l 1,5,-1
 588 496 l 1,6,-1
 751 496 l 1,7,-1
 630 0 l 1,8,-1
 448 0 l 1,9,-1
 382 348 l 1,10,-1
 318 0 l 1,11,-1
 135 0 l 1,12,-1
 15 496 l 1,0,-1
EndSplineSet
EndChar
StartChar: x
Encoding: 120 120 213
Width: 566
GlyphClass: 2
Flags: W
AnchorPoint: "Anchor-1" 284 496 basechar 0
AnchorPoint: "Anchor-0" 284 0 basechar 0
LayerCount: 2
Fore
SplineSet
195 260 m 1,0,-1
 26 496 l 1,1,-1
 205 496 l 1,2,-1
 284 385 l 1,3,-1
 362 496 l 1,4,-1
 540 496 l 1,5,-1
 372 260 l 1,6,-1
 556 0 l 1,7,-1
 378 0 l 1,8,-1
 284 135 l 1,9,-1
 189 0 l 1,10,-1
 10 0 l 1,11,-1
 195 260 l 1,0,-1
EndSplineSet
EndChar
StartChar: y
Encoding: 121 121 214
Width: 555
GlyphClass: 2
Flags: W
AnchorPoint: "Anchor-1" 277 496 basechar 0
AnchorPoint: "Anchor-0" 277 0 basechar 0
LayerCount: 2
Fore
SplineSet
64 -42 m 1,0,-1
 106 -42 l 2,1,2
 151 -42 151 -42 170 -35 c 128,-1,3
 189 -28 189 -28 197 -8 c 2,4,-1
 202 4 l 1,5,-1
 10 496 l 1,6,-1
 186 496 l 1,7,-1
 278 200 l 1,8,-1
 368 496 l 1,9,-1
 545 496 l 1,10,-1
 352 2 l 2,11,12
 325 -66 325 -66 301 -100 c 128,-1,13
 277 -134 277 -134 239 -148 c 128,-1,14
 201 -162 201 -162 133 -162 c 2,15,-1
 64 -162 l 1,16,-1
 64 -42 l 1,0,-1
EndSplineSet
EndChar
StartChar: z
Encoding: 122 122 219
Width: 527
GlyphClass: 2
Flags: W
AnchorPoint: "Anchor-1" 263 496 basechar 0
AnchorPoint: "Anchor-0" 263 0 basechar 0
LayerCount: 2
Fore
SplineSet
28 130 m 1,0,-1
 280 366 l 1,1,-1
 43 366 l 1,2,-1
 43 496 l 1,3,-1
 494 496 l 1,4,-1
 494 366 l 1,5,-1
 243 130 l 1,6,-1
 508 130 l 1,7,-1
 508 0 l 1,8,-1
 28 0 l 1,9,-1
 28 130 l 1,0,-1
EndSplineSet
EndChar
StartChar: braceleft
Encoding: 123 123 279
Width: 400
GlyphClass: 1
Flags: W
LayerCount: 2
Fore
SplineSet
154 -121.5 m 128,-1,1
 111 -81 111 -81 111 6 c 2,2,-1
 111 110 l 2,3,4
 111 164 111 164 92.5 184.5 c 128,-1,5
 74 205 74 205 21 205 c 1,6,-1
 21 341 l 1,7,8
 74 341 74 341 92.5 361.5 c 128,-1,9
 111 382 111 382 111 436 c 2,10,-1
 111 540 l 2,11,12
 111 627 111 627 154 667.5 c 128,-1,13
 197 708 197 708 293 708 c 2,14,-1
 366 708 l 1,15,-1
 366 579 l 1,16,-1
 324 579 l 2,17,18
 291 579 291 579 279 570 c 128,-1,19
 267 561 267 561 267 535 c 2,20,-1
 267 401 l 2,21,22
 267 349 267 349 244.5 319.5 c 128,-1,23
 222 290 222 290 169 276 c 1,24,-1
 169 270 l 1,25,26
 222 256 222 256 244.5 226.5 c 128,-1,27
 267 197 267 197 267 145 c 2,28,-1
 267 11 l 2,29,30
 267 -15 267 -15 279 -24 c 128,-1,31
 291 -33 291 -33 324 -33 c 2,32,-1
 366 -33 l 1,33,-1
 366 -162 l 1,34,-1
 293 -162 l 2,35,0
 197 -162 197 -162 154 -121.5 c 128,-1,1
EndSplineSet
EndChar
StartChar: braceright
Encoding: 125 125 280
Width: 400
GlyphClass: 1
Flags: W
LayerCount: 2
Fore
SplineSet
34 -33 m 1,0,-1
 76 -33 l 2,1,2
 109 -33 109 -33 121 -24 c 128,-1,3
 133 -15 133 -15 133 11 c 2,4,-1
 133 145 l 2,5,6
 133 197 133 197 155.5 226.5 c 128,-1,7
 178 256 178 256 231 270 c 1,8,-1
 231 276 l 1,9,10
 178 290 178 290 155.5 319.5 c 128,-1,11
 133 349 133 349 133 401 c 2,12,-1
 133 535 l 2,13,14
 133 561 133 561 121 570 c 128,-1,15
 109 579 109 579 76 579 c 2,16,-1
 34 579 l 1,17,-1
 34 708 l 1,18,-1
 107 708 l 2,19,20
 203 708 203 708 246 667.5 c 128,-1,21
 289 627 289 627 289 540 c 2,22,-1
 289 436 l 2,23,24
 289 382 289 382 307.5 361.5 c 128,-1,25
 326 341 326 341 379 341 c 1,26,-1
 379 205 l 1,27,28
 326 205 326 205 307.5 184.5 c 128,-1,29
 289 164 289 164 289 110 c 2,30,-1
 289 6 l 2,31,32
 289 -81 289 -81 246 -121.5 c 128,-1,33
 203 -162 203 -162 107 -162 c 2,34,-1
 34 -162 l 1,35,-1
 34 -33 l 1,0,-1
EndSplineSet
EndChar
StartChar: asciitilde
Encoding: 126 126 333
Width: 529
GlyphClass: 1
Flags: W
LayerCount: 2
Fore
SplineSet
72 310.5 m 128,-1,1
 101 355 101 355 168 355 c 0,2,3
 196 355 196 355 218.5 346 c 128,-1,4
 241 337 241 337 270 320 c 0,5,6
 296 306 296 306 310.5 300 c 128,-1,7
 325 294 325 294 341 294 c 0,8,9
 362 294 362 294 372.5 313 c 128,-1,10
 383 332 383 332 380 381 c 1,11,-1
 491 340 l 1,12,13
 486 251 486 251 457 206.5 c 128,-1,14
 428 162 428 162 361 162 c 0,15,16
 333 162 333 162 310.5 171 c 128,-1,17
 288 180 288 180 259 197 c 0,18,19
 233 211 233 211 219 217 c 128,-1,20
 205 223 205 223 188 223 c 0,21,22
 167 223 167 223 156.5 204 c 128,-1,23
 146 185 146 185 149 136 c 1,24,-1
 38 177 l 1,25,0
 43 266 43 266 72 310.5 c 128,-1,1
EndSplineSet
EndChar
StartChar: exclamdown
Encoding: 161 161 264
Width: 315
GlyphClass: 1
Flags: W
LayerCount: 2
Fore
SplineSet
69 3 m 1,0,-1
 102 246 l 1,1,-1
 214 246 l 1,2,-1
 247 3 l 1,3,-1
 247 -170 l 1,4,-1
 69 -170 l 1,5,-1
 69 3 l 1,0,-1
84.5 333 m 128,-1,7
 54 363 54 363 54 406 c 256,8,9
 54 449 54 449 84.5 479.5 c 128,-1,10
 115 510 115 510 157 510 c 0,11,12
 200 510 200 510 230.5 479.5 c 128,-1,13
 261 449 261 449 261 406 c 256,14,15
 261 363 261 363 230.5 333 c 128,-1,16
 200 303 200 303 157 303 c 0,17,6
 115 303 115 303 84.5 333 c 128,-1,7
EndSplineSet
EndChar
StartChar: cent
Encoding: 162 162 311
Width: 523
GlyphClass: 1
Flags: W
LayerCount: 2
Fore
SplineSet
84 71.5 m 128,-1,1
 28 143 28 143 28 252 c 0,2,3
 28 320 28 320 54.5 375 c 128,-1,4
 81 430 81 430 131.5 465.5 c 128,-1,5
 182 501 182 501 252 508 c 1,6,-1
 252 586 l 1,7,-1
 330 586 l 1,8,-1
 330 507 l 1,9,10
 394 499 394 499 442 465.5 c 128,-1,11
 490 432 490 432 515 376 c 1,12,-1
 379 328 l 1,13,14
 362 368 362 368 330 380 c 1,15,-1
 330 118 l 1,16,17
 362 126 362 126 380 157 c 1,18,-1
 512 108 l 1,19,20
 485 59 485 59 437 28.5 c 128,-1,21
 389 -2 389 -2 330 -10 c 1,22,-1
 330 -90 l 1,23,-1
 252 -90 l 1,24,-1
 252 -11 l 1,25,0
 140 0 140 0 84 71.5 c 128,-1,1
209 328.5 m 128,-1,27
 195 295 195 295 195 250 c 0,28,29
 195 150 195 150 252 123 c 1,30,-1
 252 376 l 1,31,26
 223 362 223 362 209 328.5 c 128,-1,27
EndSplineSet
EndChar
StartChar: sterling
Encoding: 163 163 316
Width: 648
GlyphClass: 1
Flags: W
LayerCount: 2
Fore
SplineSet
152.5 175.5 m 128,-1,1
 180 206 180 206 180 253 c 0,2,3
 180 273 180 273 172 291 c 1,4,-1
 59 291 l 1,5,-1
 59 369 l 1,6,-1
 130 369 l 1,7,8
 89 444 89 444 89 502 c 0,9,10
 89 586 89 586 160 632.5 c 128,-1,11
 231 679 231 679 347 679 c 0,12,13
 435 679 435 679 504.5 641 c 128,-1,14
 574 603 574 603 605 535 c 1,15,-1
 459 480 l 1,16,17
 448 514 448 514 417.5 531 c 128,-1,18
 387 548 387 548 350 548 c 0,19,20
 310 548 310 548 286 531 c 128,-1,21
 262 514 262 514 262 487 c 0,22,23
 262 464 262 464 272 441.5 c 128,-1,24
 282 419 282 419 309 369 c 1,25,-1
 462 369 l 1,26,-1
 462 291 l 1,27,-1
 345 291 l 1,28,29
 351 273 351 273 351 258 c 0,30,31
 351 220 351 220 321.5 185 c 128,-1,32
 292 150 292 150 244 120 c 1,33,34
 278 140 278 140 333 140 c 0,35,36
 361 140 361 140 411 130 c 0,37,38
 455 122 455 122 471 122 c 0,39,40
 522 122 522 122 573 154 c 1,41,-1
 621 24 l 1,42,43
 585 6 585 6 545 -3 c 128,-1,44
 505 -12 505 -12 454 -12 c 0,45,46
 415 -12 415 -12 350 7 c 0,47,48
 325 13 325 13 299.5 18.5 c 128,-1,49
 274 24 274 24 253 24 c 0,50,51
 182 24 182 24 118 -12 c 1,52,-1
 58 113 l 1,53,0
 125 145 125 145 152.5 175.5 c 128,-1,1
EndSplineSet
EndChar
StartChar: currency
Encoding: 164 164 312
Width: 599
GlyphClass: 1
Flags: W
LayerCount: 2
Fore
SplineSet
53 129 m 1,0,-1
 120 196 l 1,1,2
 80 252 80 252 80 320 c 256,3,4
 80 388 80 388 120 444 c 1,5,-1
 53 511 l 1,6,-1
 108 566 l 1,7,-1
 175 499 l 1,8,9
 234 539 234 539 299 539 c 256,10,11
 364 539 364 539 423 499 c 1,12,-1
 490 566 l 1,13,-1
 545 511 l 1,14,-1
 478 444 l 1,15,16
 518 388 518 388 518 320 c 256,17,18
 518 252 518 252 478 196 c 1,19,-1
 545 129 l 1,20,-1
 490 74 l 1,21,-1
 423 141 l 1,22,23
 364 101 364 101 299 101 c 256,24,25
 234 101 234 101 175 141 c 1,26,-1
 108 74 l 1,27,-1
 53 129 l 1,0,-1
362.5 255.5 m 128,-1,29
 389 282 389 282 389 320 c 256,30,31
 389 358 389 358 362.5 384.5 c 128,-1,32
 336 411 336 411 299 411 c 256,33,34
 262 411 262 411 235.5 384.5 c 128,-1,35
 209 358 209 358 209 320 c 256,36,37
 209 282 209 282 235.5 255.5 c 128,-1,38
 262 229 262 229 299 229 c 256,39,28
 336 229 336 229 362.5 255.5 c 128,-1,29
EndSplineSet
EndChar
StartChar: yen
Encoding: 165 165 317
Width: 684
GlyphClass: 1
Flags: W
LayerCount: 2
Fore
SplineSet
258 73 m 1,0,-1
 133 73 l 1,1,-1
 133 151 l 1,2,-1
 258 151 l 1,3,-1
 258 210 l 1,4,-1
 133 210 l 1,5,-1
 133 288 l 1,6,-1
 240 288 l 1,7,-1
 0 668 l 1,8,-1
 199 668 l 1,9,-1
 341 423 l 1,10,-1
 484 668 l 1,11,-1
 684 668 l 1,12,-1
 444 288 l 1,13,-1
 553 288 l 1,14,-1
 553 210 l 1,15,-1
 426 210 l 1,16,-1
 426 151 l 1,17,-1
 553 151 l 1,18,-1
 553 73 l 1,19,-1
 426 73 l 1,20,-1
 426 0 l 1,21,-1
 258 0 l 1,22,-1
 258 73 l 1,0,-1
EndSplineSet
EndChar
StartChar: brokenbar
Encoding: 166 166 306
Width: 245
GlyphClass: 1
Flags: W
LayerCount: 2
Fore
SplineSet
54 233 m 1,0,-1
 191 233 l 1,1,-1
 191 -162 l 1,2,-1
 54 -162 l 1,3,-1
 54 233 l 1,0,-1
54 838 m 1,4,-1
 191 838 l 1,5,-1
 191 443 l 1,6,-1
 54 443 l 1,7,-1
 54 838 l 1,4,-1
EndSplineSet
EndChar
StartChar: section
Encoding: 167 167 300
Width: 568
GlyphClass: 1
Flags: W
LayerCount: 2
Fore
SplineSet
138 -136 m 128,-1,1
 83 -99 83 -99 58 -33 c 1,2,-1
 196 18 l 1,3,4
 205 -15 205 -15 226.5 -31 c 128,-1,5
 248 -47 248 -47 278 -47 c 256,6,7
 308 -47 308 -47 325.5 -35.5 c 128,-1,8
 343 -24 343 -24 343 -8 c 0,9,10
 343 24 343 24 273 57 c 2,11,-1
 162 110 l 2,12,13
 87 145 87 145 50 188 c 128,-1,14
 13 231 13 231 13 290 c 0,15,16
 13 364 13 364 89 418 c 1,17,18
 62 457 62 457 62 503 c 0,19,20
 62 555 62 555 91.5 595 c 128,-1,21
 121 635 121 635 174 657.5 c 128,-1,22
 227 680 227 680 294 680 c 0,23,24
 375 680 375 680 430 643 c 128,-1,25
 485 606 485 606 510 540 c 1,26,-1
 372 489 l 1,27,28
 363 522 363 522 341.5 538 c 128,-1,29
 320 554 320 554 290 554 c 256,30,31
 260 554 260 554 242.5 542.5 c 128,-1,32
 225 531 225 531 225 515 c 0,33,34
 225 483 225 483 295 450 c 2,35,-1
 406 397 l 2,36,37
 481 362 481 362 518 319 c 128,-1,38
 555 276 555 276 555 217 c 0,39,40
 555 143 555 143 479 89 c 1,41,42
 506 50 506 50 506 4 c 0,43,44
 506 -48 506 -48 476.5 -88 c 128,-1,45
 447 -128 447 -128 394 -150.5 c 128,-1,46
 341 -173 341 -173 274 -173 c 0,47,0
 193 -173 193 -173 138 -136 c 128,-1,1
394 204 m 256,49,50
 394 223 394 223 380.5 235.5 c 128,-1,51
 367 248 367 248 339 262 c 2,52,-1
 190 335 l 1,53,54
 174 322 174 322 174 303 c 256,55,56
 174 284 174 284 187.5 271.5 c 128,-1,57
 201 259 201 259 229 245 c 2,58,-1
 378 172 l 1,59,48
 394 185 394 185 394 204 c 256,49,50
EndSplineSet
EndChar
StartChar: copyright
Encoding: 169 169 301
Width: 798
GlyphClass: 1
Flags: W
LayerCount: 2
Fore
SplineSet
225 33.5 m 128,-1,1
 145 80 145 80 98.5 160 c 128,-1,2
 52 240 52 240 52 334 c 256,3,4
 52 428 52 428 98.5 508 c 128,-1,5
 145 588 145 588 225 634.5 c 128,-1,6
 305 681 305 681 399 681 c 256,7,8
 493 681 493 681 573 634.5 c 128,-1,9
 653 588 653 588 699.5 508 c 128,-1,10
 746 428 746 428 746 334 c 256,11,12
 746 240 746 240 699.5 160 c 128,-1,13
 653 80 653 80 573 33.5 c 128,-1,14
 493 -13 493 -13 399 -13 c 256,15,0
 305 -13 305 -13 225 33.5 c 128,-1,1
264 195.5 m 128,-1,17
 215 248 215 248 215 336 c 0,18,19
 215 393 215 393 238.5 436 c 128,-1,20
 262 479 262 479 304 502.5 c 128,-1,21
 346 526 346 526 400 526 c 0,22,23
 452 526 452 526 497 503.5 c 128,-1,24
 542 481 542 481 566 430 c 1,25,-1
 469 394 l 1,26,27
 454 436 454 436 407 436 c 0,28,29
 377 436 377 436 355.5 412 c 128,-1,30
 334 388 334 388 334 336 c 0,31,32
 334 281 334 281 355.5 257 c 128,-1,33
 377 233 377 233 407 233 c 0,34,35
 451 233 451 233 470 265 c 1,36,-1
 564 230 l 1,37,38
 537 184 537 184 492.5 163.5 c 128,-1,39
 448 143 448 143 400 143 c 0,40,16
 313 143 313 143 264 195.5 c 128,-1,17
537.5 94.5 m 128,-1,42
 601 132 601 132 638 195.5 c 128,-1,43
 675 259 675 259 675 334 c 256,44,45
 675 409 675 409 638 472.5 c 128,-1,46
 601 536 601 536 537.5 573.5 c 128,-1,47
 474 611 474 611 399 611 c 256,48,49
 324 611 324 611 260.5 573.5 c 128,-1,50
 197 536 197 536 160 472.5 c 128,-1,51
 123 409 123 409 123 334 c 256,52,53
 123 259 123 259 160 195.5 c 128,-1,54
 197 132 197 132 260.5 94.5 c 128,-1,55
 324 57 324 57 399 57 c 256,56,41
 474 57 474 57 537.5 94.5 c 128,-1,42
EndSplineSet
EndChar
StartChar: ordfeminine
Encoding: 170 170 223
Width: 400
GlyphClass: 1
Flags: W
LayerCount: 2
Fore
SplineSet
82 419.5 m 128,-1,1
 53 445 53 445 53 481 c 0,2,3
 53 521 53 521 75 542.5 c 128,-1,4
 97 564 97 564 127 572 c 128,-1,5
 157 580 157 580 206 585 c 2,6,-1
 238 589 l 1,7,8
 238 604 238 604 228.5 610 c 128,-1,9
 219 616 219 616 200 616 c 0,10,11
 187 616 187 616 176.5 611 c 128,-1,12
 166 606 166 606 165 597 c 1,13,-1
 73 630 l 1,14,15
 103 688 103 688 214 688 c 0,16,17
 281 688 281 688 312 661 c 128,-1,18
 343 634 343 634 343 576 c 2,19,-1
 343 522 l 1,20,-1
 343 490 l 2,21,22
 343 431 343 431 347 400 c 1,23,-1
 258 400 l 1,24,-1
 249 433 l 1,25,26
 225 394 225 394 161 394 c 0,27,0
 111 394 111 394 82 419.5 c 128,-1,1
226.5 479.5 m 128,-1,29
 240 489 240 489 240 506 c 2,30,-1
 240 524 l 1,31,32
 196 525 196 525 179.5 516 c 128,-1,33
 163 507 163 507 163 491 c 0,34,35
 163 482 163 482 170.5 476 c 128,-1,36
 178 470 178 470 193 470 c 0,37,28
 213 470 213 470 226.5 479.5 c 128,-1,29
EndSplineSet
EndChar
StartChar: guillemotleft
Encoding: 171 171 289
Width: 689
GlyphClass: 1
Flags: W
LayerCount: 2
Fore
SplineSet
300 250 m 1,0,-1
 448 460 l 1,1,-1
 636 460 l 1,2,-1
 487 250 l 1,3,-1
 636 40 l 1,4,-1
 448 40 l 1,5,-1
 300 250 l 1,0,-1
53 250 m 1,6,-1
 201 460 l 1,7,-1
 389 460 l 1,8,-1
 240 250 l 1,9,-1
 389 40 l 1,10,-1
 201 40 l 1,11,-1
 53 250 l 1,6,-1
EndSplineSet
EndChar
StartChar: logicalnot
Encoding: 172 172 332
Width: 621
GlyphClass: 1
Flags: W
LayerCount: 2
Fore
SplineSet
431 291 m 1,0,-1
 53 291 l 1,1,-1
 53 427 l 1,2,-1
 568 427 l 1,3,-1
 568 50 l 1,4,-1
 431 50 l 1,5,-1
 431 291 l 1,0,-1
EndSplineSet
EndChar
StartChar: registered
Encoding: 174 174 302
Width: 798
GlyphClass: 1
Flags: W
LayerCount: 2
Fore
SplineSet
225 33.5 m 128,-1,1
 145 80 145 80 98.5 160 c 128,-1,2
 52 240 52 240 52 334 c 256,3,4
 52 428 52 428 98.5 508 c 128,-1,5
 145 588 145 588 225 634.5 c 128,-1,6
 305 681 305 681 399 681 c 256,7,8
 493 681 493 681 573 634.5 c 128,-1,9
 653 588 653 588 699.5 508 c 128,-1,10
 746 428 746 428 746 334 c 256,11,12
 746 240 746 240 699.5 160 c 128,-1,13
 653 80 653 80 573 33.5 c 128,-1,14
 493 -13 493 -13 399 -13 c 256,15,0
 305 -13 305 -13 225 33.5 c 128,-1,1
537.5 94.5 m 128,-1,17
 601 132 601 132 638 195.5 c 128,-1,18
 675 259 675 259 675 334 c 256,19,20
 675 409 675 409 638 472.5 c 128,-1,21
 601 536 601 536 537.5 573.5 c 128,-1,22
 474 611 474 611 399 611 c 256,23,24
 324 611 324 611 260.5 573.5 c 128,-1,25
 197 536 197 536 160 472.5 c 128,-1,26
 123 409 123 409 123 334 c 256,27,28
 123 259 123 259 160 195.5 c 128,-1,29
 197 132 197 132 260.5 94.5 c 128,-1,30
 324 57 324 57 399 57 c 256,31,16
 474 57 474 57 537.5 94.5 c 128,-1,17
238 529 m 1,32,-1
 396 529 l 2,33,34
 473 529 473 529 517.5 503.5 c 128,-1,35
 562 478 562 478 562 415 c 0,36,37
 562 333 562 333 475 310 c 1,38,-1
 582 162 l 1,39,-1
 470 162 l 1,40,-1
 369 300 l 1,41,-1
 339 300 l 1,42,-1
 339 162 l 1,43,-1
 238 162 l 1,44,-1
 238 529 l 1,32,-1
438.5 385.5 m 128,-1,46
 456 393 456 393 456 414 c 256,47,48
 456 435 456 435 439 442.5 c 128,-1,49
 422 450 422 450 391 450 c 2,50,-1
 339 450 l 1,51,-1
 339 378 l 1,52,-1
 390 378 l 2,53,45
 421 378 421 378 438.5 385.5 c 128,-1,46
EndSplineSet
EndChar
StartChar: degree
Encoding: 176 176 304
Width: 414
GlyphClass: 1
Flags: W
LayerCount: 2
Fore
SplineSet
123.5 367.5 m 128,-1,1
 85 390 85 390 62.5 428.5 c 128,-1,2
 40 467 40 467 40 513 c 0,3,4
 40 558 40 558 62.5 596.5 c 128,-1,5
 85 635 85 635 123.5 657.5 c 128,-1,6
 162 680 162 680 207 680 c 0,7,8
 253 680 253 680 291 657.5 c 128,-1,9
 329 635 329 635 351.5 596.5 c 128,-1,10
 374 558 374 558 374 513 c 0,11,12
 374 467 374 467 351.5 428.5 c 128,-1,13
 329 390 329 390 291 367.5 c 128,-1,14
 253 345 253 345 207 345 c 0,15,0
 162 345 162 345 123.5 367.5 c 128,-1,1
259 461.5 m 128,-1,17
 280 483 280 483 280 513 c 256,18,19
 280 543 280 543 259 564.5 c 128,-1,20
 238 586 238 586 207 586 c 0,21,22
 177 586 177 586 155.5 564.5 c 128,-1,23
 134 543 134 543 134 513 c 256,24,25
 134 483 134 483 155.5 461.5 c 128,-1,26
 177 440 177 440 207 440 c 0,27,16
 238 440 238 440 259 461.5 c 128,-1,17
EndSplineSet
EndChar
StartChar: plusminus
Encoding: 177 177 330
Width: 625
GlyphClass: 1
Flags: W
LayerCount: 2
Fore
SplineSet
244 285 m 1,0,-1
 53 285 l 1,1,-1
 53 399 l 1,2,-1
 244 399 l 1,3,-1
 244 496 l 1,4,-1
 381 496 l 1,5,-1
 381 399 l 1,6,-1
 572 399 l 1,7,-1
 572 285 l 1,8,-1
 381 285 l 1,9,-1
 381 191 l 1,10,-1
 244 191 l 1,11,-1
 244 285 l 1,0,-1
53 137 m 1,12,-1
 572 137 l 1,13,-1
 572 0 l 1,14,-1
 53 0 l 1,15,-1
 53 137 l 1,12,-1
EndSplineSet
EndChar
StartChar: uni00B2
Encoding: 178 178 254
Width: 412
GlyphClass: 1
Flags: W
LayerCount: 2
Fore
SplineSet
201 595 m 128,-1,1
 251 637 251 637 251 672 c 0,2,3
 251 688 251 688 239.5 696.5 c 128,-1,4
 228 705 228 705 211 705 c 0,5,6
 190 705 190 705 177 694 c 128,-1,7
 164 683 164 683 160 665 c 1,8,-1
 64 701 l 1,9,10
 80 743 80 743 119.5 764.5 c 128,-1,11
 159 786 159 786 216 786 c 0,12,13
 281 786 281 786 320.5 758.5 c 128,-1,14
 360 731 360 731 360 676 c 0,15,16
 360 641 360 641 342 612 c 128,-1,17
 324 583 324 583 293.5 558 c 128,-1,18
 263 533 263 533 207 495 c 1,19,-1
 358 495 l 1,20,-1
 358 403 l 1,21,-1
 53 403 l 1,22,-1
 53 489 l 1,23,0
 151 553 151 553 201 595 c 128,-1,1
EndSplineSet
EndChar
StartChar: uni00B3
Encoding: 179 179 255
Width: 419
GlyphClass: 1
Flags: W
LayerCount: 2
Fore
SplineSet
53 478 m 1,1,-1
 149 513 l 1,2,3
 155 495 155 495 171.5 486.5 c 128,-1,4
 188 478 188 478 208 478 c 0,5,6
 230 478 230 478 242 488 c 128,-1,7
 254 498 254 498 254 513 c 0,8,9
 254 531 254 531 236.5 540 c 128,-1,10
 219 549 219 549 170 549 c 1,11,-1
 170 639 l 1,12,13
 213 639 213 639 229.5 648.5 c 128,-1,14
 246 658 246 658 246 675 c 0,15,16
 246 690 246 690 233.5 697.5 c 128,-1,17
 221 705 221 705 203 705 c 0,18,19
 186 705 186 705 172 697 c 128,-1,20
 158 689 158 689 152 675 c 1,21,-1
 58 710 l 1,22,23
 76 748 76 748 114.5 767 c 128,-1,24
 153 786 153 786 207 786 c 0,25,26
 274 786 274 786 314.5 758.5 c 128,-1,27
 355 731 355 731 355 684 c 0,28,29
 355 655 355 655 341 633 c 128,-1,30
 327 611 327 611 307 601 c 1,31,32
 334 591 334 591 350 567.5 c 128,-1,33
 366 544 366 544 366 511 c 0,34,35
 366 458 366 458 322.5 427 c 128,-1,36
 279 396 279 396 215 396 c 0,37,0
 91 396 91 396 53 478 c 1,1,-1
EndSplineSet
EndChar
StartChar: paragraph
Encoding: 182 182 299
Width: 527
GlyphClass: 1
Flags: W
LayerCount: 2
Fore
SplineSet
67.5 363 m 128,-1,1
 28 413 28 413 28 479 c 0,2,3
 28 530 28 530 53.5 573.5 c 128,-1,4
 79 617 79 617 122.5 642.5 c 128,-1,5
 166 668 166 668 217 668 c 2,6,-1
 503 668 l 1,7,-1
 503 601 l 1,8,-1
 455 601 l 1,9,-1
 455 -162 l 1,10,-1
 357 -162 l 1,11,-1
 357 601 l 1,12,-1
 266 601 l 1,13,-1
 266 -162 l 1,14,-1
 168 -162 l 1,15,-1
 168 296 l 1,16,0
 107 313 107 313 67.5 363 c 128,-1,1
EndSplineSet
EndChar
StartChar: uni00B9
Encoding: 185 185 253
Width: 298
GlyphClass: 1
Flags: W
LayerCount: 2
Fore
SplineSet
137 640 m 1,0,-1
 53 640 l 1,1,-1
 53 735 l 1,2,3
 105 734 105 734 129 743.5 c 128,-1,4
 153 753 153 753 161 779 c 1,5,-1
 245 779 l 1,6,-1
 245 403 l 1,7,-1
 137 403 l 1,8,-1
 137 640 l 1,0,-1
EndSplineSet
EndChar
StartChar: ordmasculine
Encoding: 186 186 224
Width: 414
GlyphClass: 1
Flags: W
LayerCount: 2
Fore
SplineSet
95.5 431 m 128,-1,1
 52 468 52 468 52 541 c 256,2,3
 52 614 52 614 95.5 651 c 128,-1,4
 139 688 139 688 207 688 c 256,5,6
 275 688 275 688 318.5 651 c 128,-1,7
 362 614 362 614 362 541 c 256,8,9
 362 468 362 468 318.5 431 c 128,-1,10
 275 394 275 394 207 394 c 256,11,0
 139 394 139 394 95.5 431 c 128,-1,1
240 492 m 128,-1,13
 253 509 253 509 253 541 c 256,14,15
 253 573 253 573 240 590 c 128,-1,16
 227 607 227 607 207 607 c 256,17,18
 187 607 187 607 174 590 c 128,-1,19
 161 573 161 573 161 541 c 256,20,21
 161 509 161 509 174 492 c 128,-1,22
 187 475 187 475 207 475 c 256,23,12
 227 475 227 475 240 492 c 128,-1,13
EndSplineSet
EndChar
StartChar: guillemotright
Encoding: 187 187 290
Width: 689
GlyphClass: 1
Flags: W
LayerCount: 2
Fore
SplineSet
449 250 m 1,0,-1
 300 460 l 1,1,-1
 488 460 l 1,2,-1
 636 250 l 1,3,-1
 488 40 l 1,4,-1
 300 40 l 1,5,-1
 449 250 l 1,0,-1
202 250 m 1,6,-1
 53 460 l 1,7,-1
 241 460 l 1,8,-1
 389 250 l 1,9,-1
 241 40 l 1,10,-1
 53 40 l 1,11,-1
 202 250 l 1,6,-1
EndSplineSet
EndChar
StartChar: onequarter
Encoding: 188 188 251
Width: 856
GlyphClass: 3
Flags: W
LayerCount: 2
Fore
SplineSet
577 668 m 1,0,-1
 711 668 l 1,1,-1
 243 0 l 1,2,-1
 109 0 l 1,3,-1
 577 668 l 1,0,-1
137 529 m 1,4,-1
 53 529 l 1,5,-1
 53 625 l 1,6,7
 105 625 105 625 128.5 632 c 128,-1,8
 152 639 152 639 161 668 c 1,9,-1
 244 668 l 1,10,-1
 244 293 l 1,11,-1
 137 293 l 1,12,-1
 137 529 l 1,4,-1
639 164 m 1,13,-1
 639 250 l 1,14,-1
 568 164 l 1,15,-1
 639 164 l 1,13,-1
639 72 m 1,16,-1
 459 72 l 1,17,-1
 459 154 l 1,18,-1
 639 375 l 1,19,-1
 746 375 l 1,20,-1
 746 164 l 1,21,-1
 803 164 l 1,22,-1
 803 72 l 1,23,-1
 746 72 l 1,24,-1
 746 0 l 1,25,-1
 639 0 l 1,26,-1
 639 72 l 1,16,-1
EndSplineSet
Ligature2: "'frac' Diagonal Fractions in Latin lookup 7 subtable" one slash four
EndChar
StartChar: onehalf
Encoding: 189 189 250
Width: 872
GlyphClass: 3
Flags: W
LayerCount: 2
Fore
SplineSet
577 668 m 1,0,-1
 711 668 l 1,1,-1
 243 0 l 1,2,-1
 109 0 l 1,3,-1
 577 668 l 1,0,-1
137 529 m 1,4,-1
 53 529 l 1,5,-1
 53 625 l 1,6,7
 105 625 105 625 128.5 632 c 128,-1,8
 152 639 152 639 161 668 c 1,9,-1
 244 668 l 1,10,-1
 244 293 l 1,11,-1
 137 293 l 1,12,-1
 137 529 l 1,4,-1
564 121 m 2,13,14
 620 159 620 159 646.5 179 c 128,-1,15
 673 199 673 199 691.5 220.5 c 128,-1,16
 710 242 710 242 710 264 c 0,17,18
 710 283 710 283 698.5 292.5 c 128,-1,19
 687 302 687 302 669 302 c 0,20,21
 648 302 648 302 635 291 c 128,-1,22
 622 280 622 280 617 262 c 1,23,-1
 521 298 l 1,24,25
 537 339 537 339 576.5 360.5 c 128,-1,26
 616 382 616 382 673 382 c 0,27,28
 738 382 738 382 778.5 354 c 128,-1,29
 819 326 819 326 819 272 c 0,30,31
 819 237 819 237 800.5 208.5 c 128,-1,32
 782 180 782 180 752 155.5 c 128,-1,33
 722 131 722 131 665 92 c 1,34,-1
 816 92 l 1,35,-1
 816 0 l 1,36,-1
 511 0 l 1,37,-1
 511 86 l 1,38,-1
 564 121 l 2,13,14
EndSplineSet
Ligature2: "'frac' Diagonal Fractions in Latin lookup 7 subtable" one slash two
EndChar
StartChar: threequarters
Encoding: 190 190 252
Width: 940
GlyphClass: 3
Flags: W
LayerCount: 2
Fore
SplineSet
661 668 m 1,0,-1
 795 668 l 1,1,-1
 327 0 l 1,2,-1
 193 0 l 1,3,-1
 661 668 l 1,0,-1
111.5 311 m 128,-1,5
 72 332 72 332 53 371 c 1,6,-1
 149 405 l 1,7,8
 155 388 155 388 171.5 379.5 c 128,-1,9
 188 371 188 371 208 371 c 0,10,11
 231 371 231 371 242.5 380.5 c 128,-1,12
 254 390 254 390 254 405 c 0,13,14
 254 425 254 425 236.5 434 c 128,-1,15
 219 443 219 443 170 443 c 1,16,-1
 170 531 l 1,17,18
 214 531 214 531 230 540.5 c 128,-1,19
 246 550 246 550 246 568 c 0,20,21
 246 582 246 582 233 590 c 128,-1,22
 220 598 220 598 203 598 c 256,23,24
 186 598 186 598 172 590.5 c 128,-1,25
 158 583 158 583 152 568 c 1,26,-1
 58 603 l 1,27,28
 76 640 76 640 115 659.5 c 128,-1,29
 154 679 154 679 211 679 c 0,30,31
 275 679 275 679 315 651.5 c 128,-1,32
 355 624 355 624 355 577 c 0,33,34
 355 548 355 548 341 526 c 128,-1,35
 327 504 327 504 307 494 c 1,36,37
 334 484 334 484 350 460.5 c 128,-1,38
 366 437 366 437 366 404 c 0,39,40
 366 352 366 352 319.5 321 c 128,-1,41
 273 290 273 290 206 290 c 0,42,4
 151 290 151 290 111.5 311 c 128,-1,5
723 72 m 1,43,-1
 543 72 l 1,44,-1
 543 154 l 1,45,-1
 723 375 l 1,46,-1
 830 375 l 1,47,-1
 830 164 l 1,48,-1
 887 164 l 1,49,-1
 887 72 l 1,50,-1
 830 72 l 1,51,-1
 830 0 l 1,52,-1
 723 0 l 1,53,-1
 723 72 l 1,43,-1
723 164 m 1,54,-1
 723 250 l 1,55,-1
 652 164 l 1,56,-1
 723 164 l 1,54,-1
EndSplineSet
Ligature2: "'frac' Diagonal Fractions in Latin lookup 7 subtable" three slash four
EndChar
StartChar: questiondown
Encoding: 191 191 266
Width: 562
GlyphClass: 1
Flags: W
LayerCount: 2
Fore
SplineSet
154 -161.5 m 128,-1,1
 94 -141 94 -141 58 -101 c 128,-1,2
 22 -61 22 -61 22 -5 c 0,3,4
 22 47 22 47 50.5 83 c 128,-1,5
 79 119 79 119 155 154 c 0,6,7
 211 180 211 180 229.5 198.5 c 128,-1,8
 248 217 248 217 248 242 c 2,9,-1
 248 257 l 1,10,-1
 414 257 l 1,11,-1
 414 243 l 2,12,13
 414 175 414 175 385.5 132.5 c 128,-1,14
 357 90 357 90 288 67 c 0,15,16
 236 49 236 49 214.5 33.5 c 128,-1,17
 193 18 193 18 193 -2 c 0,18,19
 193 -23 193 -23 218.5 -37.5 c 128,-1,20
 244 -52 244 -52 286 -52 c 0,21,22
 329 -52 329 -52 364 -34 c 128,-1,23
 399 -16 399 -16 415 18 c 1,24,-1
 562 -37 l 1,25,26
 532 -106 532 -106 459 -144 c 128,-1,27
 386 -182 386 -182 284 -182 c 0,28,0
 214 -182 214 -182 154 -161.5 c 128,-1,1
257.5 333 m 128,-1,30
 227 363 227 363 227 406 c 256,31,32
 227 449 227 449 257.5 479.5 c 128,-1,33
 288 510 288 510 330 510 c 0,34,35
 373 510 373 510 403.5 479.5 c 128,-1,36
 434 449 434 449 434 406 c 256,37,38
 434 363 434 363 404 333 c 128,-1,39
 374 303 374 303 330 303 c 0,40,29
 288 303 288 303 257.5 333 c 128,-1,30
EndSplineSet
EndChar
StartChar: Aring
Encoding: 197 197 10
Width: 702
GlyphClass: 2
Flags: W
AnchorPoint: "Anchor-2" 699 10 basechar 0
AnchorPoint: "Anchor-1" 351 865 basechar 0
AnchorPoint: "Anchor-0" 351 0 basechar 0
LayerCount: 2
Fore
SplineSet
214 728 m 0,1,2
 214 766 214 766 232.5 797.5 c 128,-1,3
 251 829 251 829 282.5 847 c 128,-1,4
 314 865 314 865 351 865 c 256,5,6
 388 865 388 865 419.5 847 c 128,-1,7
 451 829 451 829 469.5 797.5 c 128,-1,8
 488 766 488 766 488 728 c 0,9,10
 488 676 488 676 455 638 c 1,11,-1
 698 0 l 1,12,-1
 512 0 l 1,13,-1
 474 114 l 1,14,-1
 227 114 l 1,15,-1
 190 0 l 1,16,-1
 4 0 l 1,17,-1
 246 639 l 1,18,0
 214 677 214 677 214 728 c 0,1,2
429 251 m 1,19,-1
 350 487 l 1,20,-1
 272 251 l 1,21,-1
 429 251 l 1,19,-1
383.5 695.5 m 128,-1,23
 397 709 397 709 397 728 c 256,24,25
 397 747 397 747 383.5 760.5 c 128,-1,26
 370 774 370 774 351 774 c 256,27,28
 332 774 332 774 318.5 760.5 c 128,-1,29
 305 747 305 747 305 728 c 256,30,31
 305 709 305 709 318.5 695.5 c 128,-1,32
 332 682 332 682 351 682 c 256,33,22
 370 682 370 682 383.5 695.5 c 128,-1,23
EndSplineSet
EndChar
StartChar: AE
Encoding: 198 198 12
Width: 1001
GlyphClass: 2
Flags: W
AnchorPoint: "Anchor-1" 534 668 basechar 0
AnchorPoint: "Anchor-0" 534 0 basechar 0
LayerCount: 2
Fore
SplineSet
372 668 m 1,0,-1
 967 668 l 1,1,-1
 967 518 l 1,2,-1
 642 518 l 1,3,-1
 642 418 l 1,4,-1
 820 418 l 1,5,-1
 820 269 l 1,6,-1
 642 269 l 1,7,-1
 642 150 l 1,8,-1
 967 150 l 1,9,-1
 967 0 l 1,10,-1
 472 0 l 1,11,-1
 472 114 l 1,12,-1
 251 114 l 1,13,-1
 190 0 l 1,14,-1
 0 0 l 1,15,-1
 372 668 l 1,0,-1
472 251 m 1,16,-1
 472 529 l 1,17,-1
 324 251 l 1,18,-1
 472 251 l 1,16,-1
EndSplineSet
EndChar
StartChar: Ccedilla
Encoding: 199 199 17
Width: 665
GlyphClass: 2
Flags: W
AnchorPoint: "Anchor-1" 370 668 basechar 0
LayerCount: 2
Fore
SplineSet
269 -176 m 1,1,-1
 285 -124 l 1,2,3
 293 -128 293 -128 311 -132 c 128,-1,4
 329 -136 329 -136 347 -136 c 0,5,6
 390 -136 390 -136 390 -111 c 0,7,8
 390 -99 390 -99 379.5 -92 c 128,-1,9
 369 -85 369 -85 352 -85 c 0,10,11
 341 -85 341 -85 326 -90 c 2,12,-1
 318 -91 l 2,13,14
 309 -91 309 -91 303 -85.5 c 128,-1,15
 297 -80 297 -80 297 -71 c 0,16,17
 297 -64 297 -64 301 -59 c 2,18,-1
 331 -11 l 1,19,20
 189 0 189 0 108.5 91.5 c 128,-1,21
 28 183 28 183 28 334 c 0,22,23
 28 439 28 439 70 517 c 128,-1,24
 112 595 112 595 189.5 637.5 c 128,-1,25
 267 680 267 680 371 680 c 0,26,27
 465 680 465 680 537 638.5 c 128,-1,28
 609 597 609 597 649 524 c 1,29,-1
 498 469 l 1,30,31
 477 506 477 506 441.5 523 c 128,-1,32
 406 540 406 540 366 540 c 0,33,34
 322 540 322 540 286 515 c 128,-1,35
 250 490 250 490 229.5 443.5 c 128,-1,36
 209 397 209 397 209 334 c 0,37,38
 209 236 209 236 253.5 182 c 128,-1,39
 298 128 298 128 368 128 c 0,40,41
 409 128 409 128 446 143.5 c 128,-1,42
 483 159 483 159 504 198 c 1,43,-1
 653 143 l 1,44,45
 613 75 613 75 544.5 34 c 128,-1,46
 476 -7 476 -7 389 -11 c 1,47,-1
 366 -49 l 1,48,49
 378 -46 378 -46 400 -46 c 0,50,51
 435 -46 435 -46 462.5 -60.5 c 128,-1,52
 490 -75 490 -75 490 -108 c 0,53,54
 490 -151 490 -151 451.5 -169.5 c 128,-1,55
 413 -188 413 -188 357 -188 c 0,56,0
 308 -188 308 -188 269 -176 c 1,1,-1
EndSplineSet
EndChar
StartChar: multiply
Encoding: 215 215 322
Width: 543
GlyphClass: 1
Flags: W
LayerCount: 2
Fore
SplineSet
43 115 m 1,0,-1
 176 248 l 1,1,-1
 40 381 l 1,2,-1
 137 479 l 1,3,-1
 272 342 l 1,4,-1
 406 479 l 1,5,-1
 503 381 l 1,6,-1
 367 248 l 1,7,-1
 500 115 l 1,8,-1
 402 19 l 1,9,-1
 272 151 l 1,10,-1
 141 19 l 1,11,-1
 43 115 l 1,0,-1
EndSplineSet
EndChar
StartChar: Oslash
Encoding: 216 216 68
Width: 756
GlyphClass: 2
Flags: W
AnchorPoint: "Anchor-3" 740 668 basechar 0
AnchorPoint: "Anchor-1" 378 668 basechar 0
AnchorPoint: "Anchor-0" 378 0 basechar 0
LayerCount: 2
Fore
SplineSet
177 42 m 1,1,-1
 130 -13 l 1,2,-1
 71 38 l 1,3,-1
 117 91 l 1,4,5
 74 137 74 137 51 199 c 128,-1,6
 28 261 28 261 28 334 c 0,7,8
 28 437 28 437 72.5 515.5 c 128,-1,9
 117 594 117 594 196.5 637 c 128,-1,10
 276 680 276 680 378 680 c 0,11,12
 493 680 493 680 578 626 c 1,13,-1
 624 680 l 1,14,-1
 684 629 l 1,15,-1
 639 577 l 1,16,17
 682 531 682 531 705 469.5 c 128,-1,18
 728 408 728 408 728 334 c 0,19,20
 728 231 728 231 683.5 152.5 c 128,-1,21
 639 74 639 74 559.5 31 c 128,-1,22
 480 -12 480 -12 378 -12 c 0,23,0
 263 -12 263 -12 177 42 c 1,1,-1
463 151.5 m 128,-1,25
 501 175 501 175 523.5 221.5 c 128,-1,26
 546 268 546 268 546 334 c 0,27,28
 546 396 546 396 525 444 c 1,29,-1
 280 161 l 1,30,31
 322 128 322 128 378 128 c 0,32,24
 425 128 425 128 463 151.5 c 128,-1,25
231 224 m 1,34,-1
 476 508 l 1,35,36
 433 540 433 540 378 540 c 0,37,38
 331 540 331 540 293 516.5 c 128,-1,39
 255 493 255 493 232.5 446.5 c 128,-1,40
 210 400 210 400 210 334 c 0,41,33
 210 272 210 272 231 224 c 1,34,-1
EndSplineSet
EndChar
StartChar: Thorn
Encoding: 222 222 72
Width: 647
GlyphClass: 2
Flags: W
AnchorPoint: "Anchor-1" 332 668 basechar 0
AnchorPoint: "Anchor-0" 332 0 basechar 0
LayerCount: 2
Fore
SplineSet
54 668 m 1,0,-1
 224 668 l 1,1,-1
 224 564 l 1,2,-1
 361 564 l 2,3,4
 478 564 478 564 553.5 508 c 128,-1,5
 629 452 629 452 629 341 c 256,6,7
 629 230 629 230 553.5 174.5 c 128,-1,8
 478 119 478 119 361 119 c 2,9,-1
 224 119 l 1,10,-1
 224 0 l 1,11,-1
 54 0 l 1,12,-1
 54 668 l 1,0,-1
424.5 282 m 128,-1,14
 450 301 450 301 450 341 c 256,15,16
 450 381 450 381 424.5 400.5 c 128,-1,17
 399 420 399 420 358 420 c 2,18,-1
 224 420 l 1,19,-1
 224 263 l 1,20,-1
 358 263 l 2,21,13
 399 263 399 263 424.5 282 c 128,-1,14
EndSplineSet
EndChar
StartChar: germandbls
Encoding: 223 223 193
Width: 640
GlyphClass: 1
Flags: W
LayerCount: 2
Fore
SplineSet
341 122 m 0,1,2
 389 122 389 122 421 143 c 128,-1,3
 453 164 453 164 453 212 c 0,4,5
 453 268 453 268 413 295 c 128,-1,6
 373 322 373 322 306 322 c 2,7,-1
 293 322 l 1,8,-1
 293 450 l 1,9,10
 344 448 344 448 367 461 c 128,-1,11
 390 474 390 474 390 503 c 0,12,13
 390 529 390 529 371 544 c 128,-1,14
 352 559 352 559 311 559 c 0,15,16
 257 559 257 559 238 533.5 c 128,-1,17
 219 508 219 508 219 452 c 2,18,-1
 219 0 l 1,19,-1
 54 0 l 1,20,-1
 54 459 l 2,21,22
 54 580 54 580 119 630 c 128,-1,23
 184 680 184 680 307 680 c 0,24,25
 404 680 404 680 465 635.5 c 128,-1,26
 526 591 526 591 526 508 c 0,27,28
 526 475 526 475 513.5 447.5 c 128,-1,29
 501 420 501 420 485 401 c 1,30,31
 545 384 545 384 583 331.5 c 128,-1,32
 621 279 621 279 621 208 c 0,33,34
 621 95 621 95 552.5 41 c 128,-1,35
 484 -13 484 -13 373 -13 c 0,36,37
 344 -13 344 -13 306 -8 c 1,38,-1
 263 134 l 1,39,0
 301 122 301 122 341 122 c 0,1,2
EndSplineSet
EndChar
StartChar: ae
Encoding: 230 230 122
Width: 883
GlyphClass: 2
Flags: W
AnchorPoint: "Anchor-1" 441 496 basechar 0
AnchorPoint: "Anchor-0" 441 0 basechar 0
LayerCount: 2
Fore
SplineSet
113.5 6 m 128,-1,1
 70 24 70 24 45 57.5 c 128,-1,2
 20 91 20 91 20 135 c 0,3,4
 20 217 20 217 102.5 259.5 c 128,-1,5
 185 302 185 302 351 303 c 1,6,-1
 351 328 l 2,7,8
 351 367 351 367 330 384 c 128,-1,9
 309 401 309 401 269 401 c 0,10,11
 239 401 239 401 217 387 c 128,-1,12
 195 373 195 373 188 346 c 1,13,-1
 51 396 l 1,14,15
 77 447 77 447 136.5 479 c 128,-1,16
 196 511 196 511 279 511 c 0,17,18
 391 511 391 511 442 456 c 1,19,20
 511 511 511 511 604 511 c 0,21,22
 685 511 685 511 745.5 473 c 128,-1,23
 806 435 806 435 837 366 c 128,-1,24
 868 297 868 297 863 207 c 1,25,-1
 497 207 l 1,26,27
 505 161 505 161 533.5 137.5 c 128,-1,28
 562 114 562 114 606 114 c 0,29,30
 639 114 639 114 664 123.5 c 128,-1,31
 689 133 689 133 703 149 c 1,32,-1
 832 101 l 1,33,34
 793 45 793 45 733.5 16.5 c 128,-1,35
 674 -12 674 -12 611 -12 c 0,36,37
 545 -12 545 -12 493 8.5 c 128,-1,38
 441 29 441 29 407 68 c 1,39,40
 379 31 379 31 329.5 9.5 c 128,-1,41
 280 -12 280 -12 209 -12 c 0,42,0
 157 -12 157 -12 113.5 6 c 128,-1,1
324.5 123 m 128,-1,44
 350 146 350 146 350 203 c 2,45,-1
 350 208 l 1,46,47
 285 208 285 208 250 201 c 128,-1,48
 215 194 215 194 202 181 c 128,-1,49
 189 168 189 168 189 147 c 256,50,51
 189 126 189 126 206.5 113 c 128,-1,52
 224 100 224 100 252 100 c 0,53,43
 299 100 299 100 324.5 123 c 128,-1,44
681.5 368 m 128,-1,55
 652 390 652 390 609 390 c 0,56,57
 517 390 517 390 498 301 c 1,58,-1
 712 301 l 1,59,54
 711 346 711 346 681.5 368 c 128,-1,55
EndSplineSet
EndChar
StartChar: ccedilla
Encoding: 231 231 127
Width: 523
GlyphClass: 2
Flags: W
AnchorPoint: "Anchor-1" 297 496 basechar 0
LayerCount: 2
Fore
SplineSet
187 -176 m 1,1,-1
 203 -124 l 1,2,3
 211 -128 211 -128 229 -132 c 128,-1,4
 247 -136 247 -136 265 -136 c 0,5,6
 308 -136 308 -136 308 -111 c 0,7,8
 308 -99 308 -99 297.5 -92 c 128,-1,9
 287 -85 287 -85 270 -85 c 0,10,11
 259 -85 259 -85 244 -90 c 2,12,-1
 236 -91 l 2,13,14
 227 -91 227 -91 221 -85.5 c 128,-1,15
 215 -80 215 -80 215 -71 c 0,16,17
 215 -64 215 -64 219 -59 c 2,18,-1
 249 -10 l 1,19,20
 143 0 143 0 85.5 70.5 c 128,-1,21
 28 141 28 141 28 252 c 0,22,23
 28 329 28 329 60 388 c 128,-1,24
 92 447 92 447 150.5 479 c 128,-1,25
 209 511 209 511 284 511 c 0,26,27
 357 511 357 511 419 480.5 c 128,-1,28
 481 450 481 450 515 378 c 1,29,-1
 379 328 l 1,30,31
 359 385 359 385 296 385 c 0,32,33
 253 385 253 385 224 353 c 128,-1,34
 195 321 195 321 195 251 c 0,35,36
 195 178 195 178 224 146 c 128,-1,37
 253 114 253 114 296 114 c 0,38,39
 353 114 353 114 380 158 c 1,40,-1
 512 110 l 1,41,42
 479 50 479 50 424 21 c 128,-1,43
 369 -8 369 -8 307 -11 c 1,44,-1
 284 -49 l 1,45,46
 296 -46 296 -46 318 -46 c 0,47,48
 353 -46 353 -46 380.5 -60.5 c 128,-1,49
 408 -75 408 -75 408 -108 c 0,50,51
 408 -151 408 -151 369.5 -169.5 c 128,-1,52
 331 -188 331 -188 275 -188 c 0,53,0
 226 -188 226 -188 187 -176 c 1,1,-1
EndSplineSet
EndChar
StartChar: eth
Encoding: 240 240 132
Width: 599
GlyphClass: 2
Flags: W
AnchorPoint: "Anchor-1" 301 796 basechar 0
AnchorPoint: "Anchor-0" 301 0 basechar 0
LayerCount: 2
Fore
SplineSet
157.5 16 m 128,-1,1
 97 44 97 44 62.5 96.5 c 128,-1,2
 28 149 28 149 28 220 c 0,3,4
 28 286 28 286 60.5 339.5 c 128,-1,5
 93 393 93 393 146 423 c 128,-1,6
 199 453 199 453 259 453 c 0,7,8
 303 453 303 453 335.5 443 c 128,-1,9
 368 433 368 433 396 413 c 1,10,11
 396 495 396 495 336 547 c 1,12,-1
 275 485 l 1,13,-1
 225 534 l 1,14,-1
 275 584 l 1,15,16
 227 604 227 604 167 604 c 1,17,-1
 167 735 l 1,18,19
 292 735 292 735 376 686 c 1,20,-1
 434 744 l 1,21,-1
 484 694 l 1,22,-1
 435 646 l 1,23,24
 492 604 492 604 529.5 518.5 c 128,-1,25
 567 433 567 433 567 321 c 0,26,27
 567 171 567 171 498.5 79.5 c 128,-1,28
 430 -12 430 -12 295 -12 c 0,29,0
 218 -12 218 -12 157.5 16 c 128,-1,1
367.5 139.5 m 128,-1,31
 395 170 395 170 395 221 c 256,32,33
 395 272 395 272 367.5 302 c 128,-1,34
 340 332 340 332 295 332 c 0,35,36
 249 332 249 332 222.5 301.5 c 128,-1,37
 196 271 196 271 196 221 c 0,38,39
 196 170 196 170 222.5 139.5 c 128,-1,40
 249 109 249 109 295 109 c 0,41,30
 340 109 340 109 367.5 139.5 c 128,-1,31
EndSplineSet
EndChar
StartChar: divide
Encoding: 247 247 323
Width: 595
GlyphClass: 1
Flags: W
LayerCount: 2
Fore
SplineSet
40 317 m 1,0,-1
 555 317 l 1,1,-1
 555 179 l 1,2,-1
 40 179 l 1,3,-1
 40 317 l 1,0,-1
239 7.5 m 128,-1,5
 215 32 215 32 215 66 c 0,6,7
 215 99 215 99 239 123.5 c 128,-1,8
 263 148 263 148 296 148 c 0,9,10
 330 148 330 148 354 123.5 c 128,-1,11
 378 99 378 99 378 66 c 0,12,13
 378 32 378 32 354 7.5 c 128,-1,14
 330 -17 330 -17 296 -17 c 0,15,4
 263 -17 263 -17 239 7.5 c 128,-1,5
239 372.5 m 128,-1,17
 215 397 215 397 215 431 c 256,18,19
 215 465 215 465 239 489 c 128,-1,20
 263 513 263 513 296 513 c 0,21,22
 330 513 330 513 354 489 c 128,-1,23
 378 465 378 465 378 431 c 256,24,25
 378 397 378 397 354 372.5 c 128,-1,26
 330 348 330 348 296 348 c 0,27,16
 263 348 263 348 239 372.5 c 128,-1,17
EndSplineSet
EndChar
StartChar: oslash
Encoding: 248 248 179
Width: 590
GlyphClass: 2
Flags: W
AnchorPoint: "Anchor-3" 563 496 basechar 0
AnchorPoint: "Anchor-1" 295 496 basechar 0
AnchorPoint: "Anchor-0" 295 0 basechar 0
LayerCount: 2
Fore
SplineSet
151 23 m 1,1,-1
 105 -30 l 1,2,-1
 46 21 l 1,3,-1
 90 72 l 1,4,5
 28 141 28 141 28 251 c 0,6,7
 28 337 28 337 64.5 395.5 c 128,-1,8
 101 454 101 454 161.5 482.5 c 128,-1,9
 222 511 222 511 295 511 c 0,10,11
 377 511 377 511 440 476 c 1,12,-1
 483 526 l 1,13,-1
 542 475 l 1,14,-1
 501 428 l 1,15,16
 562 361 562 361 562 251 c 0,17,18
 562 165 562 165 525.5 106 c 128,-1,19
 489 47 489 47 428.5 17.5 c 128,-1,20
 368 -12 368 -12 295 -12 c 0,21,0
 212 -12 212 -12 151 23 c 1,1,-1
367.5 149 m 128,-1,23
 394 184 394 184 394 251 c 0,24,25
 394 276 394 276 389 299 c 1,26,-1
 243 129 l 1,27,28
 266 114 266 114 295 114 c 0,29,22
 341 114 341 114 367.5 149 c 128,-1,23
201 200 m 1,31,-1
 348 369 l 1,32,33
 326 385 326 385 295 385 c 0,34,35
 250 385 250 385 223 351 c 128,-1,36
 196 317 196 317 196 251 c 0,37,30
 196 225 196 225 201 200 c 1,31,-1
EndSplineSet
EndChar
StartChar: thorn
Encoding: 254 254 183
Width: 613
GlyphClass: 2
Flags: W
AnchorPoint: "Anchor-1" 306 496 basechar 0
AnchorPoint: "Anchor-0" 306 0 basechar 0
LayerCount: 2
Fore
SplineSet
51 708 m 1,0,-1
 216 708 l 1,1,-1
 216 430 l 1,2,3
 239 468 239 468 282.5 489.5 c 128,-1,4
 326 511 326 511 365 511 c 0,5,6
 430 511 430 511 480 478.5 c 128,-1,7
 530 446 530 446 557.5 386 c 128,-1,8
 585 326 585 326 585 247 c 0,9,10
 585 167 585 167 557.5 108.5 c 128,-1,11
 530 50 530 50 480 19 c 128,-1,12
 430 -12 430 -12 365 -12 c 0,13,14
 326 -12 326 -12 282.5 9.5 c 128,-1,15
 239 31 239 31 216 69 c 1,16,-1
 216 -162 l 1,17,-1
 51 -162 l 1,18,-1
 51 708 l 1,0,-1
385.5 150 m 128,-1,20
 415 185 415 185 415 247 c 256,21,22
 415 309 415 309 385 346.5 c 128,-1,23
 355 384 355 384 312 384 c 0,24,25
 266 384 266 384 237 352.5 c 128,-1,26
 208 321 208 321 208 252 c 0,27,28
 208 182 208 182 237.5 148.5 c 128,-1,29
 267 115 267 115 312 115 c 0,30,19
 356 115 356 115 385.5 150 c 128,-1,20
EndSplineSet
EndChar
StartChar: Aogonek
Encoding: 260 260 9
Width: 702
GlyphClass: 2
Flags: W
AnchorPoint: "Anchor-1" 351 668 basechar 0
AnchorPoint: "Anchor-0" 351 0 basechar 0
LayerCount: 2
Fore
SplineSet
501 -147.5 m 128,-1,1
 466 -119 466 -119 466 -84 c 0,2,3
 466 -56 466 -56 484 -35 c 128,-1,4
 502 -14 502 -14 531 0 c 1,5,-1
 512 0 l 1,6,-1
 474 114 l 1,7,-1
 227 114 l 1,8,-1
 190 0 l 1,9,-1
 4 0 l 1,10,-1
 257 668 l 1,11,-1
 444 668 l 1,12,-1
 699 0 l 1,13,14
 669 -2 669 -2 636 -21.5 c 128,-1,15
 603 -41 603 -41 603 -65 c 0,16,17
 603 -81 603 -81 616.5 -88 c 128,-1,18
 630 -95 630 -95 648 -95 c 0,19,20
 661 -95 661 -95 676 -91.5 c 128,-1,21
 691 -88 691 -88 699 -86 c 1,22,-1
 699 -167 l 1,23,24
 688 -170 688 -170 662 -173 c 128,-1,25
 636 -176 636 -176 617 -176 c 0,26,0
 536 -176 536 -176 501 -147.5 c 128,-1,1
429 251 m 1,27,-1
 350 487 l 1,28,-1
 272 251 l 1,29,-1
 429 251 l 1,27,-1
EndSplineSet
EndChar
StartChar: aogonek
Encoding: 261 261 119
Width: 561
GlyphClass: 2
Flags: W
AnchorPoint: "Anchor-1" 280 496 basechar 0
AnchorPoint: "Anchor-0" 280 0 basechar 0
LayerCount: 2
Fore
SplineSet
330 -147.5 m 128,-1,1
 295 -119 295 -119 295 -84 c 0,2,3
 295 -25 295 -25 370 9 c 1,4,-1
 356 59 l 1,5,6
 331 20 331 20 290.5 4 c 128,-1,7
 250 -12 250 -12 196 -12 c 0,8,9
 118 -12 118 -12 69 28 c 128,-1,10
 20 68 20 68 20 134 c 0,11,12
 20 220 20 220 105 262.5 c 128,-1,13
 190 305 190 305 352 314 c 1,14,-1
 352 328 l 2,15,16
 352 366 352 366 331 383 c 128,-1,17
 310 400 310 400 270 400 c 0,18,19
 241 400 241 400 218 385 c 128,-1,20
 195 370 195 370 188 346 c 1,21,-1
 48 394 l 1,22,23
 74 446 74 446 134.5 478.5 c 128,-1,24
 195 511 195 511 279 511 c 0,25,26
 391 511 391 511 451 462 c 128,-1,27
 511 413 511 413 511 312 c 2,28,-1
 511 185 l 2,29,30
 511 132 511 132 515.5 80.5 c 128,-1,31
 520 29 520 29 528 0 c 1,32,33
 479 -9 479 -9 455 -27 c 128,-1,34
 431 -45 431 -45 431 -65 c 0,35,36
 431 -81 431 -81 444.5 -88 c 128,-1,37
 458 -95 458 -95 477 -95 c 0,38,39
 499 -95 499 -95 528 -86 c 1,40,-1
 528 -167 l 1,41,42
 517 -170 517 -170 491 -173 c 128,-1,43
 465 -176 465 -176 446 -176 c 0,44,0
 365 -176 365 -176 330 -147.5 c 128,-1,1
327 122.5 m 128,-1,46
 352 146 352 146 352 204 c 2,47,-1
 352 217 l 1,48,49
 266 212 266 212 229.5 194.5 c 128,-1,50
 193 177 193 177 193 148 c 0,51,52
 193 126 193 126 210 112.5 c 128,-1,53
 227 99 227 99 254 99 c 0,54,45
 302 99 302 99 327 122.5 c 128,-1,46
EndSplineSet
EndChar
StartChar: Dcroat
Encoding: 272 272 21
Width: 720
GlyphClass: 1
Flags: W
LayerCount: 2
Fore
SplineSet
74 274 m 1,0,-1
 8 274 l 1,1,-1
 8 413 l 1,2,-1
 74 413 l 1,3,-1
 74 668 l 1,4,-1
 301 668 l 2,5,6
 485 668 485 668 588.5 588.5 c 128,-1,7
 692 509 692 509 692 334 c 0,8,9
 692 0 692 0 301 0 c 2,10,-1
 74 0 l 1,11,-1
 74 274 l 1,0,-1
462 183.5 m 128,-1,13
 517 224 517 224 517 334 c 256,14,15
 517 444 517 444 462 485.5 c 128,-1,16
 407 527 407 527 305 527 c 2,17,-1
 244 527 l 1,18,-1
 244 413 l 1,19,-1
 371 413 l 1,20,-1
 371 274 l 1,21,-1
 244 274 l 1,22,-1
 244 143 l 1,23,-1
 305 143 l 2,24,12
 407 143 407 143 462 183.5 c 128,-1,13
EndSplineSet
EndChar
StartChar: dcroat
Encoding: 273 273 131
Width: 612
GlyphClass: 1
Flags: W
LayerCount: 2
Fore
SplineSet
133 20.5 m 128,-1,1
 83 53 83 53 55.5 113.5 c 128,-1,2
 28 174 28 174 28 253 c 0,3,4
 28 333 28 333 55.5 391 c 128,-1,5
 83 449 83 449 133 480 c 128,-1,6
 183 511 183 511 248 511 c 0,7,8
 289 511 289 511 331.5 490 c 128,-1,9
 374 469 374 469 397 430 c 1,10,-1
 397 544 l 1,11,-1
 261 544 l 1,12,-1
 261 624 l 1,13,-1
 397 624 l 1,14,-1
 397 708 l 1,15,-1
 562 708 l 1,16,-1
 562 624 l 1,17,-1
 637 624 l 1,18,-1
 637 544 l 1,19,-1
 562 544 l 1,20,-1
 562 195 l 2,21,22
 562 85 562 85 579 0 c 1,23,-1
 421 0 l 1,24,-1
 402 63 l 1,25,26
 370 24 370 24 329 6 c 128,-1,27
 288 -12 288 -12 248 -12 c 0,28,0
 183 -12 183 -12 133 20.5 c 128,-1,1
376 147 m 128,-1,30
 405 179 405 179 405 250 c 0,31,32
 405 319 405 319 376 352 c 128,-1,33
 347 385 347 385 302 385 c 0,34,35
 258 385 258 385 228 350.5 c 128,-1,36
 198 316 198 316 198 253 c 256,37,38
 198 190 198 190 228 152.5 c 128,-1,39
 258 115 258 115 302 115 c 0,40,29
 347 115 347 115 376 147 c 128,-1,30
EndSplineSet
EndChar
StartChar: Eogonek
Encoding: 280 280 31
Width: 613
GlyphClass: 2
Flags: W
AnchorPoint: "Anchor-1" 291 668 basechar 0
AnchorPoint: "Anchor-0" 307 0 basechar 0
LayerCount: 2
Fore
SplineSet
54 668 m 1,0,-1
 575 668 l 1,1,-1
 575 518 l 1,2,-1
 224 518 l 1,3,-1
 224 418 l 1,4,-1
 432 418 l 1,5,-1
 432 269 l 1,6,-1
 224 269 l 1,7,-1
 224 150 l 1,8,-1
 579 150 l 1,9,-1
 579 0 l 1,10,11
 549 -2 549 -2 516 -21.5 c 128,-1,12
 483 -41 483 -41 483 -65 c 0,13,14
 483 -81 483 -81 496.5 -88 c 128,-1,15
 510 -95 510 -95 528 -95 c 0,16,17
 541 -95 541 -95 556 -91.5 c 128,-1,18
 571 -88 571 -88 579 -86 c 1,19,-1
 579 -167 l 1,20,21
 568 -170 568 -170 542 -173 c 128,-1,22
 516 -176 516 -176 497 -176 c 0,23,24
 416 -176 416 -176 381 -147.5 c 128,-1,25
 346 -119 346 -119 346 -84 c 0,26,27
 346 -56 346 -56 364 -35 c 128,-1,28
 382 -14 382 -14 411 0 c 1,29,-1
 54 0 l 1,30,-1
 54 668 l 1,0,-1
EndSplineSet
EndChar
StartChar: eogonek
Encoding: 281 281 141
Width: 576
GlyphClass: 2
Flags: W
AnchorPoint: "Anchor-1" 305 496 basechar 0
AnchorPoint: "Anchor-0" 292 0 basechar 0
LayerCount: 2
Fore
SplineSet
284 -146 m 128,-1,1
 249 -118 249 -118 249 -72 c 0,2,3
 249 -38 249 -38 269 -10 c 1,4,5
 159 0 159 0 93.5 69 c 128,-1,6
 28 138 28 138 28 252 c 0,7,8
 28 329 28 329 64.5 388 c 128,-1,9
 101 447 101 447 162.5 479 c 128,-1,10
 224 511 224 511 298 511 c 0,11,12
 374 511 374 511 433 477 c 128,-1,13
 492 443 492 443 524.5 380.5 c 128,-1,14
 557 318 557 318 557 236 c 0,15,16
 557 216 557 216 556 205 c 1,17,-1
 188 205 l 1,18,19
 199 161 199 161 229 137.5 c 128,-1,20
 259 114 259 114 300 114 c 0,21,22
 333 114 333 114 358 123.5 c 128,-1,23
 383 133 383 133 397 149 c 1,24,-1
 526 101 l 1,25,26
 497 61 497 61 445 26 c 0,27,28
 385 -13 385 -13 385 -56 c 0,29,30
 385 -95 385 -95 431 -95 c 0,31,32
 444 -95 444 -95 459 -91.5 c 128,-1,33
 474 -88 474 -88 482 -86 c 1,34,-1
 482 -165 l 1,35,36
 471 -168 471 -168 445 -171 c 128,-1,37
 419 -174 419 -174 400 -174 c 0,38,0
 319 -174 319 -174 284 -146 c 128,-1,1
374 368 m 128,-1,40
 346 390 346 390 303 390 c 0,41,42
 259 390 259 390 228 368.5 c 128,-1,43
 197 347 197 347 187 301 c 1,44,-1
 406 301 l 1,45,39
 402 346 402 346 374 368 c 128,-1,40
EndSplineSet
EndChar
StartChar: Hbar
Encoding: 294 294 38
Width: 709
GlyphClass: 1
Flags: W
LayerCount: 2
Fore
SplineSet
54 498 m 1,0,-1
 14 498 l 1,1,-1
 14 594 l 1,2,-1
 54 594 l 1,3,-1
 54 668 l 1,4,-1
 224 668 l 1,5,-1
 224 594 l 1,6,-1
 485 594 l 1,7,-1
 485 668 l 1,8,-1
 655 668 l 1,9,-1
 655 594 l 1,10,-1
 695 594 l 1,11,-1
 695 498 l 1,12,-1
 655 498 l 1,13,-1
 655 0 l 1,14,-1
 485 0 l 1,15,-1
 485 268 l 1,16,-1
 224 268 l 1,17,-1
 224 0 l 1,18,-1
 54 0 l 1,19,-1
 54 498 l 1,0,-1
485 418 m 1,20,-1
 485 498 l 1,21,-1
 224 498 l 1,22,-1
 224 418 l 1,23,-1
 485 418 l 1,20,-1
EndSplineSet
EndChar
StartChar: hbar
Encoding: 295 295 148
Width: 585
GlyphClass: 1
Flags: W
LayerCount: 2
Fore
SplineSet
51 544 m 1,0,-1
 -24 544 l 1,1,-1
 -24 624 l 1,2,-1
 51 624 l 1,3,-1
 51 708 l 1,4,-1
 216 708 l 1,5,-1
 216 624 l 1,6,-1
 352 624 l 1,7,-1
 352 544 l 1,8,-1
 216 544 l 1,9,-1
 216 432 l 1,10,11
 234 462 234 462 275.5 486.5 c 128,-1,12
 317 511 317 511 369 511 c 0,13,14
 458 511 458 511 498 462.5 c 128,-1,15
 538 414 538 414 538 318 c 2,16,-1
 538 0 l 1,17,-1
 373 0 l 1,18,-1
 373 283 l 2,19,20
 373 336 373 336 356 360.5 c 128,-1,21
 339 385 339 385 302 385 c 0,22,23
 257 385 257 385 236.5 352 c 128,-1,24
 216 319 216 319 216 252 c 2,25,-1
 216 0 l 1,26,-1
 51 0 l 1,27,-1
 51 544 l 1,0,-1
EndSplineSet
EndChar
StartChar: Iogonek
Encoding: 302 302 47
Width: 434
GlyphClass: 2
Flags: W
AnchorPoint: "Anchor-1" 217 668 basechar 0
AnchorPoint: "Anchor-0" 217 0 basechar 0
LayerCount: 2
Fore
SplineSet
40 124 m 1,0,-1
 132 124 l 1,1,-1
 132 544 l 1,2,-1
 40 544 l 1,3,-1
 40 668 l 1,4,-1
 394 668 l 1,5,-1
 394 544 l 1,6,-1
 302 544 l 1,7,-1
 302 124 l 1,8,-1
 394 124 l 1,9,-1
 394 0 l 1,10,11
 364 -2 364 -2 331 -21.5 c 128,-1,12
 298 -41 298 -41 298 -65 c 0,13,14
 298 -81 298 -81 311.5 -88 c 128,-1,15
 325 -95 325 -95 343 -95 c 0,16,17
 356 -95 356 -95 371 -91.5 c 128,-1,18
 386 -88 386 -88 394 -86 c 1,19,-1
 394 -167 l 1,20,21
 383 -170 383 -170 357 -173 c 128,-1,22
 331 -176 331 -176 312 -176 c 0,23,24
 231 -176 231 -176 196 -147.5 c 128,-1,25
 161 -119 161 -119 161 -84 c 0,26,27
 161 -56 161 -56 179 -35 c 128,-1,28
 197 -14 197 -14 226 0 c 1,29,-1
 40 0 l 1,30,-1
 40 124 l 1,0,-1
EndSplineSet
EndChar
StartChar: iogonek
Encoding: 303 303 156
Width: 326
GlyphClass: 2
Flags: W
AnchorPoint: "Anchor-1" 181 766 basechar 0
AnchorPoint: "Anchor-0" 140 0 basechar 0
LayerCount: 2
Fore
SplineSet
113.5 603.5 m 128,-1,1
 86 631 86 631 86 671 c 256,2,3
 86 711 86 711 113.5 738.5 c 128,-1,4
 141 766 141 766 181 766 c 256,5,6
 221 766 221 766 248.5 738.5 c 128,-1,7
 276 711 276 711 276 671 c 256,8,9
 276 631 276 631 248.5 603.5 c 128,-1,10
 221 576 221 576 181 576 c 256,11,0
 141 576 141 576 113.5 603.5 c 128,-1,1
75 -147.5 m 128,-1,13
 40 -119 40 -119 40 -84 c 0,14,15
 40 -29 40 -29 107 5 c 1,16,-1
 107 372 l 1,17,-1
 21 372 l 1,18,-1
 21 496 l 1,19,-1
 273 496 l 1,20,-1
 273 0 l 1,21,22
 224 -9 224 -9 200 -27 c 128,-1,23
 176 -45 176 -45 176 -65 c 0,24,25
 176 -81 176 -81 189.5 -88 c 128,-1,26
 203 -95 203 -95 222 -95 c 0,27,28
 244 -95 244 -95 273 -86 c 1,29,-1
 273 -167 l 1,30,31
 262 -170 262 -170 236 -173 c 128,-1,32
 210 -176 210 -176 191 -176 c 0,33,12
 110 -176 110 -176 75 -147.5 c 128,-1,13
EndSplineSet
EndChar
StartChar: dotlessi
Encoding: 305 305 150
Width: 326
GlyphClass: 2
Flags: W
AnchorPoint: "Anchor-2" 273 10 basechar 0
AnchorPoint: "Anchor-1" 181 496 basechar 0
AnchorPoint: "Anchor-0" 140 0 basechar 0
LayerCount: 2
Fore
SplineSet
107 372 m 1,0,-1
 21 372 l 1,1,-1
 21 496 l 1,2,-1
 273 496 l 1,3,-1
 273 0 l 1,4,-1
 107 0 l 1,5,-1
 107 372 l 1,0,-1
EndSplineSet
EndChar
StartChar: Lslash
Encoding: 321 321 55
Width: 588
GlyphClass: 1
Flags: W
LayerCount: 2
Fore
SplineSet
84 224 m 1,0,-1
 13 182 l 1,1,-1
 13 309 l 1,2,-1
 84 352 l 1,3,-1
 84 668 l 1,4,-1
 254 668 l 1,5,-1
 254 454 l 1,6,-1
 404 544 l 1,7,-1
 404 416 l 1,8,-1
 254 326 l 1,9,-1
 254 150 l 1,10,-1
 567 150 l 1,11,-1
 567 0 l 1,12,-1
 84 0 l 1,13,-1
 84 224 l 1,0,-1
EndSplineSet
EndChar
StartChar: lslash
Encoding: 322 322 166
Width: 375
GlyphClass: 1
Flags: W
LayerCount: 2
Fore
SplineSet
137 11 m 128,-1,1
 101 22 101 22 84.5 53 c 128,-1,2
 68 84 68 84 68 145 c 2,3,-1
 68 250 l 1,4,-1
 29 229 l 1,5,-1
 29 352 l 1,6,-1
 68 373 l 1,7,-1
 68 708 l 1,8,-1
 234 708 l 1,9,-1
 234 462 l 1,10,-1
 339 519 l 1,11,-1
 339 396 l 1,12,-1
 234 339 l 1,13,-1
 234 197 l 2,14,15
 234 168 234 168 239 155 c 128,-1,16
 244 142 244 142 257.5 137 c 128,-1,17
 271 132 271 132 300 132 c 2,18,-1
 347 132 l 1,19,-1
 347 0 l 1,20,-1
 240 0 l 2,21,0
 173 0 173 0 137 11 c 128,-1,1
EndSplineSet
EndChar
StartChar: OE
Encoding: 338 338 70
Width: 1034
GlyphClass: 2
Flags: W
AnchorPoint: "Anchor-1" 522 668 basechar 0
AnchorPoint: "Anchor-0" 522 0 basechar 0
LayerCount: 2
Fore
SplineSet
186.5 31 m 128,-1,1
 112 74 112 74 70 152.5 c 128,-1,2
 28 231 28 231 28 334 c 256,3,4
 28 437 28 437 70 515.5 c 128,-1,5
 112 594 112 594 186.5 637 c 128,-1,6
 261 680 261 680 355 680 c 0,7,8
 444 680 444 680 512 639 c 1,9,-1
 512 668 l 1,10,-1
 996 668 l 1,11,-1
 996 518 l 1,12,-1
 670 518 l 1,13,-1
 670 418 l 1,14,-1
 852 418 l 1,15,-1
 852 269 l 1,16,-1
 670 269 l 1,17,-1
 670 150 l 1,18,-1
 1000 150 l 1,19,-1
 1000 0 l 1,20,-1
 512 0 l 1,21,-1
 512 29 l 1,22,23
 444 -12 444 -12 355 -12 c 0,24,0
 261 -12 261 -12 186.5 31 c 128,-1,1
470 177.5 m 128,-1,26
 512 227 512 227 512 334 c 256,27,28
 512 441 512 441 470 490.5 c 128,-1,29
 428 540 428 540 361 540 c 256,30,31
 294 540 294 540 252 490.5 c 128,-1,32
 210 441 210 441 210 334 c 256,33,34
 210 227 210 227 252 177.5 c 128,-1,35
 294 128 294 128 361 128 c 256,36,25
 428 128 428 128 470 177.5 c 128,-1,26
EndSplineSet
EndChar
StartChar: oe
Encoding: 339 339 181
Width: 942
GlyphClass: 2
Flags: W
AnchorPoint: "Anchor-1" 584 496 basechar 0
AnchorPoint: "Anchor-0" 584 0 basechar 0
LayerCount: 2
Fore
SplineSet
562 6 m 128,-1,1
 512 24 512 24 477 59 c 1,2,3
 443 24 443 24 395.5 6 c 128,-1,4
 348 -12 348 -12 295 -12 c 0,5,6
 222 -12 222 -12 161.5 17.5 c 128,-1,7
 101 47 101 47 64.5 106 c 128,-1,8
 28 165 28 165 28 251 c 256,9,10
 28 337 28 337 64.5 395.5 c 128,-1,11
 101 454 101 454 161.5 482.5 c 128,-1,12
 222 511 222 511 295 511 c 0,13,14
 349 511 349 511 397 493 c 128,-1,15
 445 475 445 475 479 439 c 1,16,17
 515 474 515 474 562.5 492.5 c 128,-1,18
 610 511 610 511 664 511 c 0,19,20
 740 511 740 511 799 477 c 128,-1,21
 858 443 858 443 890.5 380.5 c 128,-1,22
 923 318 923 318 923 236 c 0,23,24
 923 216 923 216 922 205 c 1,25,-1
 554 205 l 1,26,27
 565 161 565 161 595 137.5 c 128,-1,28
 625 114 625 114 666 114 c 0,29,30
 699 114 699 114 724 123.5 c 128,-1,31
 749 133 749 133 763 149 c 1,32,-1
 892 101 l 1,33,34
 853 45 853 45 793.5 16.5 c 128,-1,35
 734 -12 734 -12 671 -12 c 0,36,0
 612 -12 612 -12 562 6 c 128,-1,1
367.5 149 m 128,-1,38
 394 184 394 184 394 251 c 0,39,40
 394 317 394 317 367 351 c 128,-1,41
 340 385 340 385 295 385 c 256,42,43
 250 385 250 385 223 351 c 128,-1,44
 196 317 196 317 196 251 c 0,45,46
 196 184 196 184 222.5 149 c 128,-1,47
 249 114 249 114 295 114 c 256,48,37
 341 114 341 114 367.5 149 c 128,-1,38
740 368 m 128,-1,50
 712 390 712 390 669 390 c 0,51,52
 625 390 625 390 594 368.5 c 128,-1,53
 563 347 563 347 553 301 c 1,54,-1
 772 301 l 1,55,49
 768 346 768 346 740 368 c 128,-1,50
EndSplineSet
EndChar
StartChar: Scedilla
Encoding: 350 350 80
Width: 618
GlyphClass: 2
Flags: W
AnchorPoint: "Anchor-1" 309 668 basechar 0
LayerCount: 2
Fore
SplineSet
210 -176 m 1,1,-1
 226 -124 l 1,2,3
 234 -128 234 -128 252 -132 c 128,-1,4
 270 -136 270 -136 288 -136 c 0,5,6
 331 -136 331 -136 331 -111 c 0,7,8
 331 -99 331 -99 320.5 -92 c 128,-1,9
 310 -85 310 -85 293 -85 c 0,10,11
 282 -85 282 -85 267 -90 c 2,12,-1
 259 -91 l 2,13,14
 250 -91 250 -91 244 -85.5 c 128,-1,15
 238 -80 238 -80 238 -71 c 0,16,17
 238 -64 238 -64 242 -59 c 2,18,-1
 272 -10 l 1,19,20
 177 -3 177 -3 112.5 41 c 128,-1,21
 48 85 48 85 19 159 c 1,22,-1
 174 215 l 1,23,24
 185 173 185 173 223.5 148.5 c 128,-1,25
 262 124 262 124 318 124 c 0,26,27
 366 124 366 124 397 139.5 c 128,-1,28
 428 155 428 155 428 191 c 0,29,30
 428 221 428 221 402.5 237 c 128,-1,31
 377 253 377 253 318 264 c 2,32,-1
 239 279 l 2,33,34
 143 297 143 297 89 344.5 c 128,-1,35
 35 392 35 392 35 469 c 0,36,37
 35 539 35 539 77 586.5 c 128,-1,38
 119 634 119 634 185 657 c 128,-1,39
 251 680 251 680 322 680 c 0,40,41
 411 680 411 680 481.5 643 c 128,-1,42
 552 606 552 606 582 531 c 1,43,-1
 429 475 l 1,44,45
 416 508 416 508 384.5 526 c 128,-1,46
 353 544 353 544 306 544 c 256,47,48
 259 544 259 544 232 528.5 c 128,-1,49
 205 513 205 513 205 485 c 0,50,51
 205 463 205 463 223 447.5 c 128,-1,52
 241 432 241 432 277 425 c 2,53,-1
 366 407 l 2,54,55
 485 383 485 383 541.5 339.5 c 128,-1,56
 598 296 598 296 598 213 c 0,57,58
 598 145 598 145 561.5 95.5 c 128,-1,59
 525 46 525 46 464 18.5 c 128,-1,60
 403 -9 403 -9 330 -12 c 1,61,-1
 307 -49 l 1,62,63
 319 -46 319 -46 341 -46 c 0,64,65
 376 -46 376 -46 403.5 -60.5 c 128,-1,66
 431 -75 431 -75 431 -108 c 0,67,68
 431 -151 431 -151 392.5 -169.5 c 128,-1,69
 354 -188 354 -188 298 -188 c 0,70,0
 249 -188 249 -188 210 -176 c 1,1,-1
EndSplineSet
Substitution2: "'locl' Localized Forms in Latin lookup 4 subtable" uni0218
AlternateSubs2: "'aalt' Access All Alternates in Latin lookup 0 subtable" uni0218
EndChar
StartChar: scedilla
Encoding: 351 351 191
Width: 526
GlyphClass: 2
Flags: W
AnchorPoint: "Anchor-1" 269 496 basechar 0
LayerCount: 2
Fore
SplineSet
170 -176 m 1,1,-1
 186 -124 l 1,2,3
 194 -128 194 -128 212 -132 c 128,-1,4
 230 -136 230 -136 248 -136 c 0,5,6
 291 -136 291 -136 291 -111 c 0,7,8
 291 -99 291 -99 280.5 -92 c 128,-1,9
 270 -85 270 -85 253 -85 c 0,10,11
 242 -85 242 -85 227 -90 c 2,12,-1
 219 -91 l 2,13,14
 210 -91 210 -91 204 -85.5 c 128,-1,15
 198 -80 198 -80 198 -71 c 0,16,17
 198 -64 198 -64 202 -59 c 2,18,-1
 231 -12 l 1,19,20
 152 -5 152 -5 95 27.5 c 128,-1,21
 38 60 38 60 13 114 c 1,22,-1
 151 165 l 1,23,24
 160 136 160 136 192.5 120 c 128,-1,25
 225 104 225 104 270 104 c 0,26,27
 305 104 305 104 330.5 115.5 c 128,-1,28
 356 127 356 127 356 147 c 0,29,30
 356 160 356 160 341 169.5 c 128,-1,31
 326 179 326 179 287 185 c 2,32,-1
 197 201 l 2,33,34
 120 214 120 214 76 251.5 c 128,-1,35
 32 289 32 289 32 347 c 0,36,37
 32 396 32 396 63 433.5 c 128,-1,38
 94 471 94 471 147.5 491 c 128,-1,39
 201 511 201 511 267 511 c 0,40,41
 347 511 347 511 408.5 483 c 128,-1,42
 470 455 470 455 498 394 c 1,43,-1
 360 343 l 1,44,45
 339 395 339 395 265 395 c 0,46,47
 226 395 226 395 207.5 384.5 c 128,-1,48
 189 374 189 374 189 356 c 0,49,50
 189 342 189 342 201 334 c 128,-1,51
 213 326 213 326 244 321 c 2,52,-1
 339 304 l 2,53,54
 434 287 434 287 473.5 254 c 128,-1,55
 513 221 513 221 513 158 c 0,56,57
 513 80 513 80 451 36 c 128,-1,58
 389 -8 389 -8 290 -13 c 1,59,-1
 267 -49 l 1,60,61
 279 -46 279 -46 301 -46 c 0,62,63
 336 -46 336 -46 363.5 -60.5 c 128,-1,64
 391 -75 391 -75 391 -108 c 0,65,66
 391 -151 391 -151 352.5 -169.5 c 128,-1,67
 314 -188 314 -188 258 -188 c 0,68,0
 209 -188 209 -188 170 -176 c 1,1,-1
EndSplineSet
Substitution2: "'locl' Localized Forms in Latin lookup 4 subtable" uni0219
AlternateSubs2: "'aalt' Access All Alternates in Latin lookup 0 subtable" uni0219
EndChar
StartChar: uni0162
Encoding: 354 354 85
Width: 628
GlyphClass: 2
Flags: W
AnchorPoint: "Anchor-1" 314 668 basechar 0
LayerCount: 2
Fore
SplineSet
229 518 m 1,0,-1
 16 518 l 1,1,-1
 16 668 l 1,2,-1
 612 668 l 1,3,-1
 612 518 l 1,4,-1
 399 518 l 1,5,-1
 399 0 l 1,6,-1
 344 0 l 1,7,-1
 314 -49 l 1,8,9
 326 -46 326 -46 348 -46 c 0,10,11
 383 -46 383 -46 410.5 -60.5 c 128,-1,12
 438 -75 438 -75 438 -108 c 0,13,14
 438 -151 438 -151 399.5 -169.5 c 128,-1,15
 361 -188 361 -188 305 -188 c 0,16,17
 256 -188 256 -188 217 -176 c 1,18,-1
 233 -124 l 1,19,20
 241 -128 241 -128 259 -132 c 128,-1,21
 277 -136 277 -136 295 -136 c 0,22,23
 338 -136 338 -136 338 -111 c 0,24,25
 338 -99 338 -99 327.5 -92 c 128,-1,26
 317 -85 317 -85 300 -85 c 0,27,28
 289 -85 289 -85 274 -90 c 2,29,-1
 266 -91 l 2,30,31
 257 -91 257 -91 251 -85.5 c 128,-1,32
 245 -80 245 -80 245 -71 c 0,33,34
 245 -64 245 -64 249 -59 c 2,35,-1
 285 0 l 1,36,-1
 229 0 l 1,37,-1
 229 518 l 1,0,-1
EndSplineSet
Substitution2: "'locl' Localized Forms in Latin lookup 4 subtable" uni021A
AlternateSubs2: "'aalt' Access All Alternates in Latin lookup 0 subtable" uni021A
EndChar
StartChar: uni0163
Encoding: 355 355 196
Width: 398
GlyphClass: 2
Flags: W
AnchorPoint: "Anchor-3" 270 554 basechar 0
AnchorPoint: "Anchor-1" 192 496 basechar 0
LayerCount: 2
Fore
SplineSet
123 -176 m 1,1,-1
 139 -124 l 1,2,3
 147 -128 147 -128 165 -132 c 128,-1,4
 183 -136 183 -136 201 -136 c 0,5,6
 244 -136 244 -136 244 -111 c 0,7,8
 244 -99 244 -99 233.5 -92 c 128,-1,9
 223 -85 223 -85 206 -85 c 0,10,11
 195 -85 195 -85 180 -90 c 2,12,-1
 172 -91 l 2,13,14
 163 -91 163 -91 157 -85.5 c 128,-1,15
 151 -80 151 -80 151 -71 c 0,16,17
 151 -64 151 -64 155 -59 c 2,18,-1
 194 4 l 1,19,20
 136 12 136 12 113 42 c 128,-1,21
 90 72 90 72 90 143 c 2,22,-1
 90 371 l 1,23,-1
 8 371 l 1,24,-1
 8 496 l 1,25,-1
 90 496 l 1,26,-1
 90 620 l 1,27,-1
 255 620 l 1,28,-1
 255 496 l 1,29,-1
 363 496 l 1,30,-1
 363 371 l 1,31,-1
 255 371 l 1,32,-1
 255 188 l 2,33,34
 255 155 255 155 269 144 c 128,-1,35
 283 133 283 133 321 133 c 2,36,-1
 363 133 l 1,37,-1
 363 0 l 1,38,-1
 263 0 l 1,39,-1
 250 0 l 1,40,-1
 220 -49 l 1,41,42
 232 -46 232 -46 254 -46 c 0,43,44
 289 -46 289 -46 316.5 -60.5 c 128,-1,45
 344 -75 344 -75 344 -108 c 0,46,47
 344 -151 344 -151 305.5 -169.5 c 128,-1,48
 267 -188 267 -188 211 -188 c 0,49,0
 162 -188 162 -188 123 -176 c 1,1,-1
EndSplineSet
Substitution2: "'locl' Localized Forms in Latin lookup 4 subtable" uni021B
AlternateSubs2: "'aalt' Access All Alternates in Latin lookup 0 subtable" uni021B
EndChar
StartChar: Uring
Encoding: 366 366 95
Width: 688
GlyphClass: 2
Flags: W
AnchorPoint: "Anchor-3" 653 668 basechar 0
AnchorPoint: "Anchor-2" 559 10 basechar 0
AnchorPoint: "Anchor-1" 344 927 basechar 0
AnchorPoint: "Anchor-0" 345 0 basechar 0
LayerCount: 2
Fore
SplineSet
121 61.5 m 128,-1,1
 53 135 53 135 53 294 c 2,2,-1
 53 668 l 1,3,-1
 223 668 l 1,4,-1
 223 274 l 2,5,6
 223 191 223 191 251.5 158.5 c 128,-1,7
 280 126 280 126 346 126 c 0,8,9
 390 126 390 126 416 140 c 128,-1,10
 442 154 442 154 453.5 186 c 128,-1,11
 465 218 465 218 465 274 c 2,12,-1
 465 668 l 1,13,-1
 635 668 l 1,14,-1
 635 294 l 2,15,16
 635 136 635 136 567.5 62 c 128,-1,17
 500 -12 500 -12 345 -12 c 0,18,0
 189 -12 189 -12 121 61.5 c 128,-1,1
274.5 673 m 128,-1,20
 243 691 243 691 224 722.5 c 128,-1,21
 205 754 205 754 205 791 c 256,22,23
 205 828 205 828 224 859.5 c 128,-1,24
 243 891 243 891 274.5 909 c 128,-1,25
 306 927 306 927 343 927 c 256,26,27
 380 927 380 927 411.5 909 c 128,-1,28
 443 891 443 891 462 859.5 c 128,-1,29
 481 828 481 828 481 791 c 256,30,31
 481 754 481 754 462 722.5 c 128,-1,32
 443 691 443 691 411.5 673 c 128,-1,33
 380 655 380 655 343 655 c 256,34,19
 306 655 306 655 274.5 673 c 128,-1,20
376 758.5 m 128,-1,36
 389 772 389 772 389 791 c 0,37,38
 389 811 389 811 376 824 c 128,-1,39
 363 837 363 837 343 837 c 0,40,41
 324 837 324 837 310.5 824 c 128,-1,42
 297 811 297 811 297 791 c 0,43,44
 297 772 297 772 310.5 758.5 c 128,-1,45
 324 745 324 745 343 745 c 0,46,35
 363 745 363 745 376 758.5 c 128,-1,36
EndSplineSet
EndChar
StartChar: Uogonek
Encoding: 370 370 94
Width: 688
GlyphClass: 2
Flags: W
AnchorPoint: "Anchor-3" 653 668 basechar 0
AnchorPoint: "Anchor-1" 344 668 basechar 0
AnchorPoint: "Anchor-0" 345 0 basechar 0
LayerCount: 2
Fore
SplineSet
361 -146 m 128,-1,1
 326 -118 326 -118 326 -72 c 0,2,3
 326 -39 326 -39 345 -12 c 1,4,5
 243 -12 243 -12 179 19 c 128,-1,6
 115 50 115 50 84 117 c 128,-1,7
 53 184 53 184 53 294 c 2,8,-1
 53 668 l 1,9,-1
 223 668 l 1,10,-1
 223 274 l 2,11,12
 223 191 223 191 251.5 158.5 c 128,-1,13
 280 126 280 126 346 126 c 0,14,15
 390 126 390 126 416 140 c 128,-1,16
 442 154 442 154 453.5 186 c 128,-1,17
 465 218 465 218 465 274 c 2,18,-1
 465 668 l 1,19,-1
 635 668 l 1,20,-1
 635 294 l 2,21,22
 635 100 635 100 535 34 c 0,23,24
 499 10 499 10 480.5 -10.5 c 128,-1,25
 462 -31 462 -31 462 -56 c 0,26,27
 462 -95 462 -95 508 -95 c 0,28,29
 521 -95 521 -95 536 -91.5 c 128,-1,30
 551 -88 551 -88 559 -86 c 1,31,-1
 559 -165 l 1,32,33
 548 -168 548 -168 522 -171 c 128,-1,34
 496 -174 496 -174 477 -174 c 0,35,0
 396 -174 396 -174 361 -146 c 128,-1,1
EndSplineSet
EndChar
StartChar: uogonek
Encoding: 371 371 205
Width: 580
GlyphClass: 2
Flags: W
AnchorPoint: "Anchor-3" 556 496 basechar 0
AnchorPoint: "Anchor-1" 289 496 basechar 0
AnchorPoint: "Anchor-0" 289 0 basechar 0
LayerCount: 2
Fore
SplineSet
86 40 m 128,-1,1
 47 92 47 92 47 201 c 2,2,-1
 47 496 l 1,3,-1
 212 496 l 1,4,-1
 212 242 l 2,5,6
 212 197 212 197 215.5 172 c 128,-1,7
 219 147 219 147 234.5 130.5 c 128,-1,8
 250 114 250 114 283 114 c 0,9,10
 328 114 328 114 346 142 c 128,-1,11
 364 170 364 170 364 237 c 2,12,-1
 364 496 l 1,13,-1
 529 496 l 1,14,-1
 529 0 l 1,15,16
 480 -9 480 -9 456 -27 c 128,-1,17
 432 -45 432 -45 432 -65 c 0,18,19
 432 -81 432 -81 445.5 -88 c 128,-1,20
 459 -95 459 -95 478 -95 c 0,21,22
 500 -95 500 -95 529 -86 c 1,23,-1
 529 -167 l 1,24,25
 518 -170 518 -170 492 -173 c 128,-1,26
 466 -176 466 -176 447 -176 c 0,27,28
 366 -176 366 -176 331 -147.5 c 128,-1,29
 296 -119 296 -119 296 -84 c 0,30,31
 296 -48 296 -48 319.5 -25.5 c 128,-1,32
 343 -3 343 -3 381 14 c 1,33,-1
 364 70 l 1,34,35
 340 29 340 29 307.5 8.5 c 128,-1,36
 275 -12 275 -12 222 -12 c 0,37,0
 125 -12 125 -12 86 40 c 128,-1,1
EndSplineSet
EndChar
StartChar: florin
Encoding: 402 402 295
Width: 398
GlyphClass: 1
Flags: W
LayerCount: 2
Fore
SplineSet
19 -164 m 1,1,-1
 19 -20 l 1,2,3
 37 -23 37 -23 51 -23 c 0,4,5
 80 -23 80 -23 90.5 -6.5 c 128,-1,6
 101 10 101 10 101 51 c 2,7,-1
 101 372 l 1,8,-1
 19 372 l 1,9,-1
 19 496 l 1,10,-1
 101 496 l 1,11,-1
 101 579 l 2,12,13
 101 638 101 638 122 671.5 c 128,-1,14
 143 705 143 705 187 719 c 128,-1,15
 231 733 231 733 303 733 c 2,16,-1
 374 733 l 1,17,-1
 374 603 l 1,18,-1
 334 603 l 2,19,20
 291 603 291 603 278 595.5 c 128,-1,21
 265 588 265 588 265 563 c 2,22,-1
 265 496 l 1,23,-1
 374 496 l 1,24,-1
 374 372 l 1,25,-1
 265 372 l 1,26,-1
 265 -14 l 2,27,28
 265 -96 265 -96 222.5 -134.5 c 128,-1,29
 180 -173 180 -173 104 -173 c 0,30,0
 58 -173 58 -173 19 -164 c 1,1,-1
EndSplineSet
EndChar
StartChar: uni0237
Encoding: 567 567 159
Width: 266
GlyphClass: 2
Flags: W
AnchorPoint: "Anchor-1" 131 496 basechar 0
AnchorPoint: "Anchor-0" 131 -251 basechar 0
LayerCount: 2
Fore
SplineSet
-72 -33 m 1,0,-1
 -15 -33 l 2,1,2
 21 -33 21 -33 34.5 -23.5 c 128,-1,3
 48 -14 48 -14 48 12 c 2,4,-1
 48 496 l 1,5,-1
 213 496 l 1,6,-1
 213 -14 l 2,7,8
 213 -96 213 -96 161 -129 c 128,-1,9
 109 -162 109 -162 16 -162 c 2,10,-1
 -72 -162 l 1,11,-1
 -72 -33 l 1,0,-1
EndSplineSet
EndChar
StartChar: uni02C9
Encoding: 713 713 374
Width: 395
GlyphClass: 1
Flags: W
LayerCount: 2
Fore
SplineSet
46 644 m 1,0,-1
 349 644 l 1,1,-1
 349 540 l 1,2,-1
 46 540 l 1,3,-1
 46 644 l 1,0,-1
EndSplineSet
EndChar
StartChar: gravecomb
Encoding: 768 768 349
Width: 0
GlyphClass: 4
Flags: W
AnchorPoint: "Anchor-5" 205 731 basemark 0
AnchorPoint: "Anchor-5" 205 496 mark 0
AnchorPoint: "Anchor-1" 205 496 mark 0
LayerCount: 2
Fore
SplineSet
53.5 646 m 128,-1,1
 46 659 46 659 46 675 c 0,2,3
 46 698 46 698 62.5 714.5 c 128,-1,4
 79 731 79 731 105 731 c 0,5,6
 123 731 123 731 135 723 c 128,-1,7
 147 715 147 715 163 696 c 2,8,-1
 264 575 l 1,9,-1
 142 575 l 1,10,-1
 84 616 l 2,11,0
 61 633 61 633 53.5 646 c 128,-1,1
EndSplineSet
Substitution2: "Single Substitution lookup 13 subtable" gravecomb.case
Substitution2: "'case' Case-Sensitive Forms in Latin lookup 11 subtable" gravecomb.case
AlternateSubs2: "'aalt' Access All Alternates in Latin lookup 0 subtable" gravecomb.case
EndChar
StartChar: acutecomb
Encoding: 769 769 351
Width: 0
GlyphClass: 4
Flags: W
AnchorPoint: "Anchor-5" 105 731 basemark 0
AnchorPoint: "Anchor-5" 105 496 mark 0
AnchorPoint: "Anchor-1" 105 496 mark 0
LayerCount: 2
Fore
SplineSet
175 723 m 128,-1,1
 187 731 187 731 205 731 c 0,2,3
 231 731 231 731 247.5 714.5 c 128,-1,4
 264 698 264 698 264 675 c 0,5,6
 264 659 264 659 256.5 646 c 128,-1,7
 249 633 249 633 226 616 c 2,8,-1
 168 575 l 1,9,-1
 46 575 l 1,10,-1
 147 696 l 2,11,0
 163 715 163 715 175 723 c 128,-1,1
EndSplineSet
Substitution2: "Single Substitution lookup 13 subtable" acutecomb.case
Substitution2: "'case' Case-Sensitive Forms in Latin lookup 11 subtable" acutecomb.case
AlternateSubs2: "'aalt' Access All Alternates in Latin lookup 0 subtable" acutecomb.case
EndChar
StartChar: uni0302
Encoding: 770 770 356
Width: 0
GlyphClass: 4
Flags: W
AnchorPoint: "Anchor-5" 249 732 basemark 0
AnchorPoint: "Anchor-5" 249 496 mark 0
AnchorPoint: "Anchor-1" 249 496 mark 0
LayerCount: 2
Fore
SplineSet
249 732 m 256,1,2
 275 732 275 732 300 712 c 2,3,-1
 452 574 l 1,4,-1
 318 574 l 1,5,-1
 250 635 l 1,6,-1
 181 574 l 1,7,-1
 46 574 l 1,8,-1
 199 712 l 2,9,0
 223 732 223 732 249 732 c 256,1,2
EndSplineSet
Substitution2: "Single Substitution lookup 13 subtable" uni0302.case
Substitution2: "'case' Case-Sensitive Forms in Latin lookup 11 subtable" uni0302.case
AlternateSubs2: "'aalt' Access All Alternates in Latin lookup 0 subtable" uni0302.case
EndChar
StartChar: tildecomb
Encoding: 771 771 364
Width: 0
GlyphClass: 4
Flags: W
AnchorPoint: "Anchor-5" 235 690 basemark 0
AnchorPoint: "Anchor-5" 235 496 mark 0
AnchorPoint: "Anchor-1" 235 496 mark 0
LayerCount: 2
Fore
SplineSet
264 574 m 128,-1,1
 246 580 246 580 224 591 c 0,2,3
 200 605 200 605 183 605 c 0,4,5
 146 605 146 605 139 573 c 1,6,-1
 46 573 l 1,7,8
 55 630 55 630 87.5 660 c 128,-1,9
 120 690 120 690 175 690 c 0,10,11
 199 690 199 690 215.5 684 c 128,-1,12
 232 678 232 678 251 667 c 0,13,14
 267 658 267 658 277 654 c 128,-1,15
 287 650 287 650 299 650 c 0,16,17
 312 650 312 650 322 655 c 128,-1,18
 332 660 332 660 342 670 c 0,19,20
 363 691 363 691 380 691 c 0,21,22
 399 691 399 691 411.5 679 c 128,-1,23
 424 667 424 667 424 649 c 0,24,25
 424 626 424 626 406 607.5 c 128,-1,26
 388 589 388 589 361 578.5 c 128,-1,27
 334 568 334 568 310 568 c 0,28,0
 282 568 282 568 264 574 c 128,-1,1
EndSplineSet
Substitution2: "Single Substitution lookup 13 subtable" tildecomb.case
Substitution2: "'case' Case-Sensitive Forms in Latin lookup 11 subtable" tildecomb.case
AlternateSubs2: "'aalt' Access All Alternates in Latin lookup 0 subtable" tildecomb.case
EndChar
StartChar: uni0306
Encoding: 774 774 360
Width: 0
GlyphClass: 4
Flags: W
AnchorPoint: "Anchor-5" 196 689 basemark 0
AnchorPoint: "Anchor-5" 196 496 mark 0
AnchorPoint: "Anchor-1" 196 496 mark 0
LayerCount: 2
Fore
SplineSet
94.5 596.5 m 128,-1,1
 56 632 56 632 46 689 c 1,2,-1
 134 689 l 1,3,4
 138 673 138 673 153.5 660.5 c 128,-1,5
 169 648 169 648 195 648 c 256,6,7
 221 648 221 648 238 660.5 c 128,-1,8
 255 673 255 673 258 689 c 1,9,-1
 346 689 l 1,10,11
 336 632 336 632 296.5 596.5 c 128,-1,12
 257 561 257 561 195 561 c 256,13,0
 133 561 133 561 94.5 596.5 c 128,-1,1
EndSplineSet
Substitution2: "Single Substitution lookup 13 subtable" uni0306.case
Substitution2: "'case' Case-Sensitive Forms in Latin lookup 11 subtable" uni0306.case
AlternateSubs2: "'aalt' Access All Alternates in Latin lookup 0 subtable" uni0306.case
EndChar
StartChar: uni0307
Encoding: 775 775 346
Width: 0
GlyphClass: 4
Flags: W
AnchorPoint: "Anchor-5" 125 727 basemark 0
AnchorPoint: "Anchor-5" 125 496 mark 0
AnchorPoint: "Anchor-1" 125 496 mark 0
LayerCount: 2
Fore
SplineSet
69.5 592.5 m 128,-1,1
 46 616 46 616 46 648 c 256,2,3
 46 680 46 680 69.5 703.5 c 128,-1,4
 93 727 93 727 125 727 c 256,5,6
 157 727 157 727 180.5 703.5 c 128,-1,7
 204 680 204 680 204 648 c 256,8,9
 204 616 204 616 180.5 592.5 c 128,-1,10
 157 569 157 569 125 569 c 256,11,0
 93 569 93 569 69.5 592.5 c 128,-1,1
EndSplineSet
Substitution2: "Single Substitution lookup 13 subtable" uni0307.case
Substitution2: "'case' Case-Sensitive Forms in Latin lookup 11 subtable" uni0307.case
AlternateSubs2: "'aalt' Access All Alternates in Latin lookup 0 subtable" uni0307.case
EndChar
StartChar: uni0308
Encoding: 776 776 344
Width: 0
GlyphClass: 4
Flags: W
AnchorPoint: "Anchor-5" 231 727 basemark 0
AnchorPoint: "Anchor-5" 231 496 mark 0
AnchorPoint: "Anchor-1" 231 496 mark 0
LayerCount: 2
Fore
SplineSet
281.5 592.5 m 128,-1,1
 258 616 258 616 258 648 c 256,2,3
 258 680 258 680 281.5 703.5 c 128,-1,4
 305 727 305 727 337 727 c 256,5,6
 369 727 369 727 392.5 703.5 c 128,-1,7
 416 680 416 680 416 648 c 256,8,9
 416 616 416 616 392.5 592.5 c 128,-1,10
 369 569 369 569 337 569 c 256,11,0
 305 569 305 569 281.5 592.5 c 128,-1,1
69.5 592.5 m 128,-1,13
 46 616 46 616 46 648 c 256,14,15
 46 680 46 680 69.5 703.5 c 128,-1,16
 93 727 93 727 125 727 c 256,17,18
 157 727 157 727 180.5 703.5 c 128,-1,19
 204 680 204 680 204 648 c 256,20,21
 204 616 204 616 180.5 592.5 c 128,-1,22
 157 569 157 569 125 569 c 256,23,12
 93 569 93 569 69.5 592.5 c 128,-1,13
EndSplineSet
Substitution2: "Single Substitution lookup 13 subtable" uni0308.case
Substitution2: "'case' Case-Sensitive Forms in Latin lookup 11 subtable" uni0308.case
AlternateSubs2: "'aalt' Access All Alternates in Latin lookup 0 subtable" uni0308.case
EndChar
StartChar: uni030A
Encoding: 778 778 362
Width: 0
GlyphClass: 4
Flags: W
AnchorPoint: "Anchor-5" 178 799 basemark 0
AnchorPoint: "Anchor-5" 178 496 mark 0
AnchorPoint: "Anchor-1" 178 496 mark 0
LayerCount: 2
Fore
SplineSet
111.5 554.5 m 128,-1,1
 81 572 81 572 63.5 602 c 128,-1,2
 46 632 46 632 46 668 c 256,3,4
 46 704 46 704 63.5 734 c 128,-1,5
 81 764 81 764 111.5 781.5 c 128,-1,6
 142 799 142 799 178 799 c 256,7,8
 214 799 214 799 244.5 781.5 c 128,-1,9
 275 764 275 764 292.5 734 c 128,-1,10
 310 704 310 704 310 668 c 256,11,12
 310 632 310 632 292.5 602 c 128,-1,13
 275 572 275 572 244.5 554.5 c 128,-1,14
 214 537 214 537 178 537 c 256,15,0
 142 537 142 537 111.5 554.5 c 128,-1,1
211 633.5 m 128,-1,17
 225 648 225 648 225 668 c 256,18,19
 225 688 225 688 211 702.5 c 128,-1,20
 197 717 197 717 178 717 c 256,21,22
 159 717 159 717 145 702.5 c 128,-1,23
 131 688 131 688 131 668 c 256,24,25
 131 648 131 648 145 633.5 c 128,-1,26
 159 619 159 619 178 619 c 256,27,16
 197 619 197 619 211 633.5 c 128,-1,17
EndSplineSet
Substitution2: "Single Substitution lookup 13 subtable" uni030A.case
Substitution2: "'case' Case-Sensitive Forms in Latin lookup 11 subtable" uni030A.case
AlternateSubs2: "'aalt' Access All Alternates in Latin lookup 0 subtable" uni030A.case
EndChar
StartChar: uni030B
Encoding: 779 779 353
Width: 0
GlyphClass: 4
Flags: W
AnchorPoint: "Anchor-5" 308 731 basemark 0
AnchorPoint: "Anchor-5" 211 496 mark 0
AnchorPoint: "Anchor-1" 211 496 mark 0
LayerCount: 2
Fore
SplineSet
173 723 m 128,-1,1
 185 731 185 731 203 731 c 0,2,3
 229 731 229 731 245.5 714.5 c 128,-1,4
 262 698 262 698 262 676 c 0,5,6
 262 661 262 661 253 647 c 128,-1,7
 244 633 244 633 221 616 c 2,8,-1
 165 575 l 1,9,-1
 46 575 l 1,10,-1
 145 696 l 2,11,0
 161 715 161 715 173 723 c 128,-1,1
384 723 m 128,-1,13
 396 731 396 731 414 731 c 0,14,15
 440 731 440 731 457 714.5 c 128,-1,16
 474 698 474 698 474 676 c 0,17,18
 474 661 474 661 464.5 647 c 128,-1,19
 455 633 455 633 432 616 c 2,20,-1
 376 575 l 1,21,-1
 257 575 l 1,22,-1
 356 696 l 2,23,12
 372 715 372 715 384 723 c 128,-1,13
EndSplineSet
Substitution2: "Single Substitution lookup 13 subtable" uni030B.case
Substitution2: "'case' Case-Sensitive Forms in Latin lookup 11 subtable" uni030B.case
AlternateSubs2: "'aalt' Access All Alternates in Latin lookup 0 subtable" uni030B.case
EndChar
StartChar: uni030C
Encoding: 780 780 358
Width: 0
GlyphClass: 4
Flags: W
AnchorPoint: "Anchor-5" 249 726 basemark 0
AnchorPoint: "Anchor-5" 249 496 mark 0
AnchorPoint: "Anchor-1" 249 496 mark 0
LayerCount: 2
Fore
SplineSet
199 587 m 2,1,-1
 46 726 l 1,2,-1
 181 726 l 1,3,-1
 250 665 l 1,4,-1
 318 726 l 1,5,-1
 452 726 l 1,6,-1
 300 587 l 2,7,8
 278 568 278 568 249 568 c 256,9,0
 220 568 220 568 199 587 c 2,1,-1
EndSplineSet
Substitution2: "Single Substitution lookup 13 subtable" uni030C.case
Substitution2: "'case' Case-Sensitive Forms in Latin lookup 11 subtable" uni030C.case
AlternateSubs2: "'aalt' Access All Alternates in Latin lookup 0 subtable" uni030C.case
EndChar
StartChar: uni0312
Encoding: 786 786 368
Width: 0
GlyphClass: 4
Flags: W
AnchorPoint: "Anchor-5" 162 774 basemark 0
AnchorPoint: "Anchor-5" 153 496 mark 0
AnchorPoint: "Anchor-1" 153 496 mark 0
LayerCount: 2
Fore
SplineSet
46 664 m 0,1,2
 46 712 46 712 93 743 c 128,-1,3
 140 774 140 774 223 774 c 1,4,-1
 277 727 l 1,5,6
 227 727 227 727 200.5 711 c 128,-1,7
 174 695 174 695 174 668 c 0,8,9
 174 647 174 647 194.5 631 c 128,-1,10
 215 615 215 615 245 609 c 1,11,-1
 135 566 l 1,12,0
 46 601 46 601 46 664 c 0,1,2
EndSplineSet
EndChar
StartChar: uni0326
Encoding: 806 806 369
Width: 0
GlyphClass: 4
Flags: W
AnchorPoint: "Anchor-4" 172 -251 basemark 0
AnchorPoint: "Anchor-4" 172 0 mark 0
AnchorPoint: "Anchor-0" 172 0 mark 0
LayerCount: 2
Fore
SplineSet
122.5 -188 m 128,-1,1
 149 -172 149 -172 149 -145 c 0,2,3
 149 -124 149 -124 128.5 -108 c 128,-1,4
 108 -92 108 -92 78 -86 c 1,5,-1
 188 -43 l 1,6,7
 277 -78 277 -78 277 -141 c 0,8,9
 277 -189 277 -189 230 -220 c 128,-1,10
 183 -251 183 -251 100 -251 c 1,11,-1
 46 -204 l 1,12,0
 96 -204 96 -204 122.5 -188 c 128,-1,1
EndSplineSet
EndChar
StartChar: uni0327
Encoding: 807 807 370
Width: 0
GlyphClass: 4
Flags: W
AnchorPoint: "Anchor-4" 145 -188 basemark 0
AnchorPoint: "Anchor-4" 145 0 mark 0
AnchorPoint: "Anchor-0" 145 0 mark 0
LayerCount: 2
Fore
SplineSet
46 -176 m 1,1,-1
 62 -124 l 1,2,3
 70 -128 70 -128 88 -132 c 128,-1,4
 106 -136 106 -136 124 -136 c 0,5,6
 167 -136 167 -136 167 -111 c 0,7,8
 167 -99 167 -99 156.5 -92 c 128,-1,9
 146 -85 146 -85 129 -85 c 0,10,11
 118 -85 118 -85 103 -90 c 2,12,-1
 95 -91 l 2,13,14
 86 -91 86 -91 80 -85.5 c 128,-1,15
 74 -80 74 -80 74 -71 c 0,16,17
 74 -64 74 -64 78 -59 c 2,18,-1
 131 27 l 1,19,-1
 174 1 l 1,20,-1
 143 -49 l 1,21,22
 155 -46 155 -46 177 -46 c 0,23,24
 212 -46 212 -46 239.5 -60.5 c 128,-1,25
 267 -75 267 -75 267 -108 c 0,26,27
 267 -151 267 -151 228.5 -169.5 c 128,-1,28
 190 -188 190 -188 134 -188 c 0,29,0
 85 -188 85 -188 46 -176 c 1,1,-1
EndSplineSet
EndChar
StartChar: uni0328
Encoding: 808 808 371
Width: 0
GlyphClass: 4
Flags: W
AnchorPoint: "Anchor-2" 279 10 mark 0
LayerCount: 2
Fore
SplineSet
81 -147.5 m 128,-1,1
 46 -119 46 -119 46 -84 c 0,2,3
 46 -46 46 -46 72 -23 c 128,-1,4
 98 0 98 0 139 17 c 1,5,-1
 279 0 l 1,6,7
 230 -9 230 -9 206 -27 c 128,-1,8
 182 -45 182 -45 182 -65 c 0,9,10
 182 -81 182 -81 195.5 -88 c 128,-1,11
 209 -95 209 -95 228 -95 c 0,12,13
 250 -95 250 -95 279 -86 c 1,14,-1
 279 -167 l 1,15,16
 268 -170 268 -170 242 -173 c 128,-1,17
 216 -176 216 -176 197 -176 c 0,18,0
 116 -176 116 -176 81 -147.5 c 128,-1,1
EndSplineSet
Substitution2: "Single Substitution lookup 13 subtable" uni0328.case
Substitution2: "'case' Case-Sensitive Forms in Latin lookup 11 subtable" uni0328.case
AlternateSubs2: "'aalt' Access All Alternates in Latin lookup 0 subtable" uni0328.case
EndChar
StartChar: uni03A9
Encoding: 937 937 226
Width: 642
GlyphClass: 1
Flags: W
LayerCount: 2
Fore
SplineSet
28 121 m 1,0,-1
 163 121 l 1,1,-1
 163 141 l 1,2,3
 101 181 101 181 64.5 246 c 128,-1,4
 28 311 28 311 28 386 c 0,5,6
 28 466 28 466 67.5 533.5 c 128,-1,7
 107 601 107 601 174 640.5 c 128,-1,8
 241 680 241 680 321 680 c 256,9,10
 401 680 401 680 468 640.5 c 128,-1,11
 535 601 535 601 574.5 533.5 c 128,-1,12
 614 466 614 466 614 386 c 0,13,14
 614 311 614 311 577.5 246 c 128,-1,15
 541 181 541 181 479 141 c 1,16,-1
 479 121 l 1,17,-1
 614 121 l 1,18,-1
 614 0 l 1,19,-1
 340 0 l 1,20,-1
 340 232 l 1,21,22
 401 240 401 240 442.5 286 c 128,-1,23
 484 332 484 332 484 393 c 0,24,25
 484 437 484 437 462 474.5 c 128,-1,26
 440 512 440 512 402.5 534 c 128,-1,27
 365 556 365 556 321 556 c 256,28,29
 277 556 277 556 239.5 534 c 128,-1,30
 202 512 202 512 180 474.5 c 128,-1,31
 158 437 158 437 158 393 c 0,32,33
 158 332 158 332 199.5 286 c 128,-1,34
 241 240 241 240 302 232 c 1,35,-1
 302 0 l 1,36,-1
 28 0 l 1,37,-1
 28 121 l 1,0,-1
EndSplineSet
EndChar
StartChar: uni03BC
Encoding: 956 956 227
Width: 633
GlyphClass: 1
Flags: W
LayerCount: 2
Fore
SplineSet
51 496 m 1,0,-1
 216 496 l 1,1,-1
 216 237 l 2,2,3
 216 185 216 185 222.5 159 c 128,-1,4
 229 133 229 133 243.5 123.5 c 128,-1,5
 258 114 258 114 286 114 c 0,6,7
 332 114 332 114 350 139 c 128,-1,8
 368 164 368 164 368 231 c 2,9,-1
 368 496 l 1,10,-1
 534 496 l 1,11,-1
 534 198 l 2,12,13
 534 157 534 157 545.5 144.5 c 128,-1,14
 557 132 557 132 593 132 c 2,15,-1
 613 132 l 1,16,-1
 613 0 l 1,17,-1
 519 0 l 2,18,19
 464 0 464 0 434 12 c 128,-1,20
 404 24 404 24 388 47 c 1,21,22
 354 -12 354 -12 288 -12 c 0,23,24
 249 -12 249 -12 216 11 c 1,25,-1
 216 -162 l 1,26,-1
 51 -162 l 1,27,-1
 51 496 l 1,0,-1
EndSplineSet
EndChar
StartChar: pi
Encoding: 960 960 228
Width: 643
GlyphClass: 1
Flags: W
LayerCount: 2
Fore
SplineSet
100 374 m 1,0,-1
 8 374 l 1,1,-1
 8 496 l 1,2,-1
 608 496 l 1,3,-1
 608 374 l 1,4,-1
 519 374 l 1,5,-1
 519 153 l 2,6,7
 519 128 519 128 530 119.5 c 128,-1,8
 541 111 541 111 575 111 c 2,9,-1
 608 111 l 1,10,-1
 608 0 l 1,11,-1
 525 0 l 2,12,13
 471 0 471 0 441 9.5 c 128,-1,14
 411 19 411 19 397 44 c 128,-1,15
 383 69 383 69 383 117 c 2,16,-1
 383 374 l 1,17,-1
 237 374 l 1,18,-1
 237 0 l 1,19,-1
 100 0 l 1,20,-1
 100 374 l 1,0,-1
EndSplineSet
EndChar
StartChar: uni1E9E
Encoding: 7838 7838 82
Width: 696
GlyphClass: 1
Flags: W
LayerCount: 2
Fore
SplineSet
328 22 m 128,-1,1
 276 56 276 56 253 108 c 1,2,-1
 387 158 l 1,3,4
 395 139 395 139 410.5 129.5 c 128,-1,5
 426 120 426 120 447 120 c 0,6,7
 472 120 472 120 491.5 140.5 c 128,-1,8
 511 161 511 161 511 197 c 0,9,10
 511 234 511 234 491.5 253.5 c 128,-1,11
 472 273 472 273 442 273 c 0,12,13
 422 273 422 273 401 265 c 1,14,-1
 343 363 l 1,15,-1
 485 542 l 1,16,17
 423 550 423 550 384 550 c 0,18,19
 223 550 223 550 223 410 c 2,20,-1
 223 0 l 1,21,-1
 53 0 l 1,22,-1
 53 448 l 2,23,24
 53 562 53 562 118.5 621 c 128,-1,25
 184 680 184 680 337 680 c 0,26,27
 418 680 418 680 486 672 c 128,-1,28
 554 664 554 664 627 646 c 1,29,-1
 627 516 l 1,30,-1
 513 376 l 1,31,32
 585 365 585 365 631 316 c 128,-1,33
 677 267 677 267 677 193 c 0,34,35
 677 133 677 133 647 86 c 128,-1,36
 617 39 617 39 568 13.5 c 128,-1,37
 519 -12 519 -12 463 -12 c 0,38,0
 380 -12 380 -12 328 22 c 128,-1,1
EndSplineSet
EndChar
StartChar: quoteleft
Encoding: 8216 8216 287
Width: 285
GlyphClass: 1
Flags: W
LayerCount: 2
Fore
SplineSet
69 355.5 m 128,-1,1
 39 386 39 386 39 429 c 0,2,3
 39 448 39 448 46 468 c 2,4,-1
 125 668 l 1,5,-1
 221 668 l 1,6,-1
 167 529 l 1,7,8
 201 521 201 521 223.5 492.5 c 128,-1,9
 246 464 246 464 246 428 c 0,10,11
 246 385 246 385 215.5 355 c 128,-1,12
 185 325 185 325 142 325 c 256,13,0
 99 325 99 325 69 355.5 c 128,-1,1
EndSplineSet
EndChar
StartChar: quoteright
Encoding: 8217 8217 288
Width: 285
GlyphClass: 1
Flags: W
LayerCount: 2
Fore
SplineSet
61.5 511.5 m 128,-1,1
 39 540 39 540 39 576 c 0,2,3
 39 619 39 619 69.5 649 c 128,-1,4
 100 679 100 679 143 679 c 256,5,6
 186 679 186 679 216 649 c 128,-1,7
 246 619 246 619 246 575 c 0,8,9
 246 556 246 556 239 536 c 2,10,-1
 160 336 l 1,11,-1
 64 336 l 1,12,-1
 118 475 l 1,13,0
 84 483 84 483 61.5 511.5 c 128,-1,1
EndSplineSet
EndChar
StartChar: quotesinglbase
Encoding: 8218 8218 283
Width: 285
GlyphClass: 1
Flags: W
LayerCount: 2
Fore
SplineSet
61.5 27.5 m 128,-1,1
 39 56 39 56 39 92 c 0,2,3
 39 135 39 135 69.5 165 c 128,-1,4
 100 195 100 195 143 195 c 256,5,6
 186 195 186 195 216 165 c 128,-1,7
 246 135 246 135 246 91 c 0,8,9
 246 72 246 72 239 52 c 2,10,-1
 160 -148 l 1,11,-1
 64 -148 l 1,12,-1
 118 -9 l 1,13,0
 84 -1 84 -1 61.5 27.5 c 128,-1,1
EndSplineSet
EndChar
StartChar: quotedblleft
Encoding: 8220 8220 285
Width: 518
GlyphClass: 1
Flags: W
LayerCount: 2
Fore
SplineSet
302.5 355 m 128,-1,1
 272 385 272 385 272 429 c 0,2,3
 272 448 272 448 279 468 c 2,4,-1
 358 668 l 1,5,-1
 454 668 l 1,6,-1
 400 529 l 1,7,8
 435 521 435 521 457 492.5 c 128,-1,9
 479 464 479 464 479 428 c 0,10,11
 479 385 479 385 448.5 355 c 128,-1,12
 418 325 418 325 375 325 c 0,13,0
 333 325 333 325 302.5 355 c 128,-1,1
69 355 m 128,-1,15
 39 385 39 385 39 429 c 0,16,17
 39 448 39 448 46 468 c 2,18,-1
 125 668 l 1,19,-1
 221 668 l 1,20,-1
 167 529 l 1,21,22
 201 521 201 521 223.5 492.5 c 128,-1,23
 246 464 246 464 246 428 c 0,24,25
 246 385 246 385 215.5 355 c 128,-1,26
 185 325 185 325 142 325 c 256,27,14
 99 325 99 325 69 355 c 128,-1,15
EndSplineSet
EndChar
StartChar: quotedblright
Encoding: 8221 8221 286
Width: 518
GlyphClass: 1
Flags: W
LayerCount: 2
Fore
SplineSet
294.5 512.5 m 128,-1,1
 272 541 272 541 272 577 c 0,2,3
 272 620 272 620 302.5 650 c 128,-1,4
 333 680 333 680 376 680 c 256,5,6
 419 680 419 680 449 650 c 128,-1,7
 479 620 479 620 479 576 c 0,8,9
 479 557 479 557 472 537 c 2,10,-1
 393 337 l 1,11,-1
 297 337 l 1,12,-1
 351 476 l 1,13,0
 317 484 317 484 294.5 512.5 c 128,-1,1
61 512.5 m 128,-1,15
 39 541 39 541 39 577 c 0,16,17
 39 620 39 620 69.5 650 c 128,-1,18
 100 680 100 680 143 680 c 256,19,20
 186 680 186 680 216 650 c 128,-1,21
 246 620 246 620 246 576 c 0,22,23
 246 557 246 557 239 537 c 2,24,-1
 160 337 l 1,25,-1
 64 337 l 1,26,-1
 118 476 l 1,27,14
 83 484 83 484 61 512.5 c 128,-1,15
EndSplineSet
EndChar
StartChar: quotedblbase
Encoding: 8222 8222 284
Width: 518
GlyphClass: 1
Flags: W
LayerCount: 2
Fore
SplineSet
294.5 27.5 m 128,-1,1
 272 56 272 56 272 92 c 0,2,3
 272 135 272 135 302.5 165 c 128,-1,4
 333 195 333 195 376 195 c 256,5,6
 419 195 419 195 449 165 c 128,-1,7
 479 135 479 135 479 91 c 0,8,9
 479 72 479 72 472 52 c 2,10,-1
 393 -148 l 1,11,-1
 297 -148 l 1,12,-1
 351 -9 l 1,13,0
 317 -1 317 -1 294.5 27.5 c 128,-1,1
61 27.5 m 128,-1,15
 39 56 39 56 39 92 c 0,16,17
 39 135 39 135 69.5 165 c 128,-1,18
 100 195 100 195 143 195 c 256,19,20
 186 195 186 195 216 165 c 128,-1,21
 246 135 246 135 246 91 c 0,22,23
 246 72 246 72 239 52 c 2,24,-1
 160 -148 l 1,25,-1
 64 -148 l 1,26,-1
 118 -9 l 1,27,14
 83 -1 83 -1 61 27.5 c 128,-1,15
EndSplineSet
EndChar
StartChar: guilsinglright
Encoding: 8250 8250 292
Width: 414
GlyphClass: 1
Flags: W
LayerCount: 2
Fore
SplineSet
188 250 m 1,0,-1
 39 460 l 1,1,-1
 227 460 l 1,2,-1
 375 250 l 1,3,-1
 227 40 l 1,4,-1
 39 40 l 1,5,-1
 188 250 l 1,0,-1
EndSplineSet
EndChar
StartChar: fraction
Encoding: 8260 8260 249
Width: 631
GlyphClass: 1
Flags: W
LayerCount: 2
Fore
SplineSet
482 668 m 1,0,-1
 616 668 l 1,1,-1
 149 0 l 1,2,-1
 15 0 l 1,3,-1
 482 668 l 1,0,-1
EndSplineSet
EndChar
StartChar: Euro
Encoding: 8364 8364 314
Width: 684
GlyphClass: 1
Flags: W
LayerCount: 2
Fore
SplineSet
205.5 55.5 m 128,-1,1
 130 123 130 123 105 230 c 1,2,-1
 4 230 l 1,3,-1
 46 308 l 1,4,-1
 94 308 l 1,5,6
 93 328 93 328 95 364 c 1,7,-1
 3 364 l 1,8,-1
 45 442 l 1,9,-1
 107 442 l 1,10,11
 134 559 134 559 214.5 619.5 c 128,-1,12
 295 680 295 680 402 680 c 0,13,14
 487 680 487 680 552 638 c 128,-1,15
 617 596 617 596 653 524 c 1,16,-1
 514 474 l 1,17,18
 496 508 496 508 464 524 c 128,-1,19
 432 540 432 540 397 540 c 0,20,21
 356 540 356 540 323 516.5 c 128,-1,22
 290 493 290 493 273 442 c 1,23,-1
 477 442 l 1,24,-1
 435 364 l 1,25,-1
 259 364 l 1,26,27
 258 355 258 355 258 336 c 0,28,29
 258 318 258 318 259 308 c 1,30,-1
 403 308 l 1,31,-1
 361 230 l 1,32,-1
 274 230 l 1,33,34
 291 181 291 181 323.5 154.5 c 128,-1,35
 356 128 356 128 399 128 c 0,36,37
 436 128 436 128 468.5 142.5 c 128,-1,38
 501 157 501 157 518 193 c 1,39,-1
 656 143 l 1,40,41
 619 71 619 71 552 29.5 c 128,-1,42
 485 -12 485 -12 399 -12 c 0,43,0
 281 -12 281 -12 205.5 55.5 c 128,-1,1
EndSplineSet
EndChar
StartChar: uni20B9
Encoding: 8377 8377 315
Width: 664
GlyphClass: 1
Flags: W
LayerCount: 2
Fore
SplineSet
79 289 m 1,0,-1
 79 356 l 1,1,-1
 259 356 l 2,2,3
 321 356 321 356 337 407 c 1,4,-1
 79 407 l 1,5,-1
 79 485 l 1,6,-1
 337 485 l 1,7,8
 321 535 321 535 259 535 c 2,9,-1
 79 535 l 1,10,-1
 79 668 l 1,11,-1
 599 668 l 1,12,-1
 599 590 l 1,13,-1
 460 590 l 1,14,15
 499 547 499 547 507 485 c 1,16,-1
 599 485 l 1,17,-1
 599 407 l 1,18,-1
 507 407 l 1,19,20
 497 335 497 335 451.5 291.5 c 128,-1,21
 406 248 406 248 336 233 c 1,22,-1
 557 0 l 1,23,-1
 347 0 l 1,24,-1
 79 289 l 1,0,-1
EndSplineSet
EndChar
StartChar: uni2113
Encoding: 8467 8467 308
Width: 514
GlyphClass: 1
Flags: W
LayerCount: 2
Fore
SplineSet
154.5 27.5 m 128,-1,1
 104 67 104 67 105 152 c 1,2,-1
 39 107 l 1,3,-1
 39 216 l 1,4,-1
 104 263 l 1,5,-1
 104 442 l 2,6,7
 104 567 104 567 157 623.5 c 128,-1,8
 210 680 210 680 303 680 c 0,9,10
 384 680 384 680 430 641 c 128,-1,11
 476 602 476 602 476 531 c 0,12,13
 476 482 476 482 450.5 439 c 128,-1,14
 425 396 425 396 382 357 c 128,-1,15
 339 318 339 318 267 266 c 1,16,-1
 267 198 l 2,17,18
 267 156 267 156 281.5 137.5 c 128,-1,19
 296 119 296 119 328 119 c 0,20,21
 366 119 366 119 405 149 c 1,22,-1
 466 54 l 1,23,24
 437 28 437 28 392.5 8 c 128,-1,25
 348 -12 348 -12 290 -12 c 0,26,0
 205 -12 205 -12 154.5 27.5 c 128,-1,1
323.5 442.5 m 128,-1,28
 344 479 344 479 344 518 c 0,29,30
 344 542 344 542 334 554 c 128,-1,31
 324 566 324 566 306 566 c 0,32,33
 285 566 285 566 276 549 c 128,-1,34
 267 532 267 532 267 498 c 2,35,-1
 267 378 l 1,36,27
 303 406 303 406 323.5 442.5 c 128,-1,28
EndSplineSet
EndChar
StartChar: trademark
Encoding: 8482 8482 303
Width: 973
GlyphClass: 1
Flags: W
LayerCount: 2
Fore
SplineSet
425 668 m 1,0,-1
 610 668 l 1,1,-1
 671 441 l 1,2,-1
 733 668 l 1,3,-1
 919 668 l 1,4,-1
 919 303 l 1,5,-1
 804 303 l 1,6,-1
 804 556 l 1,7,-1
 723 303 l 1,8,-1
 621 303 l 1,9,-1
 540 556 l 1,10,-1
 540 303 l 1,11,-1
 425 303 l 1,12,-1
 425 668 l 1,0,-1
149 569 m 1,13,-1
 28 569 l 1,14,-1
 28 668 l 1,15,-1
 387 668 l 1,16,-1
 387 569 l 1,17,-1
 266 569 l 1,18,-1
 266 303 l 1,19,-1
 149 303 l 1,20,-1
 149 569 l 1,13,-1
EndSplineSet
EndChar
StartChar: estimated
Encoding: 8494 8494 310
Width: 601
GlyphClass: 1
Flags: W
LayerCount: 2
Fore
SplineSet
168.5 24 m 128,-1,1
 108 60 108 60 73.5 119.5 c 128,-1,2
 39 179 39 179 39 248 c 0,3,4
 39 321 39 321 74.5 381.5 c 128,-1,5
 110 442 110 442 170.5 476.5 c 128,-1,6
 231 511 231 511 302 511 c 0,7,8
 372 511 372 511 432 476 c 128,-1,9
 492 441 492 441 527 380.5 c 128,-1,10
 562 320 562 320 562 249 c 1,11,-1
 182 249 l 1,12,-1
 182 109 l 1,13,14
 205 88 205 88 236.5 76.5 c 128,-1,15
 268 65 268 65 302 65 c 0,16,17
 343 65 343 65 380.5 83.5 c 128,-1,18
 418 102 418 102 444 134 c 1,19,-1
 519 106 l 1,20,21
 483 52 483 52 425.5 20 c 128,-1,22
 368 -12 368 -12 302 -12 c 0,23,0
 229 -12 229 -12 168.5 24 c 128,-1,1
419 322 m 1,24,-1
 419 390 l 1,25,26
 395 411 395 411 364.5 422.5 c 128,-1,27
 334 434 334 434 302 434 c 0,28,29
 268 434 268 434 236.5 422.5 c 128,-1,30
 205 411 205 411 182 390 c 1,31,-1
 182 322 l 1,32,-1
 419 322 l 1,24,-1
EndSplineSet
EndChar
StartChar: partialdiff
Encoding: 8706 8706 340
Width: 602
GlyphClass: 1
Flags: W
LayerCount: 2
Fore
SplineSet
162 15 m 128,-1,1
 106 42 106 42 74 94.5 c 128,-1,2
 42 147 42 147 42 219 c 0,3,4
 42 281 42 281 69 334 c 128,-1,5
 96 387 96 387 146 418.5 c 128,-1,6
 196 450 196 450 262 450 c 256,7,8
 328 450 328 450 369.5 424.5 c 128,-1,9
 411 399 411 399 430 358 c 1,10,11
 424 461 424 461 349.5 507 c 128,-1,12
 275 553 275 553 155 553 c 0,13,14
 132 553 132 553 120 552 c 1,15,-1
 120 680 l 1,16,17
 243 680 243 680 338 654 c 128,-1,18
 433 628 433 628 496.5 547.5 c 128,-1,19
 560 467 560 467 560 316 c 256,20,21
 560 165 560 165 496 76.5 c 128,-1,22
 432 -12 432 -12 290 -12 c 0,23,0
 218 -12 218 -12 162 15 c 128,-1,1
366.5 146.5 m 128,-1,25
 391 177 391 177 391 218 c 0,26,27
 391 261 391 261 366.5 291 c 128,-1,28
 342 321 342 321 298 321 c 256,29,30
 254 321 254 321 229 291 c 128,-1,31
 204 261 204 261 204 218 c 0,32,33
 204 177 204 177 229 146.5 c 128,-1,34
 254 116 254 116 298 116 c 256,35,24
 342 116 342 116 366.5 146.5 c 128,-1,25
EndSplineSet
EndChar
StartChar: product
Encoding: 8719 8719 337
Width: 619
GlyphClass: 1
Flags: W
LayerCount: 2
Fore
SplineSet
39 668 m 1,0,-1
 581 668 l 1,1,-1
 581 -162 l 1,2,-1
 444 -162 l 1,3,-1
 444 545 l 1,4,-1
 176 545 l 1,5,-1
 176 -162 l 1,6,-1
 39 -162 l 1,7,-1
 39 668 l 1,0,-1
EndSplineSet
EndChar
StartChar: summation
Encoding: 8721 8721 338
Width: 623
GlyphClass: 1
Flags: W
LayerCount: 2
Fore
SplineSet
39 -25 m 1,0,-1
 274 254 l 1,1,-1
 39 531 l 1,2,-1
 39 668 l 1,3,-1
 584 668 l 1,4,-1
 584 531 l 1,5,-1
 222 531 l 1,6,-1
 460 254 l 1,7,-1
 222 -25 l 1,8,-1
 584 -25 l 1,9,-1
 584 -162 l 1,10,-1
 39 -162 l 1,11,-1
 39 -25 l 1,0,-1
EndSplineSet
EndChar
StartChar: radical
Encoding: 8730 8730 339
Width: 733
GlyphClass: 1
Flags: W
LayerCount: 2
Fore
SplineSet
188 83 m 1,0,-1
 39 83 l 1,1,-1
 39 225 l 1,2,-1
 285 225 l 1,3,-1
 361 41 l 1,4,-1
 540 668 l 1,5,-1
 694 668 l 1,6,-1
 462 -162 l 1,7,-1
 296 -162 l 1,8,-1
 188 83 l 1,0,-1
EndSplineSet
EndChar
StartChar: infinity
Encoding: 8734 8734 335
Width: 746
GlyphClass: 1
Flags: W
LayerCount: 2
Fore
SplineSet
126 116.5 m 128,-1,1
 86 137 86 137 63 173.5 c 128,-1,2
 40 210 40 210 40 256 c 256,3,4
 40 302 40 302 63 338.5 c 128,-1,5
 86 375 86 375 126 395.5 c 128,-1,6
 166 416 166 416 214 416 c 0,7,8
 264 416 264 416 301.5 396 c 128,-1,9
 339 376 339 376 373 340 c 1,10,11
 407 376 407 376 444.5 396 c 128,-1,12
 482 416 482 416 532 416 c 0,13,14
 580 416 580 416 620 395.5 c 128,-1,15
 660 375 660 375 683 338.5 c 128,-1,16
 706 302 706 302 706 256 c 256,17,18
 706 210 706 210 683 173.5 c 128,-1,19
 660 137 660 137 620 116.5 c 128,-1,20
 580 96 580 96 532 96 c 0,21,22
 482 96 482 96 444.5 116 c 128,-1,23
 407 136 407 136 373 172 c 1,24,25
 339 136 339 136 301.5 116 c 128,-1,26
 264 96 264 96 214 96 c 0,27,0
 166 96 166 96 126 116.5 c 128,-1,1
303 256 m 1,29,30
 266 303 266 303 222 303 c 0,31,32
 197 303 197 303 182 290 c 128,-1,33
 167 277 167 277 167 256 c 256,34,35
 167 235 167 235 182 222 c 128,-1,36
 197 209 197 209 222 209 c 0,37,28
 266 209 266 209 303 256 c 1,29,30
564 222 m 128,-1,39
 579 235 579 235 579 256 c 256,40,41
 579 277 579 277 564 290 c 128,-1,42
 549 303 549 303 524 303 c 0,43,44
 480 303 480 303 443 256 c 1,45,46
 480 209 480 209 524 209 c 0,47,38
 549 209 549 209 564 222 c 128,-1,39
EndSplineSet
EndChar
StartChar: integral
Encoding: 8747 8747 336
Width: 491
GlyphClass: 1
Flags: W
LayerCount: 2
Fore
SplineSet
64 -148 m 128,-1,1
 33 -122 33 -122 33 -87 c 0,2,3
 33 -59 33 -59 49.5 -41.5 c 128,-1,4
 66 -24 66 -24 94 -24 c 256,5,6
 122 -24 122 -24 137.5 -40.5 c 128,-1,7
 153 -57 153 -57 153 -85 c 0,8,9
 153 -93 153 -93 150 -105 c 1,10,11
 162 -96 162 -96 166 -77 c 128,-1,12
 170 -58 170 -58 171 -16 c 2,13,-1
 177 416 l 2,14,15
 179 557 179 557 225 618.5 c 128,-1,16
 271 680 271 680 343 680 c 0,17,18
 396 680 396 680 427 654 c 128,-1,19
 458 628 458 628 458 593 c 0,20,21
 458 565 458 565 441.5 547.5 c 128,-1,22
 425 530 425 530 397 530 c 256,23,24
 369 530 369 530 353.5 546.5 c 128,-1,25
 338 563 338 563 338 591 c 0,26,27
 338 601 338 601 341 611 c 1,28,29
 329 602 329 602 325 583 c 128,-1,30
 321 564 321 564 320 522 c 2,31,-1
 314 90 l 2,32,33
 312 -51 312 -51 266 -112.5 c 128,-1,34
 220 -174 220 -174 148 -174 c 0,35,0
 95 -174 95 -174 64 -148 c 128,-1,1
EndSplineSet
EndChar
StartChar: approxequal
Encoding: 8776 8776 331
Width: 523
GlyphClass: 1
Flags: W
LayerCount: 2
Fore
SplineSet
73 201 m 128,-1,1
 103 241 103 241 165 241 c 0,2,3
 191 241 191 241 213 232.5 c 128,-1,4
 235 224 235 224 265 207 c 0,5,6
 292 193 292 193 306.5 187 c 128,-1,7
 321 181 321 181 337 181 c 0,8,9
 377 181 377 181 377 244 c 1,10,-1
 486 203 l 1,11,12
 480 127 480 127 450 87 c 128,-1,13
 420 47 420 47 358 47 c 0,14,15
 332 47 332 47 310 55.5 c 128,-1,16
 288 64 288 64 258 81 c 0,17,18
 231 95 231 95 216.5 101 c 128,-1,19
 202 107 202 107 186 107 c 0,20,21
 146 107 146 107 146 44 c 1,22,-1
 37 85 l 1,23,0
 43 161 43 161 73 201 c 128,-1,1
73 410 m 128,-1,25
 103 450 103 450 165 450 c 0,26,27
 191 450 191 450 213 441.5 c 128,-1,28
 235 433 235 433 265 416 c 0,29,30
 292 402 292 402 306.5 396 c 128,-1,31
 321 390 321 390 337 390 c 0,32,33
 377 390 377 390 377 453 c 1,34,-1
 486 412 l 1,35,36
 480 336 480 336 450 296 c 128,-1,37
 420 256 420 256 358 256 c 0,38,39
 332 256 332 256 310 264.5 c 128,-1,40
 288 273 288 273 258 290 c 0,41,42
 231 304 231 304 216.5 310 c 128,-1,43
 202 316 202 316 186 316 c 0,44,45
 146 316 146 316 146 253 c 1,46,-1
 37 294 l 1,47,24
 43 370 43 370 73 410 c 128,-1,25
EndSplineSet
EndChar
StartChar: notequal
Encoding: 8800 8800 325
Width: 611
GlyphClass: 1
Flags: W
LayerCount: 2
Fore
SplineSet
114 91 m 1,0,-1
 48 91 l 1,1,-1
 48 230 l 1,2,-1
 211 230 l 1,3,-1
 245 278 l 1,4,-1
 48 278 l 1,5,-1
 48 415 l 1,6,-1
 340 415 l 1,7,-1
 397 496 l 1,8,-1
 560 496 l 1,9,-1
 503 415 l 1,10,-1
 563 415 l 1,11,-1
 563 278 l 1,12,-1
 408 278 l 1,13,-1
 374 230 l 1,14,-1
 563 230 l 1,15,-1
 563 91 l 1,16,-1
 277 91 l 1,17,-1
 213 0 l 1,18,-1
 50 0 l 1,19,-1
 114 91 l 1,0,-1
EndSplineSet
EndChar
StartChar: lessequal
Encoding: 8804 8804 329
Width: 597
GlyphClass: 1
Flags: W
LayerCount: 2
Fore
SplineSet
39 259 m 1,0,-1
 39 395 l 1,1,-1
 558 511 l 1,2,-1
 558 375 l 1,3,-1
 227 328 l 1,4,-1
 558 279 l 1,5,-1
 558 143 l 1,6,-1
 39 259 l 1,0,-1
39 137 m 1,7,-1
 558 137 l 1,8,-1
 558 0 l 1,9,-1
 39 0 l 1,10,-1
 39 137 l 1,7,-1
EndSplineSet
EndChar
StartChar: greaterequal
Encoding: 8805 8805 328
Width: 597
GlyphClass: 1
Flags: W
LayerCount: 2
Fore
SplineSet
39 279 m 1,0,-1
 370 328 l 1,1,-1
 39 375 l 1,2,-1
 39 511 l 1,3,-1
 558 395 l 1,4,-1
 558 259 l 1,5,-1
 39 143 l 1,6,-1
 39 279 l 1,0,-1
39 137 m 1,7,-1
 558 137 l 1,8,-1
 558 0 l 1,9,-1
 39 0 l 1,10,-1
 39 137 l 1,7,-1
EndSplineSet
EndChar
StartChar: lozenge
Encoding: 9674 9674 343
Width: 616
GlyphClass: 1
Flags: W
LayerCount: 2
Fore
SplineSet
39 313 m 1,0,-1
 308 718 l 1,1,-1
 577 313 l 1,2,-1
 308 -94 l 1,3,-1
 39 313 l 1,0,-1
429 313 m 1,4,-1
 308 492 l 1,5,-1
 186 313 l 1,6,-1
 308 133 l 1,7,-1
 429 313 l 1,4,-1
EndSplineSet
EndChar
StartChar: musicalnote
Encoding: 9834 9834 296
Width: 632
GlyphClass: 1
Flags: W
LayerCount: 2
Fore
SplineSet
118.5 8.5 m 128,-1,1
 88 27 88 27 70 58 c 128,-1,2
 52 89 52 89 52 126 c 256,3,4
 52 163 52 163 70.5 194 c 128,-1,5
 89 225 89 225 120 243.5 c 128,-1,6
 151 262 151 262 188 262 c 0,7,8
 221 262 221 262 249 248 c 1,9,-1
 249 668 l 1,10,-1
 339 668 l 1,11,12
 341 642 341 642 354 621.5 c 128,-1,13
 367 601 367 601 386.5 583 c 128,-1,14
 406 565 406 565 451 529 c 0,15,16
 511 481 511 481 545 437 c 128,-1,17
 579 393 579 393 579 339 c 0,18,19
 579 302 579 302 555.5 262.5 c 128,-1,20
 532 223 532 223 480 174 c 1,21,-1
 472 176 l 1,22,23
 457 325 457 325 339 386 c 1,24,-1
 339 176 l 2,25,26
 339 83 339 83 295.5 36.5 c 128,-1,27
 252 -10 252 -10 185 -10 c 0,28,0
 149 -10 149 -10 118.5 8.5 c 128,-1,1
EndSplineSet
EndChar
StartChar: acutecomb.case
Encoding: 65553 -1 352
Width: 0
GlyphClass: 4
Flags: W
AnchorPoint: "Anchor-5" 104 885 basemark 0
AnchorPoint: "Anchor-5" 104 668 mark 0
AnchorPoint: "Anchor-1" 104 668 mark 0
LayerCount: 2
Fore
SplineSet
216 886 m 0,1,2
 243 886 243 886 258.5 870 c 128,-1,3
 274 854 274 854 274 831 c 0,4,5
 274 814 274 814 266.5 800.5 c 128,-1,6
 259 787 259 787 237 772 c 2,7,-1
 177 729 l 1,8,-1
 46 729 l 1,9,-1
 151 848 l 2,10,0
 183 886 183 886 216 886 c 0,1,2
EndSplineSet
EndChar
StartChar: gravecomb.case
Encoding: 65552 -1 350
Width: 0
GlyphClass: 4
Flags: W
AnchorPoint: "Anchor-5" 216 885 basemark 0
AnchorPoint: "Anchor-5" 216 668 mark 0
AnchorPoint: "Anchor-1" 216 668 mark 0
LayerCount: 2
Fore
SplineSet
53.5 800.5 m 128,-1,1
 46 814 46 814 46 831 c 0,2,3
 46 854 46 854 61.5 870 c 128,-1,4
 77 886 77 886 104 886 c 0,5,6
 137 886 137 886 169 848 c 2,7,-1
 274 729 l 1,8,-1
 143 729 l 1,9,-1
 83 772 l 2,10,0
 61 787 61 787 53.5 800.5 c 128,-1,1
EndSplineSet
EndChar
StartChar: one.tf
Encoding: 65540 -1 240
Width: 632
GlyphClass: 1
Flags: W
LayerCount: 2
Fore
SplineSet
100 133 m 1,0,-1
 247 133 l 1,1,-1
 247 437 l 1,2,-1
 100 437 l 1,3,-1
 100 571 l 1,4,5
 160 571 160 571 191 576.5 c 128,-1,6
 222 582 222 582 244 602.5 c 128,-1,7
 266 623 266 623 284 668 c 1,8,-1
 410 668 l 1,9,-1
 410 133 l 1,10,-1
 532 133 l 1,11,-1
 532 0 l 1,12,-1
 100 0 l 1,13,-1
 100 133 l 1,0,-1
EndSplineSet
Substitution2: "'pnum' Proportional Numbers in Latin lookup 9 subtable" one
AlternateSubs2: "'aalt' Access All Alternates in Latin lookup 0 subtable" one
EndChar
StartChar: uni0307.case
Encoding: 65550 -1 347
Width: 0
GlyphClass: 4
Flags: W
AnchorPoint: "Anchor-5" 125 875 basemark 0
AnchorPoint: "Anchor-5" 125 668 mark 0
AnchorPoint: "Anchor-1" 125 668 mark 0
LayerCount: 2
Fore
SplineSet
69.5 740.5 m 128,-1,1
 46 764 46 764 46 796 c 256,2,3
 46 828 46 828 69.5 851.5 c 128,-1,4
 93 875 93 875 125 875 c 256,5,6
 157 875 157 875 180.5 851.5 c 128,-1,7
 204 828 204 828 204 796 c 256,8,9
 204 764 204 764 180.5 740.5 c 128,-1,10
 157 717 157 717 125 717 c 256,11,0
 93 717 93 717 69.5 740.5 c 128,-1,1
EndSplineSet
EndChar
StartChar: uni0307.large
Encoding: 65551 -1 348
Width: 0
GlyphClass: 4
Flags: W
AnchorPoint: "Anchor-5" 141 766 basemark 0
AnchorPoint: "Anchor-5" 141 496 mark 0
AnchorPoint: "Anchor-1" 141 496 mark 0
LayerCount: 2
Fore
SplineSet
73.5 603.5 m 128,-1,1
 46 631 46 631 46 671 c 256,2,3
 46 711 46 711 73.5 738.5 c 128,-1,4
 101 766 101 766 141 766 c 256,5,6
 181 766 181 766 208.5 738.5 c 128,-1,7
 236 711 236 711 236 671 c 256,8,9
 236 631 236 631 208.5 603.5 c 128,-1,10
 181 576 181 576 141 576 c 256,11,0
 101 576 101 576 73.5 603.5 c 128,-1,1
EndSplineSet
EndChar
StartChar: uni030A.case
Encoding: 65559 -1 363
Width: 0
GlyphClass: 4
Flags: W
AnchorPoint: "Anchor-5" 183 865 basemark 0
AnchorPoint: "Anchor-5" 183 668 mark 0
AnchorPoint: "Anchor-1" 183 668 mark 0
LayerCount: 2
Fore
SplineSet
114.5 609 m 128,-1,1
 83 627 83 627 64.5 658.5 c 128,-1,2
 46 690 46 690 46 728 c 256,3,4
 46 766 46 766 64.5 797.5 c 128,-1,5
 83 829 83 829 114.5 847 c 128,-1,6
 146 865 146 865 183 865 c 256,7,8
 220 865 220 865 251.5 847 c 128,-1,9
 283 829 283 829 301.5 797.5 c 128,-1,10
 320 766 320 766 320 728 c 256,11,12
 320 690 320 690 301.5 658.5 c 128,-1,13
 283 627 283 627 251.5 609 c 128,-1,14
 220 591 220 591 183 591 c 256,15,0
 146 591 146 591 114.5 609 c 128,-1,1
215.5 695.5 m 128,-1,17
 229 709 229 709 229 728 c 256,18,19
 229 747 229 747 215.5 760.5 c 128,-1,20
 202 774 202 774 183 774 c 256,21,22
 164 774 164 774 150.5 760.5 c 128,-1,23
 137 747 137 747 137 728 c 256,24,25
 137 709 137 709 150.5 695.5 c 128,-1,26
 164 682 164 682 183 682 c 256,27,16
 202 682 202 682 215.5 695.5 c 128,-1,17
EndSplineSet
EndChar
StartChar: uni030C.alt
Encoding: 65555 -1 355
Width: 0
GlyphClass: 4
Flags: W
AnchorPoint: "Anchor-3" 26 496 mark 0
LayerCount: 2
Fore
SplineSet
90 703.5 m 128,-1,1
 107 718 107 718 129 718 c 0,2,3
 156 718 156 718 171.5 702.5 c 128,-1,4
 187 687 187 687 187 663 c 0,5,6
 187 653 187 653 183 641 c 128,-1,7
 179 629 179 629 169 606 c 2,8,-1
 132 524 l 1,9,-1
 46 524 l 1,10,-1
 69 662 l 2,11,0
 73 689 73 689 90 703.5 c 128,-1,1
EndSplineSet
EndChar
StartChar: uni0328.alt
Encoding: 65562 -1 372
Width: 0
GlyphClass: 4
Flags: W
AnchorPoint: "Anchor-2" 279 10 mark 0
LayerCount: 2
Fore
SplineSet
81 -146 m 128,-1,1
 46 -118 46 -118 46 -72 c 0,2,3
 46 -30 46 -30 74 0 c 128,-1,4
 102 30 102 30 138 42 c 1,5,-1
 265 42 l 1,6,7
 232 18 232 18 219.5 8.5 c 128,-1,8
 207 -1 207 -1 194.5 -18.5 c 128,-1,9
 182 -36 182 -36 182 -56 c 0,10,11
 182 -95 182 -95 228 -95 c 0,12,13
 241 -95 241 -95 256 -91.5 c 128,-1,14
 271 -88 271 -88 279 -86 c 1,15,-1
 279 -165 l 1,16,17
 268 -168 268 -168 242 -171 c 128,-1,18
 216 -174 216 -174 197 -174 c 0,19,0
 116 -174 116 -174 81 -146 c 128,-1,1
EndSplineSet
EndChar
StartChar: uni0328.case
Encoding: 65563 -1 373
Width: 0
GlyphClass: 4
Flags: W
AnchorPoint: "Anchor-2" 279 10 mark 0
LayerCount: 2
Fore
SplineSet
81 -147.5 m 128,-1,1
 46 -119 46 -119 46 -84 c 0,2,3
 46 -52 46 -52 69.5 -28.5 c 128,-1,4
 93 -5 93 -5 130 8 c 1,5,-1
 279 0 l 1,6,7
 249 -2 249 -2 216 -21.5 c 128,-1,8
 183 -41 183 -41 183 -65 c 0,9,10
 183 -81 183 -81 196.5 -88 c 128,-1,11
 210 -95 210 -95 228 -95 c 0,12,13
 241 -95 241 -95 256 -91.5 c 128,-1,14
 271 -88 271 -88 279 -86 c 1,15,-1
 279 -167 l 1,16,17
 268 -170 268 -170 242 -173 c 128,-1,18
 216 -176 216 -176 197 -176 c 0,19,0
 116 -176 116 -176 81 -147.5 c 128,-1,1
EndSplineSet
EndChar
